<?xml version="1.0" encoding="UTF-8"?>
<svg width="1200pt" height="1200pt" version="1.1" viewBox="0 0 1200 1200" xmlns="http://www.w3.org/2000/svg">
 <path d="m600 703.44c-7.0117 0.082032-13.777-2.5898-18.84-7.4414l-153.48-153.84c-5.0586-5.0117-7.9219-11.832-7.957-18.953-0.03125-7.1211 2.7656-13.965 7.7773-19.027 5.0117-5.0586 11.832-7.9219 18.953-7.957 7.1211-0.03125 13.965 2.7656 19.027 7.7773l134.52 135 134.52-135c6.8516-6.2188 16.43-8.457 25.328-5.918 8.8945 2.5391 15.852 9.4961 18.391 18.391 2.5391 8.8984 0.30078 18.477-5.918 25.328l-153.48 154.2c-5.0625 4.8516-11.828 7.5234-18.84 7.4414z" fill="#fff"/>
</svg>
