<?xml version="1.0" encoding="UTF-8"?>
<svg width="1200pt" height="1200pt" version="1.1" viewBox="0 0 1200 1200" xmlns="http://www.w3.org/2000/svg">
 <g fill="#25d266">
  <path d="m600 0c-306.73 0-556.18 249.45-556.18 556.18 0 123.27 39.453 239.64 114.18 337.27l-87.453 237.09c-3.2734 8.9102-0.36328 18.363 5.8164 25.816 9.4531 11.273 22.91 6.3633 25.816 5.0898l259.27-103.09c75.453 36 155.64 54.184 238.55 54.184 306.73 0 556.18-249.45 556.18-556.18 0-306.91-249.45-556.36-556.18-556.36zm0 1064c-78.91 0-155.09-18.184-226.73-53.816-6.1836-3.0898-13.453-3.4531-19.816-0.91016l-218.55 87.09 73.273-198.73c2.9102-8 1.4531-16.91-3.8164-23.637-73.453-91.09-112.18-201.09-112.18-317.82 0-280 227.82-507.64 507.82-507.64s507.82 227.82 507.82 507.82c0 279.82-227.82 507.64-507.82 507.64z"/>
  <path d="m962 755.64c-2-9.2734-6.7266-17.637-13.637-24.547l-82.547-82.547c-12.547-12.547-31.09-17.637-48.184-13.273-20.91 5.2734-59.637 20-84.363 59.816-4.5469 7.2734-8.1836 15.637-11.09 25.637-3.2734 11.09-8 18-10.91 19.453-1.0898 0.54688-3.0898 0.36328-4.1836 0.18359-0.72656-0.36328-66.547-30.547-163.09-127.09-95.637-95.637-126.36-161.27-126.36-161.27-0.91016-2.7266-1.0898-4.7266-0.54687-5.8164 1.6367-3.0898 8.3633-7.8164 19.637-10.91 9.8164-2.9102 18.184-6.5469 25.453-10.91 39.816-24.727 54.727-63.453 60-84.363 4.3633-17.09-0.72656-35.637-13.273-48.184l-82.547-82.547c-6.9102-6.9102-15.453-11.637-24.727-13.637-48.727-10.363-92.363 35.273-95.637 38.91-84.184 75.816-69.273 173.82-67.453 184.18 20.547 142.36 102.91 241.27 180.91 319.27s177.09 160.55 318.55 180.73c1.4531 0.18359 12.547 2.3633 29.816 2.3633 36.91 0 101.09-9.6367 153.64-68 5.2734-4.9102 50.91-48.547 40.547-97.453zm-74.91 63.273c-59.637 66.184-136.55 52.727-140.91 52-128.55-18.363-220-94.91-292.36-167.27-72.363-72.363-148.91-163.82-167.27-292.36 0-0.36328-0.18359-0.72656-0.18359-1.0898-0.54688-3.2734-14-80.184 53.637-141.27 8.5469-9.0898 29.637-26 46.727-26 1.8164 0 3.4531 0.18359 5.2734 0.54688l83.09 84.547c-3.4531 13.816-13.09 39.273-38.547 55.09-3.4531 2.1836-7.8164 4-13.273 5.6367-16.547 4.7266-38.547 14.727-49.273 35.273-4.7266 9.2734-9.0898 24.547-1.2734 46 1.2734 2.9102 33.453 73.816 137.09 177.64 103.64 103.64 174.55 135.82 179.27 137.82 19.816 7.0898 34.91 2.7266 44.363-2 20.547-10.547 30.547-32.547 35.273-49.09 1.6367-5.4531 3.4531-9.8164 5.6367-13.453 15.637-25.453 41.273-35.09 56.91-37.816l83.09 83.09c3.8164 16.91-15.637 41.816-27.273 52.727z"/>
 </g>
</svg>
