<?xml version="1.0" standalone="no"?>
<!DOCTYPE svg PUBLIC "-//W3C//DTD SVG 1.1//EN" "http://www.w3.org/Graphics/SVG/1.1/DTD/svg11.dtd">
<svg xmlns="http://www.w3.org/2000/svg">
<defs >
<font id="Alkatra" horiz-adv-x="740" ><font-face
    font-family="Alkatra Medium"
    units-per-em="1000"
    panose-1="3 8 9 2 4 3 2 2 2 0"
    ascent="1095"
    descent="-589"
    alphabetic="0" />
<glyph unicode=" " horiz-adv-x="230" />
<glyph unicode="!" horiz-adv-x="219" d="M97 629Q98 653 107 667T133 689T171 696Q204 696 219 683T234 646Q234 641 234 635T232 623L188 429Q172 356 162 310T144 238T124 204T92 194Q85 194 79 199T74 213L97 629ZM86 -18Q56 -18 34 2T11 57Q11 97 37 119T97
141Q128 141 149 123T170 67Q170 31 145 7T86 -18Z" />
<glyph unicode="&quot;" horiz-adv-x="328" d="M86 928Q87 937 91 940T102 944H154Q180 944 195 934T196 884L133 702Q121 667 113 657T86 646Q76 646 70 654T64 672L86 928ZM236 672Q237 681 241 684T252 688H304Q330 688 345 678T346 628L283 446Q271 411 263
401T236 390Q226 390 220 398T214 416L236 672Z" />
<glyph unicode="#" horiz-adv-x="616" d="M150 -170Q136 -170 125 -153T110 -94Q109 -84 109 -72T108 -46Q107 -19 109 13T118 88L215 671Q217 686 225 691T243 696Q255 696 265 688T282 656T289 589Q289 562 286 526T275 441L184 -132Q181 -149 173 -159T150
-170ZM28 111Q15 111 11 116T7 134Q7 144 14 156T36 179T77 189L514 195Q534 195 548 196T568 197Q580 197 583 193T586 180Q586 167 580 153T558 129T514 118L28 111ZM375 -170Q365 -170 357 -162T344 -138T336 -104T333 -64Q333 -35 336 2T347 88L440 671Q442
686 450 691T468 696Q480 696 490 688T507 656T514 589Q514 562 511 526T500 441L409 -132Q406 -149 398 -159T375 -170ZM55 329Q42 329 39 335T36 352Q36 362 43 374T65 397T105 407L543 413Q564 413 577 414T597 415Q609 415 612 411T615 398Q615 385 609 371T587
347T543 336L55 329Z" />
<glyph unicode="$" horiz-adv-x="580" d="M389 684L263 -77Q261 -90 253 -99T230 -108Q211 -108 201 -91T195 -48L328 775Q331 793 340 798T358 802Q369 801 379 791T396 767T401 743Q400 724 396 710T389 684ZM33 86Q33 122 39 137T59 153Q68 153 85 141T128
113T187 85T261 72Q297 72 324 82T368 112T384 159Q384 185 373 203T341 237T294 270L226 314Q193 336 161 360T107 418T86 500Q86 562 122 606T219 673T354 696Q426 696 462 688T512 665T525 628Q525 600 517 583T498 565Q489 565 478 571T447 586Q431 594 401
602T329 611Q302 611 277 601T237 573T221 527Q221 504 233 487T264 455T308 429L369 400Q411 380 448 357T508 300T531 208Q531 137 494 88T392 13T242 -13Q145 -13 89 13T33 86Z" />
<glyph unicode="%" horiz-adv-x="561" d="M25 -16Q12 -16 4 -4T-3 24Q-2 37 13 62T55 119L514 688Q521 696 529 697T542 698Q557 697 563 686T570 659Q570 645 561 630T541 602L60 5Q52 -5 44 -10T25 -16ZM164 417Q105 417 72 454T38 546Q38 588 56 623T108 679T187
701Q250 701 281 663T312 573Q312 530 293 495T241 438T164 417ZM170 493Q198 493 215 512T232 566Q232 592 221 609T183 627Q154 629 136 608T117 555Q117 528 130 511T170 493ZM393 -17Q334 -17 301 20T267 112Q267 154 285 189T336 245T415 267Q478 267 509
229T540 139Q540 96 522 61T470 4T393 -17ZM399 59Q426 59 443 78T461 132Q461 158 449 175T412 193Q383 195 365 174T346 121Q346 94 359 77T399 59Z" />
<glyph unicode="&amp;" horiz-adv-x="673" d="M538 -15Q526 -15 512 -9T475 15T418 67T333 157L186 318Q152 356 129 385T94 445T82 513Q82 597 139 646T295 696Q399 696 446 655T493 547Q493 507 475 471T426 405T363 354T297 324L266 377Q308 408 337 448T367
534Q367 572 347 594T290 616Q253 616 229 594T204 528Q204 495 226 457T281 384L475 177Q516 134 556 108T644 62Q655 58 664 54T674 41Q674 33 660 24T624 5T579 -9T538 -15ZM217 372L242 326Q212 319 189 298T153 248T139 185Q139 130 172 101T258 71Q312 71
357 90T433 137T476 190Q494 227 497 258T501 314T507 357Q512 371 532 380T575 395T613 400Q621 400 625 395T630 381Q630 299 598 227T511 102T384 18T235 -13Q124 -13 63 31T2 167Q2 213 22 249T76 311T146 353T217 372Z" />
<glyph unicode="&apos;" horiz-adv-x="178" d="M86 673Q87 682 91 685T102 689H154Q180 689 195 679T196 629L133 447Q121 412 113 402T86 391Q76 391 70 399T64 417L86 673Z" />
<glyph unicode="(" horiz-adv-x="349" d="M318 689Q246 668 191 620T97 503T39 357T19 199Q19 115 40 47T96 -69T172 -144T253 -170Q270 -170 279 -163T288 -146Q288 -140 286 -136T273 -126Q251 -115 226 -94T180 -36T144 61T130 206Q130 263 141 328T178 455T249
568T364 648Q375 653 380 657T385 669Q385 680 378 688T357 696Q351 696 344 695T318 689Z" />
<glyph unicode=")" horiz-adv-x="349" d="M36 -164Q108 -143 163 -95T257 22T315 168T335 326Q335 410 314 478T258 594T182 669T101 695Q84 695 75 688T66 671Q66 665 68 661T81 651Q103 641 128 620T174 561T210 464T224 319Q224 262 213 197T176 70T105 -43T-10
-123Q-20 -127 -25 -131T-31 -144Q-31 -155 -24 -163T-3 -171Q3 -171 10 -170T36 -164Z" />
<glyph unicode="*" horiz-adv-x="391" d="M29 539Q29 563 45 578T83 594Q92 594 99 592T114 585L163 557Q173 550 179 555T181 571L161 624Q158 630 157 636T155 650Q155 675 172 689T212 704Q232 704 246 692T260 656Q260 648 258 642T253 628L230 571Q226 561
231 556T248 557L293 581Q302 586 310 590T329 594Q349 594 362 582T376 545Q376 522 361 506T322 489Q318 489 314 490T307 492L266 501Q253 504 249 498T255 482L306 437Q322 423 322 400Q322 378 306 362T268 346Q251 346 237 358T220 391L211 448Q209 461 201
462T190 450L172 385Q167 369 153 357T120 345Q100 345 86 358T71 394Q71 411 79 422T98 442L150 482Q162 490 159 497T143 502L126 498Q100 491 90 490T76 489Q57 489 43 503T29 539Z" />
<glyph unicode="+" horiz-adv-x="551" d="M490 321Q502 321 505 317T509 304Q509 291 502 277T480 253T436 242L69 234Q57 234 54 240T50 256Q50 266 57 278T79 301T119 311L490 321ZM337 429L303 108Q301 84 290 69T265 47T241 40Q231 40 226 43T220 59Q220 66
222 83T225 107L256 433Q259 461 270 476T296 498T324 505Q332 505 337 502T342 487Q342 478 341 465T337 429Z" />
<glyph unicode="," horiz-adv-x="217" d="M-21 -144Q-21 -137 -18 -134T-9 -128Q35 -111 55 -84T75 -22Q75 -11 72 -2T50 35L110 -12Q95 -18 79 -18Q51 -18 29 1T6 54Q6 93 31 114T90 136Q127 136 147 108T168 40Q168 -12 152 -51T109 -117T54 -156T1 -170Q-8
-170 -14 -161T-21 -144Z" />
<glyph unicode="-" horiz-adv-x="368" d="M249 289Q288 291 295 291T303 291Q315 291 319 287T323 273Q323 259 317 245T295 221T251 210L70 203Q69 203 68 203T66 203Q54 203 51 209T47 227Q47 244 63 263T117 283L249 289Z" />
<glyph unicode="." horiz-adv-x="212" d="M83 -18Q52 -18 30 2T8 57Q8 97 34 119T93 141Q125 141 146 123T167 67Q167 31 142 7T83 -18Z" />
<glyph unicode="/" horiz-adv-x="265" d="M271 639Q271 620 269 606T263 580L73 -129Q68 -148 60 -159T36 -170Q23 -170 12 -150T0 -111Q0 -98 2 -81T10 -44L195 668Q200 685 207 690T224 696Q242 696 256 677T271 639Z" />
<glyph unicode="0" horiz-adv-x="580" d="M261 -16Q151 -16 93 59T35 283Q35 374 58 450T123 581T222 666T346 696Q462 696 514 621T566 398Q566 306 544 230T481 99T384 14T261 -16ZM326 614Q291 614 264 589T219 520T191 419T182 295Q182 183 203 125T279 66Q320
66 351 106T402 216T421 378Q421 495 400 554T326 614Z" />
<glyph unicode="1" horiz-adv-x="580" d="M12 5Q12 23 28 40T71 60L269 82L212 27L269 555L138 520Q115 514 97 507T72 500Q62 500 57 504T51 519Q51 536 71 557T137 599L318 681Q327 685 341 690T366 696Q398 696 404 671T403 584L375 319Q367 240 362 175T362
53L307 86L508 117Q519 119 526 120T537 122Q552 122 552 105Q552 94 548 77T534 42T512 12T482 0H231Q179 0 136 -3T64 -9T28 -12Q12 -12 12 5Z" />
<glyph unicode="2" horiz-adv-x="580" d="M101 139L222 257Q282 315 318 356T370 432T387 507Q387 560 360 586T290 612Q251 612 219 597T164 567Q144 555 130 547T103 539Q94 539 87 548T77 573T73 603Q73 629 99 650T175 683T293 696Q364 696 418 677T504 619T536
522Q536 470 516 427T464 346T394 277T320 214L131 56L134 75L479 124Q498 127 513 129T538 131Q554 131 554 113Q554 101 550 83T536 45T513 13T482 0H358Q336 0 303 -1T234 -3T163 -6T105 -9T73 -10Q59 -10 52 -1T43 20T40 40Q40 60 52 81T101 139Z" />
<glyph unicode="3" horiz-adv-x="580" d="M374 367L385 398Q427 390 462 367T518 308T540 224Q540 152 500 98T391 14T237 -16Q156 -16 108 0T38 42T17 98Q17 125 22 140T40 155Q49 155 70 142T119 112T181 81T249 67Q292 67 324 88T375 145T393 223Q393 276 367
307T298 346L378 357Q354 344 325 331T268 310T218 302Q203 302 189 316T167 351T158 392Q158 410 166 419T187 428Q205 428 231 425T287 417T341 409T379 405L323 390Q353 410 369 447T386 519Q386 569 362 591T296 613Q261 613 227 597T166 566Q145 555 133 547T110
538Q101 538 94 547T83 570T79 601Q79 630 112 651T201 684T319 696Q412 696 469 656T526 544Q526 497 504 464T448 407T374 367Z" />
<glyph unicode="4" horiz-adv-x="580" d="M3 194Q3 214 8 229T33 270T93 343L332 627Q356 656 371 670T401 690T437 695H491Q509 695 516 686T524 649Q524 625 522 601T517 545T508 466L458 -8H374Q365 -8 357 -3T344 15T339 45Q339 74 341 108T347 176T352 234L395
640L426 611L90 201L55 244H388Q431 244 468 247T530 254T564 257Q574 257 578 252T583 238Q583 222 563 205T513 175T450 163L31 161Q16 161 10 169T3 194Z" />
<glyph unicode="5" horiz-adv-x="580" d="M19 96Q19 122 24 137T42 153Q52 153 70 140T115 110T172 80T238 67Q284 67 317 90T367 153T385 245Q385 301 358 329T282 358Q249 358 216 348T156 327T117 317Q94 317 94 364Q94 369 97 397T106 463L136 668Q138 680
151 680H309Q382 680 425 684T492 692T525 696Q536 696 541 693T546 674Q546 660 542 642T530 608T512 580T490 569Q476 569 441 573T357 582L164 605L227 646L188 376L151 392Q191 418 240 430T333 442Q389 442 434 423T507 362T535 257Q535 182 497 120T388 21T222
-16Q148 -16 104 -1T39 40T19 96Z" />
<glyph unicode="6" horiz-adv-x="580" d="M284 -16Q236 -16 193 -2T116 42T63 123T43 245Q43 344 68 427T139 570T251 663T396 696Q456 696 486 688T525 664T535 628Q535 601 527 584T508 566Q500 566 489 571T461 585Q446 592 416 602T351 613Q293 613 257 570T202
448T184 263Q184 166 214 116T295 66Q349 66 379 112T409 235Q409 269 399 297T366 341T305 357Q288 357 249 349T171 314L174 389Q209 412 253 426T350 441Q410 441 456 421T530 357T557 247Q557 190 536 142T476 59T388 4T284 -16Z" />
<glyph unicode="7" horiz-adv-x="580" d="M53 578Q54 603 60 626T77 664T101 680H594Q602 680 607 675T611 662Q610 636 602 619T580 586T548 552Q468 469 421 396T355 258T335 129Q335 98 344 74T353 37Q353 24 335 15T291 -2T244 -12T214 -16Q199 -16 191 3T183
81Q183 151 207 223T274 366T377 501T505 621L557 602L154 559Q124 557 109 555T76 552Q64 552 58 559T53 578Z" />
<glyph unicode="8" horiz-adv-x="580" d="M31 150Q31 187 48 221T97 285T168 333T255 357L283 317Q253 305 227 285T183 237T166 175Q166 118 199 92T282 66Q332 66 364 93T396 168Q396 196 383 214T346 248T289 286L245 315Q221 331 194 348T143 387T104 435T88
500Q87 559 119 603T208 671T334 696Q432 696 491 659T551 549Q551 515 533 485T486 431T421 392T348 370L310 409Q334 420 358 439T399 482T416 533Q416 569 395 591T330 613Q285 613 257 590T228 527Q228 501 240 483T270 453T305 430L411 369Q431 358 453 343T497
308T531 260T544 197Q544 137 507 89T408 13T265 -15Q159 -15 95 25T31 150Z" />
<glyph unicode="9" horiz-adv-x="580" d="M201 -16Q143 -16 112 -8T68 16T55 52Q55 82 64 98T84 115Q92 115 102 109T131 95Q145 88 174 78T239 67Q298 67 337 110T394 232T413 417Q413 514 383 564T303 614Q253 614 221 569T189 448Q189 394 213 359T293 323Q312
323 350 331T427 365L424 291Q390 269 346 254T255 239Q196 239 149 259T73 322T45 432Q45 489 66 537T124 621T210 676T314 696Q366 696 410 681T487 631T539 543T557 412Q557 324 534 247T464 110T352 18T201 -16Z" />
<glyph unicode=":" horiz-adv-x="219" d="M116 259Q85 259 63 279T41 334Q41 374 67 396T126 418Q158 418 179 400T200 344Q200 308 175 284T116 259ZM87 -18Q56 -18 34 2T12 57Q12 97 38 119T97 141Q129 141 150 123T171 67Q171 31 146 7T87 -18Z" />
<glyph unicode=";" horiz-adv-x="228" d="M114 259Q83 259 61 279T39 334Q39 374 65 396T124 418Q156 418 177 400T198 344Q198 308 173 284T114 259ZM-19 -144Q-19 -137 -16 -134T-7 -128Q37 -111 57 -84T77 -22Q77 -11 74 -2T52 35L112 -12Q97 -18 81 -18Q53
-18 31 1T8 54Q8 93 33 114T92 136Q129 136 149 108T170 40Q170 -12 154 -51T111 -117T56 -156T3 -170Q-6 -170 -12 -161T-19 -144Z" />
<glyph unicode="&lt;" horiz-adv-x="653" d="M562 481Q562 466 551 446T507 409L211 266V301L536 138Q546 133 551 130T556 116Q556 102 539 87T498 71Q480 71 464 79L164 233Q140 246 140 270Q140 288 157 308T231 358L508 500Q532 513 547 506T562 481Z" />
<glyph unicode="=" horiz-adv-x="550" d="M491 240Q503 240 506 236T509 223Q509 210 503 196T481 171T437 160L67 154Q55 154 52 160T49 176Q49 186 56 199T78 222T117 232L491 240ZM492 403Q504 403 507 399T510 386Q510 373 504 358T482 334T438 323L69 317Q57
317 54 323T51 339Q51 349 58 361T80 384T119 395L492 403Z" />
<glyph unicode="&gt;" horiz-adv-x="550" d="M87 76Q87 92 98 112T142 148L439 291V256L114 419Q105 424 100 428T94 441Q94 456 112 471T152 486Q170 486 186 478L486 324Q510 311 510 287Q510 269 493 249T419 199L142 57Q118 45 103 52T87 76Z" />
<glyph unicode="?" horiz-adv-x="402" d="M420 556Q420 508 396 471T333 404T253 355T175 321L259 388Q235 309 219 267T188 210T148 194Q132 194 126 200T120 221L126 330Q128 353 136 363T170 390Q226 427 253 460T280 540Q280 578 264 598T211 619Q174 619
149 605T107 577T79 563Q67 563 59 582T51 621Q51 650 94 673T219 696Q315 696 367 656T420 556ZM157 -18Q126 -18 104 2T82 57Q82 97 108 119T167 141Q199 141 220 123T241 67Q241 31 216 7T157 -18Z" />
<glyph unicode="@" horiz-adv-x="809" d="M308 131Q258 131 233 166T208 275Q208 353 239 415T324 513T443 550Q484 550 516 539T567 520L540 423Q517 441 488 455T433 477T398 485Q379 485 362 460T335 396T325 310Q325 268 328 242T344 216Q354 216 378 237T436
315T506 473H528L527 399Q481 261 426 196T308 131ZM38 263Q38 350 64 419T136 541T237 627T355 679T473 696Q569 696 641 664T753 572T794 425Q794 362 773 309T717 216T637 154T545 131Q510 131 494 150T477 191Q477 211 482 239T493 314L501 376L489 398L509
522Q519 523 536 525T572 529T605 532T623 534Q635 534 635 524Q635 520 634 515T630 499Q621 471 608 428T588 321L583 271Q579 237 583 227T602 216Q619 216 643 238T687 305T706 414Q706 485 675 533T590 605T464 629Q396 629 336 605T228 533T154 421T127 274Q127
163 192 108T369 52Q448 52 492 63T556 79Q561 80 565 80T572 81Q582 81 590 78T599 68Q599 56 577 42T518 15T439 -6T358 -15Q261 -15 189 17T78 112T38 263Z" />
<glyph unicode="A" horiz-adv-x="658" d="M12 -14Q-15 -14 -15 3Q-15 11 -7 29L289 627Q297 644 320 659T375 684T441 695Q451 695 459 690T470 665Q487 550 511 437T566 212Q580 165 590 136T610 92Q621 77 629 68T638 49Q638 39 625 28T593 8T553 -6T519 -12Q496
-12 473 27T428 170L341 587L370 599L176 189Q163 161 158 142T151 108T147 72Q145 53 128 38T87 11T42 -7T12 -14ZM140 190V270H512V190H140Z" />
<glyph unicode="B" horiz-adv-x="587" d="M78 -8Q60 -8 53 8T46 51Q46 71 49 96L113 679Q151 683 193 686T287 690Q382 690 438 673T520 621T546 537Q546 479 512 436T423 365L390 348Q363 335 342 327T304 318Q282 318 262 331T242 357Q242 366 246 369T259 375Q293
384 328 402T386 449T409 523Q409 573 367 593T237 613L190 159Q189 149 189 140T188 120Q188 109 189 99T191 78Q301 78 359 114T417 224Q417 269 394 301T337 347L407 384Q455 372 490 348T544 290T563 216Q563 153 532 104T437 28T275 0Q255 0 226 -1T166 -4T111
-7T78 -8Z" />
<glyph unicode="C" horiz-adv-x="607" d="M327 -16Q242 -16 178 17T78 118T41 283Q41 373 70 448T153 579T279 665T441 696Q525 696 567 678T610 611Q610 586 601 568T579 549Q570 549 556 557T529 572Q505 585 476 599T404 614Q343 614 295 575T218 466T189 301Q189
222 210 170T269 92T352 66Q390 66 420 81T473 116T514 151T548 167Q561 167 568 160T576 137Q576 96 542 62T452 6T327 -16Z" />
<glyph unicode="D" horiz-adv-x="680" d="M90 -8Q72 -8 63 12T53 59Q53 98 62 186L112 680Q166 685 223 687T326 690Q485 690 573 614T661 400Q661 284 612 194T468 52T238 0Q198 0 160 -4T90 -8ZM195 79Q297 79 368 118T476 227T513 388Q513 496 455 554T266
613H241L196 163Q195 146 195 124T195 79Z" />
<glyph unicode="E" horiz-adv-x="503" d="M91 -12Q73 -12 64 10T54 59Q54 98 63 186L113 680H273Q343 680 386 682T452 688T485 691Q496 691 502 688T509 669Q509 651 501 628T481 588T454 571Q444 571 420 575T366 584L242 602L197 166Q195 144 195 123T198 80L403
122Q421 126 435 129T455 132Q469 132 469 114Q469 91 460 65T436 19T398 0H363Q251 0 184 -6T91 -12ZM154 312L167 395H215Q258 395 295 398T357 404T389 407Q399 407 404 402T409 387Q409 372 390 355T341 327T278 314L154 312Z" />
<glyph unicode="F" horiz-adv-x="474" d="M93 -12Q76 -12 67 1T55 32T51 67Q51 87 54 114T61 186L113 680H262Q333 680 376 682T442 688T476 691Q487 691 493 688T499 669Q499 651 491 628T471 588T444 571Q437 571 425 572T399 576T370 581L238 602L181 -12H93ZM155
292L168 376H216Q259 376 298 379T364 385T398 388Q408 388 412 382T417 368Q417 353 398 336T347 307T280 294L155 292Z" />
<glyph unicode="G" horiz-adv-x="673" d="M367 -16Q267 -16 194 17T81 118T41 283Q41 373 70 448T152 579T279 665T444 696Q522 696 564 678T606 611Q606 586 598 568T575 549Q565 549 552 557T524 572Q500 585 472 599T404 614Q341 614 293 576T217 467T189 301Q189
212 222 162T319 91T477 70L514 404H600Q623 404 631 395T639 358Q639 352 639 346T638 334L607 76Q603 47 596 25T568 0Q514 -8 463 -12T367 -16Z" />
<glyph unicode="H" horiz-adv-x="674" d="M161 310V395H532V310H161ZM100 -8Q83 -8 73 5T58 39T53 80Q53 118 58 154T67 234L115 695H193Q222 695 232 677T243 632Q243 608 241 588T236 541T227 466L177 -8H100ZM505 -8Q488 -8 478 5T463 39T458 80Q458 118 463
154T472 234L520 695H598Q627 695 637 677T648 632Q648 608 646 588T641 541T632 466L582 -8H505Z" />
<glyph unicode="I" horiz-adv-x="268" d="M100 -8Q83 -8 73 5T58 39T53 80Q53 118 58 154T67 234L115 695H193Q222 695 232 677T243 632Q243 608 241 588T236 541T227 466L177 -8H100Z" />
<glyph unicode="J" horiz-adv-x="277" d="M-24 -170Q-77 -170 -104 -144T-132 -68Q-132 -55 -127 -51T-118 -46Q-113 -46 -108 -48T-89 -56Q-65 -66 -42 -74T-2 -83Q13 -83 22 -69T38 -20T52 78L120 695H199Q230 695 239 676T249 629Q249 611 244 574T231 466L195
134Q186 49 164 -9T111 -103T46 -154T-24 -170Z" />
<glyph unicode="K" horiz-adv-x="631" d="M474 -7Q453 -7 427 18T372 87T314 183T256 291Q252 302 247 314T241 340Q241 356 250 380T285 443T366 537L437 609Q476 649 512 672T583 695Q614 695 628 681T642 638Q642 615 636 594T620 560T597 547Q587 547 574
550T543 554Q531 554 517 548T483 524T433 475L316 347L337 426Q369 342 411 275T489 164T543 105Q566 86 579 79T599 68T605 57Q605 48 592 37T558 15T515 -1T474 -7ZM100 -8Q83 -8 73 5T58 39T53 80Q53 118 58 154T67 234L115 695H193Q222 695 232 677T243 632Q243
608 241 588T236 541T227 466L177 -8H100Z" />
<glyph unicode="L" horiz-adv-x="467" d="M90 -12Q72 -12 63 10T53 59Q53 98 62 186L115 695H201Q236 696 241 672T240 587L194 165Q192 144 192 123T196 80L402 127Q415 130 425 132T440 135Q454 135 454 117Q454 94 445 67T421 20T383 0H348Q273 0 222 -3T140
-9T90 -12Z" />
<glyph unicode="M" horiz-adv-x="805" d="M73 -12Q56 -12 51 3T46 39Q46 74 50 113T58 191L115 695L207 696Q244 697 263 691T287 662L429 124L372 126L593 626Q607 658 646 676T737 695Q759 695 772 686T782 649L714 -8H624Q607 -8 599 7T591 56Q591 95 593 142T601
234L642 550L648 546L509 232Q475 157 453 113T416 47T389 19T361 12Q346 12 337 19T322 47L184 551L196 552L166 293Q157 214 157 167T163 95T174 55T180 29Q180 18 168 11T137 -2T102 -9T73 -12Z" />
<glyph unicode="N" horiz-adv-x="664" d="M74 -12Q58 -12 53 3T48 39Q48 74 52 113T60 191L115 695L199 696Q216 696 228 692T254 664Q302 580 356 498T461 340T544 202L510 172L532 387Q540 464 540 511T535 584T526 626T521 654Q521 664 531 671T558 684T589
691T615 694Q634 694 644 674T654 634Q654 617 651 595T642 524L628 392Q618 298 615 239T611 144T612 87T614 46Q614 35 602 25T570 6T532 -6T500 -11Q488 -11 482 -2T476 23Q477 36 469 56T449 99T428 137Q396 195 349 262T253 402T164 550L191 552L164 293Q157
224 156 180T158 109T165 69T172 47T176 28Q176 17 164 10T134 -3T100 -10T74 -12Z" />
<glyph unicode="O" horiz-adv-x="730" d="M334 -16Q246 -16 180 17T78 118T41 283Q41 374 69 449T149 580T269 666T418 696Q556 696 633 621T711 398Q711 307 683 231T603 100T483 14T334 -16ZM347 64Q389 64 427 86T495 151T542 250T559 378Q559 459 539 511T484
590T403 616Q344 616 297 577T221 466T193 302Q193 222 213 169T268 90T347 64Z" />
<glyph unicode="P" horiz-adv-x="563" d="M80 -8Q61 -8 54 8T47 51Q47 71 50 96L113 680H308Q434 680 495 639T557 503Q557 445 531 397T464 314T375 260T287 241Q275 241 261 248T237 266T227 289Q227 300 234 305T253 312Q298 322 333 345T388 405T409 490Q409
535 389 559T330 593T238 603L172 -8H80Z" />
<glyph unicode="Q" horiz-adv-x="723" d="M604 -175Q569 -175 530 -154T452 -95T378 -7L471 34Q500 8 523 -10T572 -39T632 -55T718 -60Q730 -60 734 -65T738 -79Q738 -92 726 -108T694 -140T651 -165T604 -175ZM334 -16Q246 -16 180 17T78 118T41 283Q41 374
69 449T149 580T269 666T418 696Q556 696 633 621T711 398Q711 307 683 231T603 100T483 14T334 -16ZM347 64Q389 64 427 86T495 151T542 250T559 378Q559 459 539 511T484 590T403 616Q344 616 297 577T221 466T193 302Q193 222 213 169T268 90T347 64Z" />
<glyph unicode="R" horiz-adv-x="582" d="M440 -9Q412 -9 378 30T309 133T244 270Q240 279 236 288T231 308Q231 319 238 323T253 329Q321 342 363 383T406 488Q406 527 390 554T337 595T240 610H236L170 -8H80Q60 -8 53 8T46 51Q46 71 49 96L113 680Q157 685
200 687T287 690Q366 690 426 670T520 608T554 499Q554 449 534 412T481 349T410 307T336 283L343 337Q378 265 412 215T473 137T514 96Q539 77 550 70T562 53Q562 43 549 33T516 13T475 -3T440 -9Z" />
<glyph unicode="S" horiz-adv-x="516" d="M212 -13Q125 -13 71 13T16 86Q16 122 22 137T42 153Q52 153 69 141T110 113T165 85T231 72Q284 72 312 95T341 159Q341 198 323 221T264 270L196 314Q163 336 134 360T87 418T69 500Q69 562 101 606T191 673T324 696Q389
696 423 688T469 665T482 628Q482 600 474 583T454 565Q446 565 435 571T404 586Q387 594 359 602T299 611Q257 611 231 589T204 527Q204 492 223 470T278 429L339 400Q381 380 414 357T468 300T488 208Q488 102 414 45T212 -13Z" />
<glyph unicode="T" horiz-adv-x="526" d="M211 -8Q193 -8 185 14T176 64Q176 91 179 124T190 216L233 593L108 564Q96 562 86 560T69 558Q58 558 52 565T47 587Q48 610 54 631T71 666T93 680H315Q392 680 437 683T506 688T541 691Q551 691 555 687T560 671Q561
651 554 628T536 588T514 571Q507 571 491 574T453 580L368 593L302 -8H211Z" />
<glyph unicode="U" horiz-adv-x="664" d="M321 -16Q222 -16 163 8T80 85T65 226L114 695H205Q224 695 234 686T244 649Q244 625 242 601T235 545T226 466L204 262Q193 160 224 114T345 67Q386 67 420 83T477 135T506 230L527 424Q533 480 532 517T526 578T517
619T513 649Q513 661 529 671T569 688T609 695Q624 695 633 685T646 661T650 633Q650 616 647 586T640 524L609 238Q599 137 564 82T468 5T321 -16Z" />
<glyph unicode="V" horiz-adv-x="669" d="M260 -14Q252 -14 245 -9T234 17Q223 93 205 174T164 337T119 493Q107 536 97 556T76 592Q65 607 54 617T42 636Q42 647 57 657T94 675T138 688T176 693Q195 693 209 676T236 619T265 510L358 93L309 81L503 491Q517 520
523 539T533 574T538 611Q540 630 558 645T599 671T644 689T676 695Q705 695 705 677Q705 667 696 650L391 52Q384 38 366 23T321 -3T260 -14Z" />
<glyph unicode="W" horiz-adv-x="850" d="M495 -14Q487 -14 480 -9T469 17L422 418L409 491Q401 537 394 560T379 598Q371 613 366 622T360 640Q360 650 372 659T403 676T441 688T476 693Q503 693 518 652T543 510L584 90L544 79L700 491Q712 521 714 540T717
575T719 611Q721 630 739 645T780 671T825 689T859 695Q886 695 886 677Q886 672 884 666T877 650L623 52Q617 38 600 23T556 -3T495 -14ZM174 -14Q164 -14 156 -9T145 15L96 445Q90 496 85 524T74 567T62 593Q55 609 49 617T42 635Q42 645 54 655T86 674T127 688T164
693Q180 693 193 677T215 620T230 510L262 93L217 81L435 559L446 392L299 49Q289 25 257 6T174 -14Z" />
<glyph unicode="X" horiz-adv-x="650" d="M69 -13Q30 -13 11 15T-8 84Q-8 105 -3 119T19 133Q34 133 52 128T93 122Q105 122 122 133T163 171T220 245T292 360L313 375Q355 451 393 510T467 611T540 673T618 695Q645 695 658 682T671 645Q671 618 663 595T642
557T617 542Q607 542 595 546T565 550Q540 551 488 496T372 321L346 306Q316 248 286 191T222 88T151 15T69 -13ZM509 -8Q476 -8 447 22T387 114T312 272L296 306Q225 451 176 525T79 613Q64 618 58 622T51 636Q51 653 73 666T124 688T175 696Q200 696 223 682T269
636T319 551T376 419L388 395Q425 322 453 271T504 186T545 132T577 98Q587 90 598 82T617 65T625 49Q625 40 613 31T582 12T544 -2T509 -8Z" />
<glyph unicode="Y" horiz-adv-x="592" d="M253 257L159 472Q139 520 121 550T83 597Q59 617 51 626T43 645Q43 655 61 666T104 686T149 695Q188 695 215 659T270 555L346 355L298 333L401 494Q428 536 434 567T442 618Q444 638 464 652T513 676T568 690T609 695Q628
695 628 678Q628 668 620 653T598 619L342 261L253 257ZM249 -8Q229 -8 221 7T213 54Q213 79 216 104L243 346L374 325L338 -8H249Z" />
<glyph unicode="Z" horiz-adv-x="535" d="M41 -7Q25 -7 16 15T8 57Q9 74 14 81T32 108Q111 224 180 316T308 487T414 643L429 606L154 569Q130 565 113 564T89 562Q76 562 70 568T63 593Q63 607 69 630T86 672T114 691Q137 691 189 686T327 680H510Q529 680 532
660T530 616T514 575Q458 486 394 397T266 218T145 40L83 65L434 130Q463 135 478 138T500 141Q514 141 514 124Q514 106 509 85T495 45T472 13T443 0H352Q269 0 212 -2T114 -5T41 -7Z" />
<glyph unicode="[" horiz-adv-x="346" d="M12 -170L102 680H201L111 -170H12ZM90 -170L91 -106H182Q219 -106 240 -117T254 -162Q251 -170 242 -170H90ZM154 616L162 680H314Q326 680 326 670Q325 638 304 627T245 616H154Z" />
<glyph unicode="\" horiz-adv-x="300" d="M144 628L257 -121Q260 -136 260 -143Q260 -157 252 -163T235 -169Q214 -169 197 -150T174 -93L47 670Q44 684 54 690T74 696Q97 695 118 675T144 628Z" />
<glyph unicode="]" horiz-adv-x="346" d="M338 680L248 -170H149L239 680H338ZM260 680L259 616H168Q131 616 110 627T96 672Q99 680 108 680H260ZM196 -106L187 -170H35Q24 -170 24 -160Q24 -128 46 -117T105 -106H196Z" />
<glyph unicode="^" horiz-adv-x="550" d="M134 196Q118 196 111 208T116 248L244 553Q264 601 285 622T333 644Q345 644 360 636T382 606L469 293Q471 284 471 275T471 258Q471 235 451 220T414 204Q402 204 399 209T392 228L309 573H331L203 248Q192 219 172
208T134 196Z" />
<glyph unicode="_" horiz-adv-x="595" d="M15 -82Q15 -71 22 -60T41 -40T70 -32H504Q516 -32 516 -48Q516 -69 501 -83T466 -98H26Q19 -98 17 -94T15 -82Z" />
<glyph unicode="`" horiz-adv-x="212" d="M-41 552L-170 691Q-175 696 -182 698T-199 701Q-212 701 -225 692T-248 668T-258 636Q-258 627 -253 622T-237 610L-84 525Q-77 522 -72 522T-61 521Q-51 521 -42 526T-32 538Q-32 542 -34 544T-41 552Z" />
<glyph unicode="a" horiz-adv-x="545" d="M133 -16Q77 -16 51 30T24 157Q24 230 46 291T106 396T194 465T299 490Q342 490 377 479T438 455L409 340Q382 358 349 374T287 401T242 412Q217 412 196 383T162 306T149 198Q149 144 156 115T180 85Q193 85 222 113T294
210T386 396L418 304Q364 184 315 114T221 14T133 -16ZM377 -10Q353 -10 347 7T341 47Q341 64 345 90T357 146T372 204L394 279L363 305L387 456Q419 461 445 469T490 483T517 489Q531 489 531 474Q531 468 519 432T492 339T470 214L449 -10H377Z" />
<glyph unicode="b" horiz-adv-x="537" d="M223 -16Q216 -16 192 -11T137 4T80 24L137 121Q160 103 184 90T232 69T274 62Q308 62 333 89T373 164T388 276Q388 330 381 359T357 389Q348 389 329 375T281 325T220 230T149 78L118 164Q173 291 223 361T318 461T404
490Q460 490 486 443T513 317Q513 220 478 145T377 27T223 -16ZM223 -16Q163 -16 120 -5T56 27T37 74L106 697H185Q203 697 216 674T230 623Q230 589 225 562T210 490L140 189L160 34L223 -16Z" />
<glyph unicode="c" horiz-adv-x="415" d="M189 -16Q109 -16 65 33T21 174Q21 264 57 336T156 449T300 491Q347 491 379 479T412 431Q412 415 406 399T391 371T372 359Q367 359 360 362T347 370Q337 377 321 387T287 406T249 414Q220 414 197 386T162 310T149 206Q149
138 169 112T230 85Q264 85 290 97T339 124Q348 130 354 133T366 136Q371 136 374 132T377 121Q377 103 363 80T322 34T262 -2T189 -16Z" />
<glyph unicode="d" horiz-adv-x="566" d="M131 -16Q76 -16 50 29T24 157Q24 230 45 291T105 396T193 465T299 490Q337 490 371 479T431 455L400 345Q373 363 343 378T287 402T245 412Q219 412 197 383T162 306T149 198Q149 144 157 115T183 86Q197 86 228 114T303
210T395 396L424 300Q371 180 320 111T222 13T131 -16ZM395 -11Q383 -11 374 2T359 33T354 66Q354 93 364 129T389 214L407 276L374 311L385 416L399 433L413 697H495Q511 697 521 684T537 654T543 619Q543 610 542 597T538 562T529 503L497 273Q490 228 485 177T476
77T472 -11H395Z" />
<glyph unicode="e" horiz-adv-x="449" d="M186 -16Q109 -16 65 32T20 166Q20 237 40 296T98 399T185 467T292 491Q359 491 397 462T436 378Q436 323 398 282T291 212T126 163L113 226Q166 233 210 250T281 295T309 360Q310 386 300 401T266 416Q231 416 205 387T164
309T149 206Q149 140 168 114T230 87Q274 87 310 102T371 134Q379 139 385 142T397 146Q403 146 406 142T409 131Q409 113 394 88T349 40T278 0T186 -16Z" />
<glyph unicode="f" horiz-adv-x="331" d="M47 -219Q32 -219 26 -210T19 -186Q19 -167 22 -140L96 471Q110 587 172 641T334 696Q381 696 402 682T424 638Q424 621 420 605T409 577T390 566Q382 566 366 579T330 606T285 619Q256 619 244 587T225 499L192 208Q185
149 180 89T170 -24Q167 -49 154 -82T122 -146T82 -198T47 -219ZM44 398Q37 398 34 403T33 415L43 444Q49 462 57 468T96 475H336Q349 475 344 459Q333 428 322 413T282 398H44Z" />
<glyph unicode="g" horiz-adv-x="538" d="M197 -221Q148 -221 108 -207T43 -160T18 -77Q18 -55 31 -55Q37 -55 46 -59T68 -71Q86 -81 116 -97T180 -124T240 -136Q254 -136 266 -130T291 -106T315 -53T338 42L392 313L374 337L375 465Q439 473 470 481T513 489Q527
489 527 474Q527 468 515 432T489 339T472 210L465 30Q462 -40 437 -88T371 -165T286 -208T197 -221ZM134 -11Q78 -11 52 34T25 162Q25 232 46 292T106 396T193 465T298 490Q341 490 376 479T437 455L408 340Q381 358 348 374T286 401T241 412Q215 412 195 383T162
306T149 202Q149 149 158 120T184 91Q196 91 225 118T296 211T387 396L416 300Q363 180 314 112T221 17T134 -11Z" />
<glyph unicode="h" horiz-adv-x="548" d="M368 -10Q358 -10 352 0T342 24T339 45Q339 59 341 81T346 127T352 170L369 273Q373 294 376 312T379 348Q379 361 374 369T359 377Q346 377 318 353T258 284T199 174T165 27L136 172Q177 288 228 358T329 459T419 490Q465
490 486 465T508 399Q508 376 505 353T497 303L449 -10H368ZM67 -14Q54 -14 47 -9T38 16T41 76L84 470Q90 527 99 583T111 697H189Q211 697 222 671T234 616Q234 594 232 576T226 539T214 491L149 198L181 239Q174 175 171 118T165 27Q165 16 146 7T104 -8T67 -14Z"
/>
<glyph unicode="i" horiz-adv-x="247" d="M74 -16Q56 -16 49 6T41 54Q41 85 44 110T51 170L87 491H168Q189 491 196 469T204 419Q204 405 202 390T196 342L177 179Q171 128 166 93T158 33T152 -16H74ZM162 540Q131 540 109 560T87 615Q87 655 113 677T172 699Q204
699 225 681T246 625Q246 589 221 565T162 540Z" />
<glyph unicode="j" horiz-adv-x="246" d="M-46 -221Q-71 -221 -91 -208T-124 -169T-136 -112Q-136 -101 -132 -95T-121 -89Q-115 -89 -109 -93T-89 -106Q-69 -118 -46 -128T-5 -139Q5 -139 13 -130T28 -96T41 -26T55 92L94 491H174Q191 491 201 477T215 445T220
413Q220 391 213 352T198 263T184 152L169 -1Q162 -77 131 -126T53 -198T-46 -221ZM168 540Q137 540 115 560T93 615Q93 655 119 677T178 699Q210 699 231 681T252 625Q252 589 227 565T168 540Z" />
<glyph unicode="k" horiz-adv-x="524" d="M392 -11Q370 -11 347 10T301 65T259 142T225 227Q221 239 216 256T211 289Q211 300 214 309T225 330Q245 362 275 391T340 443T412 478T482 491Q510 491 519 477T528 440Q528 418 523 400T508 371T490 360Q477 360 460
368T419 377Q376 377 342 353T289 296L300 344Q343 234 382 174T451 86Q468 69 481 63T494 46Q494 33 476 20T434 -2T392 -11ZM88 -14Q64 -14 53 7T43 59Q44 93 49 140T59 233L90 478Q95 521 91 553T81 609T74 653Q74 666 92 675T134 691T178 697Q202 697 216 673T231
618Q231 608 229 576T221 503L189 273Q179 201 175 129T163 -14H88Z" />
<glyph unicode="l" horiz-adv-x="259" d="M88 -14Q64 -14 53 7T43 59Q44 93 49 140T59 233L90 478Q95 521 91 553T81 609T74 653Q74 666 92 675T134 691T178 697Q202 697 216 673T231 618Q231 608 229 576T221 503L189 273Q179 201 175 129T163 -14H88Z" />
<glyph unicode="m" horiz-adv-x="847" d="M665 -10Q653 -10 647 2T639 28T637 51Q637 65 639 85T644 129T650 170L667 274Q670 294 673 313T677 349Q677 363 672 370T657 377Q644 377 615 353T554 283T496 174T462 31L433 175Q474 291 525 360T627 459T716 490Q749
490 768 478T797 445T806 398Q806 375 803 352T795 303L747 -10H665ZM63 -14Q50 -14 44 -10T36 14T40 75L87 491H166Q189 491 199 469T209 419Q209 406 201 379T181 321T161 267L135 185L179 191L162 29Q161 18 148 10T118 -4T86 -11T63 -14ZM361 -13Q342 -13 339
-4T335 20Q335 37 338 70T352 170L370 273Q374 293 377 313T380 351Q380 364 375 370T360 377Q347 377 318 353T256 282T197 172T162 29L133 178Q163 265 201 324T278 420T354 473T417 490Q451 490 469 478T494 447T501 407Q501 383 492 354T469 284T438 185L478
198L462 31Q461 20 449 12T420 -2T386 -10T361 -13Z" />
<glyph unicode="n" horiz-adv-x="549" d="M368 -10Q356 -10 350 2T341 28T339 51Q339 65 341 85T346 129T352 170L369 274Q372 294 375 313T379 349Q379 363 373 370T358 377Q345 377 317 353T256 282T197 172T163 29L133 178Q163 265 200 324T277 420T354 473T419
490Q451 490 470 478T498 446T507 402Q507 376 504 353T496 303L448 -10H368ZM63 -14Q50 -14 44 -10T36 14T40 75L87 491H166Q185 491 197 469T209 419Q209 406 201 379T181 321T161 267L135 185L179 191L162 29Q161 17 148 9T118 -4T85 -11T63 -14Z" />
<glyph unicode="o" horiz-adv-x="498" d="M209 -15Q119 -15 70 35T21 181Q21 247 42 303T101 401T187 467T291 491Q380 491 428 441T476 291Q476 227 456 172T399 74T314 9T209 -15ZM230 60Q265 60 291 88T331 166T346 280Q346 344 327 380T268 416Q234 416 208
388T166 310T151 196Q151 130 171 95T230 60Z" />
<glyph unicode="p" horiz-adv-x="544" d="M242 -16Q203 -16 166 -5T100 21L137 129Q161 111 190 96T246 71T292 62Q321 62 345 89T383 164T397 276Q397 330 390 359T366 388Q355 388 323 361T246 267T150 78L124 166Q180 292 230 362T325 461T411 490Q473 490
496 443T520 317Q520 220 484 145T384 27T242 -16ZM64 -219Q48 -219 38 -206T25 -174T21 -141Q21 -121 23 -92T29 -23L87 491H161Q176 491 185 479T200 451T206 419Q206 400 194 363T162 267L137 191H172L157 56L149 43L143 -219H64Z" />
<glyph unicode="q" horiz-adv-x="551" d="M133 -16Q77 -16 51 27T24 157Q24 230 45 291T105 396T193 465T299 490Q337 490 375 479T438 455L407 338Q380 361 351 377T294 403T248 412Q221 412 199 383T163 306T149 198Q149 144 157 115T183 86Q192 86 212 101T261
151T324 246T394 394L424 302Q372 182 321 113T223 14T133 -16ZM388 -219Q375 -219 363 -206T342 -171T334 -122Q334 -92 337 -66T345 -11L405 313L378 337L384 463Q448 471 480 480T523 489Q538 489 538 474Q538 468 527 433T503 340T484 208L472 56Q467 -5 466
-76T461 -219H388Z" />
<glyph unicode="r" horiz-adv-x="396" d="M161 27L132 175Q169 271 207 341T286 451T367 490Q391 490 403 476T416 435Q416 414 411 394T397 361T374 348Q363 348 348 356T309 364Q294 364 273 336T228 259T186 150T161 27ZM63 -14Q50 -14 44 -10T36 14T40 75L87
491H166Q185 491 197 469T209 419Q209 406 201 379T181 321T163 267L137 185L179 191L161 27Q160 15 147 7T117 -5T84 -12T63 -14Z" />
<glyph unicode="s" horiz-adv-x="411" d="M170 -16Q91 -16 47 8T2 74Q2 97 8 113T27 130Q32 130 38 127T60 114Q79 102 103 90T152 70T200 62Q228 62 242 76T257 114Q257 131 247 143T212 170L145 212Q105 237 80 267T54 342Q54 408 104 449T249 490Q313 490 344
478T376 433Q376 405 368 386T345 367Q340 367 334 369T321 374Q312 379 295 389T258 407T215 415Q194 415 181 403T168 370Q168 352 179 340T218 315L283 286Q329 266 354 238T380 160Q380 102 351 63T273 4T170 -16Z" />
<glyph unicode="t" horiz-adv-x="340" d="M136 -16Q88 -16 66 12T51 100L89 398H59Q42 398 42 416Q42 426 56 446T91 490T136 536T180 572T212 586Q225 586 230 577T233 552L225 475H332Q347 475 349 470T348 454Q335 418 325 408T286 398H211L187 191Q185 172
184 155T182 124Q182 104 191 95T223 85Q247 85 264 95T290 105Q300 105 300 94Q300 83 289 65T258 28T206 -3T136 -16Z" />
<glyph unicode="u" horiz-adv-x="539" d="M129 -13Q90 -13 66 9T42 76Q42 91 42 105T45 139T52 193L90 491H167Q184 491 192 472T201 424Q201 403 198 369T189 294L177 210Q173 182 172 162T170 128Q170 111 173 102T189 92Q203 92 225 113T271 169T316 244T350
323T364 390Q364 413 359 428T354 454Q354 463 367 470T398 481T433 488T461 491Q479 491 489 471T496 414L449 -10H375Q363 -10 355 2T342 29T338 55Q338 78 345 105T365 174T396 282V265Q357 163 311 102T219 14T129 -13Z" />
<glyph unicode="v" horiz-adv-x="500" d="M188 -16Q145 -16 118 15T84 107L62 331Q60 354 56 377T44 415Q37 429 32 434T27 448Q27 456 39 463T70 477T107 487T138 491Q158 491 169 472T186 397L213 143Q216 114 222 100T241 86Q250 86 268 100T305 148T337 236T350
370Q350 394 344 407T337 430Q337 440 349 451T379 471T415 485T444 491Q457 491 470 484T483 446Q483 399 469 338T429 216T367 101T285 16T188 -16Z" />
<glyph unicode="w" horiz-adv-x="729" d="M459 -16Q413 -16 388 17T363 105Q362 121 362 138T364 197L334 198L330 310Q329 328 326 348T317 387T307 416Q300 431 295 436T290 450Q290 458 302 465T332 478T370 487T403 491Q422 491 434 474T452 397L475 133Q477
111 483 99T499 86Q524 86 544 121T575 213T586 334Q586 375 576 395T565 428Q565 438 578 449T609 469T646 485T675 491Q689 491 700 483T711 445Q711 343 688 259T626 113T544 18T459 -16ZM191 -16Q140 -16 115 20T81 136L63 331Q61 354 56 377T44 415Q37 429
32 434T27 448Q27 456 39 463T69 477T106 487T139 491Q154 491 167 472T185 397L208 171Q212 131 218 109T241 86Q254 86 275 108T313 180T330 310L378 231Q368 136 338 82T268 6T191 -16Z" />
<glyph unicode="x" horiz-adv-x="491" d="M53 -15Q31 -15 18 -4T-1 25T-6 63Q-6 81 1 87T17 93Q46 93 73 108T129 155T188 241L245 310Q285 385 319 424T384 476T439 490Q459 490 472 478T485 442Q485 425 481 408T470 380T453 368Q442 368 430 372T403 377Q380
377 351 345T293 261L220 170Q193 107 166 66T111 5T53 -15ZM349 -12Q328 -12 302 18T238 126L201 206L194 213L158 276Q135 316 118 340T88 381T64 408Q52 421 44 428T35 445Q35 455 53 465T96 483T142 491Q156 491 168 483T195 452T235 381L270 311L285 286L319
226Q347 178 367 148T401 101T426 73Q439 59 449 52T459 37Q459 27 447 18T417 3T381 -8T349 -12Z" />
<glyph unicode="y" horiz-adv-x="538" d="M173 -221Q124 -221 90 -206T39 -161T21 -84Q21 -70 26 -65T36 -59Q42 -59 48 -63T68 -76Q86 -88 110 -102T162 -126T216 -136Q238 -136 259 -121T299 -67T337 45L394 273L400 274Q363 176 316 113T219 19T124 -12Q82
-12 62 11T42 75Q42 95 44 119T53 194L90 491H167Q184 491 195 472T206 424Q206 406 204 389T199 351T191 297L177 210Q173 182 171 163T168 129Q168 111 172 102T190 92Q205 92 226 113T271 168T313 241T346 317T359 379Q359 396 357 415T354 448Q354 461 373
470T419 485T463 491Q480 491 489 476T497 424Q496 407 492 376T484 316L456 30Q450 -36 423 -84T355 -162T267 -206T173 -221Z" />
<glyph unicode="z" horiz-adv-x="453" d="M28 0Q21 0 17 7T12 31Q12 50 15 65T24 89Q56 137 94 184T168 271Q205 314 239 352T296 427L335 415L118 381Q101 379 85 379T61 378Q53 378 49 384T45 400Q45 414 51 435T68 474T94 491Q100 491 131 487T206 479T295
475H420Q429 475 436 470T443 457Q443 446 440 431T423 394Q399 355 367 317T295 235Q257 192 216 147T143 51L106 66L356 113Q376 118 388 119T404 121Q413 121 416 113T415 83Q407 35 397 18T372 0H28Z" />
<glyph unicode="{" horiz-adv-x="326" d="M9 253Q9 287 17 303T42 320Q55 320 72 315T114 299Q118 312 120 326T124 364T125 426V566Q125 614 150 642T216 683T309 696H342Q354 696 358 692T362 682Q362 671 352 659T324 644Q283 637 261 630T232 609T224 563L225
379Q225 336 207 310T161 270T99 252L128 290Q164 278 180 262T202 228T208 197Q208 179 205 165T200 143L165 -35Q164 -42 163 -49T161 -66Q161 -81 174 -94T228 -114Q250 -118 262 -128T274 -152Q274 -169 253 -169Q149 -169 104 -146T59 -71Q59 -63 60 -56T63
-37L99 154Q104 177 105 192T106 215Q106 221 106 226T105 235Q83 231 61 228T28 224Q16 224 13 233T9 253Z" />
<glyph unicode="|" horiz-adv-x="262" d="M199 582L140 -187Q139 -201 130 -211T107 -221Q92 -221 77 -206T63 -166L122 670Q124 686 132 691T151 696Q163 696 175 687T195 664T203 639Q203 622 202 608T199 582Z" />
<glyph unicode="}" horiz-adv-x="326" d="M323 274Q323 240 315 224T290 207Q277 207 259 212T217 228Q213 216 211 201T207 163T206 101V-39Q206 -86 182 -114T116 -156T23 -169H-10Q-22 -169 -26 -165T-30 -155Q-30 -144 -20 -132T8 -117Q50 -109 71 -103T100
-81T108 -36L107 148Q107 192 125 218T171 257T233 275L204 237Q168 250 151 266T129 299T124 330Q124 348 127 362T132 384L167 562Q169 569 170 576T171 593Q171 608 158 621T104 641Q82 645 70 655T57 679Q57 696 79 696Q182 696 227 673T273 598Q273 591 272
583T269 564L232 373Q228 350 227 335T225 312Q225 306 225 302T226 292Q248 297 271 300T304 303Q316 303 319 294T323 274Z" />
<glyph unicode="~" horiz-adv-x="550" d="M71 242Q71 283 86 314T128 365T186 384Q221 384 248 368T297 331T338 293T377 277Q398 277 410 293T431 351Q433 362 439 367T454 372Q465 372 479 366T494 336Q494 297 479 265T437 213T379 194Q344 194 317 210T269
247T228 285T188 301Q167 301 156 285T135 227Q133 216 128 211T112 206Q100 206 86 213T71 242Z" />
<glyph unicode="&#xa0;" horiz-adv-x="230" />
<glyph unicode="&#xa1;" horiz-adv-x="219" d="M122 -154Q121 -177 112 -192T86 -214T48 -221Q15 -221 0 -208T-15 -171Q-15 -166 -15 -160T-13 -148L31 46Q48 120 57 166T75 237T95 271T127 281Q134 281 140 277T145 262L122 -154ZM133 493Q164 493 186 473T208
418Q208 378 183 356T122 334Q92 334 71 352T49 408Q49 444 74 468T133 493Z" />
<glyph unicode="&#xa2;" horiz-adv-x="580" d="M264 -16Q174 -16 128 33T82 157Q82 232 109 293T183 398T288 467T409 491Q437 491 461 487T502 470T518 434Q518 408 506 386T481 364Q470 364 458 372Q447 379 432 388T398 406T359 414Q311 414 277 385T224 308T206
206Q206 145 230 116T305 86Q352 86 387 99T447 125Q463 134 472 134Q478 134 482 130T486 118Q486 93 458 62T380 7T264 -16ZM261 -218Q246 -218 235 -203T223 -167Q223 -158 224 -148T228 -125L355 666Q357 684 364 689T382 693Q395 693 406 682T423 657T428
632Q427 614 425 601T420 575L295 -179Q292 -198 284 -208T261 -218Z" />
<glyph unicode="&#xa3;" horiz-adv-x="580" d="M40 29Q52 41 64 57T86 104T102 186L121 381Q133 498 172 567T268 666T391 696Q476 696 518 677T560 613Q560 586 551 568T530 550Q519 550 507 557T481 571Q465 579 443 588T396 605T351 613Q311 613 292 588T265
507T248 362L235 220Q230 163 218 127T186 68T137 31L142 61L498 123Q509 125 516 126T528 127Q534 127 538 121T543 105Q543 79 534 55T508 16T470 0Q350 0 267 -2T132 -6T57 -9Q39 -9 33 3T40 29ZM502 381Q514 381 517 377T520 364Q520 351 513 337T490 313T446
302L63 293Q51 293 48 299T45 315Q45 325 52 337T74 360T113 370L502 381Z" />
<glyph unicode="&#xa4;" horiz-adv-x="580" d="M286 155Q236 155 200 177T144 236T124 319Q124 372 147 416T214 488T315 515Q369 515 405 493T458 435T476 353Q476 299 452 254T385 182T286 155ZM76 110Q62 123 66 142T85 177L175 264L230 214L130 116Q115 102
102 101T76 110ZM501 97Q488 88 475 90T448 107L363 203L414 262L500 166Q514 150 515 129T501 97ZM292 230Q336 230 363 261T391 346Q391 389 371 415T305 442Q262 442 236 409T209 328Q209 285 230 258T292 230ZM185 411L96 508Q89 516 86 530T85 560T97 584Q105
591 117 591T143 576L240 466L185 411ZM429 408L380 464L491 571Q507 586 517 586T536 578Q545 570 545 555T542 525T531 503L429 408Z" />
<glyph unicode="&#xa5;" horiz-adv-x="580" d="M267 261L178 461Q157 508 135 536T93 579Q69 599 61 607T52 628Q52 637 64 648T95 670T134 688T170 695Q191 695 209 677T247 620T291 515L353 355L293 333L392 494Q417 536 429 567T443 618Q445 638 464 652T511
676T563 690T603 695Q622 695 622 678Q622 668 614 653T592 619L339 261H267ZM244 -8Q223 -8 215 7T207 54Q207 79 210 104L237 346L368 325L332 -8H244ZM75 146Q63 146 60 152T57 168Q57 178 64 189T86 210T125 220L506 229Q518 229 521 225T524 212Q524 192 509
173T452 153L75 146ZM96 264Q84 264 81 270T78 286Q78 296 85 307T107 328T146 338L527 347Q539 347 542 343T545 330Q545 310 530 291T473 271L96 264Z" />
<glyph unicode="&#xa6;" horiz-adv-x="261" d="M198 582L177 313Q176 299 168 289T144 279Q129 279 115 295T101 337L122 670Q123 685 132 690T150 696Q163 696 174 687T194 664T202 639Q202 622 201 608T198 582ZM160 82L139 -187Q138 -201 130 -211T107 -221Q91
-221 77 -205T63 -163L85 170Q86 185 94 190T113 196Q125 196 136 187T156 164T164 139Q164 122 163 108T160 82Z" />
<glyph unicode="&#xa7;" horiz-adv-x="464" d="M-2 -78Q-2 -55 5 -36T26 -16Q30 -16 36 -18T59 -32Q93 -54 129 -71T202 -88Q237 -88 256 -68T276 -17Q276 4 265 22T224 57L142 104Q94 132 69 164T44 251Q44 292 66 323T124 372T198 394L187 382Q138 411 111 443T83
533Q83 604 137 649T293 695Q367 695 404 681T441 638Q441 623 436 608T423 582T404 571Q399 571 392 573T379 579Q369 583 350 592T306 608T257 616Q228 616 212 599T196 554Q196 530 210 513T257 478L332 440Q383 414 414 380T445 294Q445 249 423 217T364 167T286
146L293 161Q343 137 374 104T406 15Q406 -45 373 -86T287 -148T177 -170Q125 -170 85 -159T21 -127T-2 -78ZM155 274Q155 245 174 228T241 190Q275 190 296 211T317 262Q317 287 304 304T260 337Q207 336 181 319T155 274Z" />
<glyph unicode="&#xa8;" horiz-adv-x="217" d="M124 551Q99 551 81 568T63 613Q63 646 84 664T134 683Q159 683 177 668T195 622Q195 591 174 571T124 551ZM-49 551Q-74 551 -92 568T-111 613Q-111 646 -90 664T-40 683Q-15 683 3 668T21 622Q21 591 0 571T-49 551Z" />
<glyph unicode="&#xa9;" horiz-adv-x="794" d="M369 -18Q272 -18 198 22T83 134T42 299Q42 381 72 454T155 582T283 668T444 700Q547 700 620 658T733 542T773 376Q773 291 744 219T660 94T532 12T369 -18ZM390 117Q337 117 295 138T229 202T205 306Q205 382 239
441T331 533T462 566Q515 566 541 552T567 499Q567 484 561 472T548 459Q542 459 535 463T519 472Q505 480 486 490T439 500Q382 500 348 454T313 317Q313 246 339 215T406 184Q429 184 448 193T482 216T509 238T529 247Q537 247 541 242T546 227Q546 203 526 178T470
135T390 117ZM377 52Q469 52 538 93T646 204T685 362Q685 437 657 497T574 593T436 629Q367 629 311 603T213 532T151 428T129 304Q129 231 158 174T244 85T377 52Z" />
<glyph unicode="&#xaa;" horiz-adv-x="474" d="M145 282Q99 282 74 318T48 420Q48 500 78 561T161 657T275 693Q310 693 341 684T393 665L370 571Q348 586 321 599T270 620T233 628Q213 628 196 605T168 540T158 440Q158 412 163 390T181 367Q193 367 217 389T276
466T350 616L376 542Q333 444 293 387T217 306T145 282ZM347 287Q327 287 319 301T310 333Q310 353 318 386T339 461L357 521L332 543L352 666Q390 672 422 682T464 692Q475 692 475 681Q475 675 465 645T443 570T425 469L408 287H347Z" />
<glyph unicode="&#xab;" horiz-adv-x="561" d="M318 432V432Q308 432 297 427T276 416L44 267Q34 260 29 254T24 240Q24 232 28 227T37 217L202 79Q219 65 230 59T251 53Q261 53 274 61T297 82T307 104Q307 110 305 115T294 126L146 241L211 284Q266 321 294 345T332
384T342 411Q342 421 336 426T318 432ZM528 432V432Q518 432 507 427T486 416L254 267Q244 260 239 254T234 240Q234 232 238 227T247 217L412 79Q429 65 440 59T461 53Q471 53 484 61T507 82T517 104Q517 110 515 115T504 126L356 241L421 284Q476 321 504 345T542
384T552 411Q552 421 546 426T528 432Z" />
<glyph unicode="&#xac;" horiz-adv-x="550" d="M420 94Q437 94 457 110T482 164L504 378Q505 386 502 390T486 395L116 385Q89 385 73 375T49 351T42 327Q42 316 46 310T63 304L413 312L399 163Q398 156 396 139T394 114Q394 102 401 98T420 94Z" />
<glyph unicode="&#xad;" horiz-adv-x="407" d="M251 289Q290 291 297 291T305 291Q317 291 321 287T325 273Q325 259 319 245T297 221T253 210L72 203Q71 203 70 203T68 203Q56 203 53 209T49 227Q49 244 65 263T119 283L251 289Z" />
<glyph unicode="&#xae;" horiz-adv-x="572" d="M280 186Q210 186 158 216T76 297T47 413Q47 470 68 521T127 612T218 675T333 698Q407 698 459 667T539 584T567 467Q567 389 531 325T430 224T280 186ZM287 246Q350 246 396 273T468 349T494 456Q494 507 476 548T420
613T327 638Q265 638 219 608T146 527T120 417Q120 368 140 329T197 268T287 246ZM195 328Q195 340 196 346L212 488Q214 502 214 513T212 529Q208 534 206 538T203 549Q203 557 228 570T290 583H308Q371 583 402 561T433 503Q433 471 403 447T326 416L329 438H349Q367
401 385 379T409 354Q420 347 426 345T433 337Q433 332 423 325T400 311T376 305Q356 305 338 329T295 404Q292 412 291 420T289 431Q289 437 293 440T304 445Q328 451 341 464T355 499Q355 522 341 534T289 548L273 394Q271 369 272 362T277 349Q282 342 282 338Q282
333 273 325T249 310T219 303Q205 303 200 309T195 328Z" />
<glyph unicode="&#xaf;" horiz-adv-x="203" d="M-275 624Q-273 639 -260 639H-14Q3 639 1 624L-4 588Q-6 573 -19 573H-265Q-282 573 -280 588L-275 624Z" />
<glyph unicode="&#xb0;" horiz-adv-x="421" d="M197 345Q148 345 112 366T56 423T36 505Q36 558 59 602T126 671T226 697Q279 697 314 676T367 619T385 539Q385 485 361 441T295 371T197 345ZM202 414Q245 414 272 445T300 532Q300 576 279 603T216 630Q174 630
148 597T121 514Q121 469 143 442T202 414Z" />
<glyph unicode="&#xb1;" horiz-adv-x="559" d="M479 139Q491 139 494 134T497 121Q497 107 491 93T468 69T424 58L51 52Q38 52 35 58T32 75Q32 85 39 97T61 120T102 130L479 139ZM499 375Q511 375 514 370T518 357Q518 343 511 328T488 303T444 292L74 284Q61
284 58 290T55 307Q55 317 62 330T84 354T125 364L499 375ZM342 428L320 221Q318 196 307 181T283 158T259 151Q248 151 241 154T234 170Q234 177 236 195T239 220L258 432Q261 461 272 477T297 499T326 506Q334 506 340 503T347 488Q347 478 346 465T342 428Z"
/>
<glyph unicode="&#xb2;" horiz-adv-x="383" d="M70 341L143 405Q195 450 231 491T268 573Q268 601 254 614T218 628Q191 628 167 613T131 591Q117 583 111 579T96 575Q87 575 81 590T75 625Q75 644 96 660T152 686T229 696Q269 696 303 687T359 654T381 587Q381
550 363 518T315 458T249 404L123 311V328L340 384Q351 387 360 389T375 391Q378 391 381 388T385 378Q385 367 382 350T373 317T356 289T332 277H272Q248 277 217 276T155 274T102 272T74 271Q64 271 59 280T54 299Q54 311 57 322T70 341Z" />
<glyph unicode="&#xb3;" horiz-adv-x="404" d="M270 494L276 512Q301 507 326 494T367 460T384 412Q384 369 355 338T278 291T175 274Q126 274 97 286T56 317T44 353Q44 370 47 378T58 387Q65 387 85 376T132 353T191 341Q232 341 252 360T272 412Q272 444 256
459T225 481L271 486Q257 478 237 471T196 459T164 455Q150 455 140 473T129 509Q129 530 144 530Q159 530 186 527T238 521T273 517L233 507Q249 518 258 539T268 579Q268 605 255 617T210 629Q191 629 171 622T132 606Q120 601 113 598T99 594Q93 594 88 605T82
633Q82 655 101 668T153 689T223 696Q291 696 330 673T370 607Q370 576 355 555T317 519T270 494Z" />
<glyph unicode="&#xb4;" horiz-adv-x="200" d="M-259 552Q-268 546 -268 539Q-268 532 -259 527T-239 521Q-233 521 -228 522T-216 526L-35 609Q-23 614 -19 619T-14 636Q-14 652 -22 667T-44 692T-70 702Q-84 702 -97 691L-259 552Z" />
<glyph unicode="&#xb5;" horiz-adv-x="523" d="M20 -148Q20 -135 20 -122T21 -91T27 -43L90 491H165Q183 491 190 472T197 424Q197 403 194 368T184 294L180 270Q175 238 172 211T169 163Q169 127 176 108T197 88Q209 88 228 110T269 167T310 244T341 323T354
390Q354 413 349 428T343 453Q343 464 360 472T402 486T444 491Q461 491 473 471T481 414L434 -10H357Q345 -10 338 2T329 31T326 55Q326 82 337 119T369 226Q330 136 302 83T250 7T199 -17Q165 -17 144 19T121 122L122 111L148 -219H73Q47 -219 34 -197T20 -148Z"
/>
<glyph unicode="&#xb6;" horiz-adv-x="643" d="M40 283Q40 373 73 448T167 579T308 665T484 696Q497 696 519 694T568 689T620 684T662 682Q678 682 678 665Q678 650 656 635T603 610T543 603L591 652L542 208Q535 149 530 89T520 -24Q517 -50 502 -83T466 -148T425
-199T390 -219Q363 -219 363 -188Q363 -167 366 -142L462 659L483 617Q393 617 327 577T224 461T187 283Q187 180 225 118T327 37Q348 30 357 27T366 13Q366 2 350 -7T312 -16Q232 -16 171 17T75 117T40 283Z" />
<glyph unicode="&#xb7;" horiz-adv-x="212" d="M104 183Q73 183 51 203T29 258Q29 298 55 320T114 342Q146 342 167 324T188 268Q188 232 163 208T104 183Z" />
<glyph unicode="&#xb8;" horiz-adv-x="207" d="M-285 19Q-283 26 -279 30T-269 35L-247 40Q-238 42 -234 38T-232 25L-259 -83L-272 -41Q-219 -41 -183 -60T-146 -119Q-146 -148 -162 -168T-206 -199T-265 -216T-328 -222Q-341 -222 -346 -217T-351 -205Q-351
-191 -344 -181T-323 -170Q-291 -166 -266 -157T-240 -125Q-240 -114 -247 -111T-281 -103Q-292 -101 -300 -94T-308 -73Q-308 -68 -307 -63T-304 -51L-285 19Z" />
<glyph unicode="&#xb9;" horiz-adv-x="350" d="M26 283Q26 297 57 311T143 341L172 588L88 576Q77 575 73 579T69 589Q69 600 83 616T141 651L223 687Q231 691 241 693T259 696Q278 696 280 681T278 629L246 358L317 374Q326 376 331 376T339 377Q343 377 346
372T349 359Q349 350 344 331T330 296T308 279H173Q148 279 118 278T65 274T38 272Q26 272 26 283Z" />
<glyph unicode="&#xba;" horiz-adv-x="433" d="M213 283Q139 283 95 323T51 446Q51 516 81 572T162 662T274 696Q347 696 391 656T435 533Q435 463 405 407T325 317T213 283ZM229 345Q275 345 299 395T323 524Q323 578 306 605T257 633Q226 633 205 609T173 545T162
455Q162 401 180 373T229 345Z" />
<glyph unicode="&#xbb;" horiz-adv-x="561" d="M244 54V54Q254 54 265 59T286 70L518 219Q529 226 533 232T538 246Q538 254 534 259T525 269L360 407Q343 421 333 427T311 433Q301 433 288 425T265 404T255 382Q255 376 257 371T268 360L416 245L351 202Q296
165 268 142T230 102T220 75Q220 65 226 60T244 54ZM34 54V54Q44 54 55 59T76 70L308 219Q319 226 323 232T328 246Q328 254 324 259T315 269L150 407Q133 421 123 427T101 433Q91 433 78 425T55 404T45 382Q45 376 47 371T58 360L206 245L141 202Q86 165 58 142T20
102T10 75Q10 65 16 60T34 54Z" />
<glyph unicode="&#xbc;" horiz-adv-x="851" d="M26 283Q26 297 57 311T143 341L172 588L88 576Q77 575 73 579T69 589Q69 600 83 616T141 651L223 687Q231 691 241 693T259 696Q278 696 280 681T278 629L246 358L317 374Q326 376 331 376T339 377Q343 377 346
372T349 359Q349 350 344 331T330 296T308 279H173Q148 279 118 278T65 274T38 272Q26 272 26 283ZM684 583L269 10Q259 -3 254 -10T235 -18Q224 -18 215 -2T205 25Q205 38 213 52T234 85L648 667Q657 680 662 684T675 688Q692 688 701 670T710 642Q710 623 701
609T684 583ZM481 125Q482 135 486 145T498 163L680 371Q703 397 716 401T749 406H789Q807 406 813 401T819 378Q819 356 817 333T809 267L779 -13H703Q687 -13 687 24Q687 49 689 76T694 126L720 373L744 349L539 105L527 139H755Q794 139 825 145T863 151Q875
151 875 139Q875 128 863 113T832 86T796 74L516 73Q491 73 484 77T478 98L481 125Z" />
<glyph unicode="&#xbd;" horiz-adv-x="919" d="M26 283Q26 297 57 311T143 341L172 588L88 576Q77 575 73 579T69 589Q69 600 83 616T141 651L223 687Q231 691 241 693T259 696Q278 696 280 681T278 629L246 358L317 374Q326 376 331 376T339 377Q343 377 346
372T349 359Q349 350 344 331T330 296T308 279H173Q148 279 118 278T65 274T38 272Q26 272 26 283ZM684 583L269 10Q259 -3 254 -10T235 -18Q224 -18 215 -2T205 25Q205 38 213 52T234 85L648 667Q657 680 662 684T675 688Q692 688 701 670T710 642Q710 623 701
609T684 583ZM596 64L669 128Q721 173 757 214T794 296Q794 324 780 337T744 351Q717 351 693 336T657 314Q643 306 637 302T622 298Q613 298 607 313T601 348Q601 367 622 383T678 409T755 419Q795 419 829 410T885 377T907 310Q907 273 889 241T841 181T775 127L649
34V51L866 107Q877 110 886 112T901 114Q904 114 907 111T911 101Q911 90 908 73T899 40T882 12T858 0H798Q774 0 743 -1T681 -3T628 -5T600 -6Q590 -6 585 3T580 22Q580 34 583 45T596 64Z" />
<glyph unicode="&#xbe;" horiz-adv-x="849" d="M270 494L276 512Q301 507 326 494T367 460T384 412Q384 369 355 338T278 291T175 274Q126 274 97 286T56 317T44 353Q44 370 47 378T58 387Q65 387 85 376T132 353T191 341Q232 341 252 360T272 412Q272 444 256
459T225 481L271 486Q257 478 237 471T196 459T164 455Q150 455 140 473T129 509Q129 530 144 530Q159 530 186 527T238 521T273 517L233 507Q249 518 258 539T268 579Q268 605 255 617T210 629Q191 629 171 622T132 606Q120 601 113 598T99 594Q93 594 88 605T82
633Q82 655 101 668T153 689T223 696Q291 696 330 673T370 607Q370 576 355 555T317 519T270 494ZM688 586L273 13Q263 0 258 -7T239 -15Q228 -15 219 1T209 28Q209 41 217 55T238 88L652 670Q661 683 666 687T679 691Q696 691 705 673T714 645Q714 626 705 612T688
586ZM478 128Q479 138 483 148T495 166L677 374Q700 400 713 404T746 409H786Q804 409 810 404T816 381Q816 359 814 336T806 270L776 -10H700Q684 -10 684 27Q684 52 686 79T691 129L717 376L741 352L536 108L524 142H752Q791 142 822 148T860 154Q872 154 872
142Q872 131 860 116T829 89T793 77L513 76Q488 76 481 80T475 101L478 128Z" />
<glyph unicode="&#xbf;" horiz-adv-x="402" d="M-22 -81Q-22 -33 2 4T64 71T144 120T223 154L138 87Q164 166 179 208T210 265T250 281Q265 281 271 275T277 254L271 145Q270 122 262 112T227 85Q171 48 145 15T118 -65Q118 -102 134 -123T187 -144Q223 -144 248
-130T291 -102T319 -88Q331 -88 338 -107T346 -146Q346 -174 304 -197T179 -221Q83 -221 31 -181T-22 -81ZM241 493Q272 493 293 473T315 418Q315 378 290 356T230 334Q199 334 178 352T156 408Q156 444 181 468T241 493Z" />
<glyph unicode="&#xc0;" horiz-adv-x="658" d="M12 -14Q-15 -14 -15 3Q-15 11 -7 29L289 627Q297 644 320 659T375 684T441 695Q451 695 459 690T470 665Q487 550 511 437T566 212Q580 165 590 136T610 92Q621 77 629 68T638 49Q638 39 625 28T593 8T553 -6T519
-12Q496 -12 473 27T428 170L341 587L370 599L176 189Q163 161 158 142T151 108T147 72Q145 53 128 38T87 11T42 -7T12 -14ZM140 190V270H512V190H140ZM495 757L366 896Q361 901 354 903T337 906Q324 906 311 897T288 873T278 841Q278 832 283 827T299 815L452
730Q459 727 464 727T475 726Q485 726 494 731T504 743Q504 747 502 749T495 757Z" />
<glyph unicode="&#xc1;" horiz-adv-x="658" d="M12 -14Q-15 -14 -15 3Q-15 11 -7 29L289 627Q297 644 320 659T375 684T441 695Q451 695 459 690T470 665Q487 550 511 437T566 212Q580 165 590 136T610 92Q621 77 629 68T638 49Q638 39 625 28T593 8T553 -6T519
-12Q496 -12 473 27T428 170L341 587L370 599L176 189Q163 161 158 142T151 108T147 72Q145 53 128 38T87 11T42 -7T12 -14ZM140 190V270H512V190H140ZM262 757Q253 751 253 744Q253 737 262 732T282 726Q288 726 293 727T305 731L486 814Q498 819 502 824T507
841Q507 857 499 872T477 897T451 907Q437 907 424 896L262 757Z" />
<glyph unicode="&#xc2;" horiz-adv-x="658" d="M12 -14Q-15 -14 -15 3Q-15 11 -7 29L289 627Q297 644 320 659T375 684T441 695Q451 695 459 690T470 665Q487 550 511 437T566 212Q580 165 590 136T610 92Q621 77 629 68T638 49Q638 39 625 28T593 8T553 -6T519
-12Q496 -12 473 27T428 170L341 587L370 599L176 189Q163 161 158 142T151 108T147 72Q145 53 128 38T87 11T42 -7T12 -14ZM140 190V270H512V190H140ZM230 761V761Q223 754 225 748T237 741L279 736Q287 735 292 738T302 745L384 828L451 746Q456 741 462 736T484
731L527 733Q537 734 540 740T539 754L464 868Q451 888 438 894T401 901Q379 901 366 895T343 879L230 761Z" />
<glyph unicode="&#xc3;" horiz-adv-x="658" d="M12 -14Q-15 -14 -15 3Q-15 11 -7 29L289 627Q297 644 320 659T375 684T441 695Q451 695 459 690T470 665Q487 550 511 437T566 212Q580 165 590 136T610 92Q621 77 629 68T638 49Q638 39 625 28T593 8T553 -6T519
-12Q496 -12 473 27T428 170L341 587L370 599L176 189Q163 161 158 142T151 108T147 72Q145 53 128 38T87 11T42 -7T12 -14ZM140 190V270H512V190H140ZM245 786Q245 810 254 832T280 870T321 885Q336 885 357 877T400 857T439 837T464 828Q474 828 478 837T486
862Q489 873 493 877T506 881Q523 881 533 876T544 853Q544 824 534 799T507 759T467 744Q439 744 414 758T366 786T325 801Q318 801 313 795T302 771Q299 760 295 756T280 751Q268 751 257 758T245 786Z" />
<glyph unicode="&#xc4;" horiz-adv-x="658" d="M12 -14Q-15 -14 -15 3Q-15 11 -7 29L289 627Q297 644 320 659T375 684T441 695Q451 695 459 690T470 665Q487 550 511 437T566 212Q580 165 590 136T610 92Q621 77 629 68T638 49Q638 39 625 28T593 8T553 -6T519
-12Q496 -12 473 27T428 170L341 587L370 599L176 189Q163 161 158 142T151 108T147 72Q145 53 128 38T87 11T42 -7T12 -14ZM140 190V270H512V190H140ZM473 756Q448 756 430 773T412 818Q412 851 433 869T483 888Q508 888 526 873T544 827Q544 796 523 776T473
756ZM300 756Q275 756 257 773T238 818Q238 851 259 869T309 888Q334 888 352 873T370 827Q370 796 349 776T300 756Z" />
<glyph unicode="&#xc5;" horiz-adv-x="658" d="M12 -14Q-15 -14 -15 3Q-15 11 -7 29L289 627Q297 644 320 659T375 684T441 695Q451 695 459 690T470 665Q487 550 511 437T566 212Q580 165 590 136T610 92Q621 77 629 68T638 49Q638 39 625 28T593 8T553 -6T519
-12Q496 -12 473 27T428 170L341 587L370 599L176 189Q163 161 158 142T151 108T147 72Q145 53 128 38T87 11T42 -7T12 -14ZM140 190V270H512V190H140ZM388 728Q343 728 316 754T289 818Q289 857 318 886T394 915Q438 915 464 889T491 826Q491 786 462 757T388
728ZM389 780Q406 780 417 792T429 824Q429 844 419 853T393 863Q375 863 363 853T351 820Q351 802 362 791T389 780Z" />
<glyph unicode="&#xc6;" horiz-adv-x="891" d="M-1 -14Q-28 -14 -24 3Q-22 13 -7 32L435 613Q462 649 494 664T581 680L525 586L227 189Q197 149 183 112T157 45Q150 25 129 14T81 -4T32 -12T-1 -14ZM215 190V270H566V190H215ZM479 -12Q461 -12 452 10T442 59Q442
98 451 186L501 680H661Q731 680 774 682T840 688T873 691Q884 691 890 688T897 669Q897 651 889 628T869 588T842 571Q832 571 808 575T754 584L630 602L585 166Q583 144 583 123T586 80L791 122Q809 126 823 129T843 132Q857 132 857 114Q857 91 848 65T824 19T786
0H751Q639 0 572 -6T479 -12ZM542 312L555 395H603Q646 395 683 398T745 404T777 407Q787 407 792 402T797 387Q797 372 778 355T729 327T666 314L542 312Z" />
<glyph unicode="&#xc7;" horiz-adv-x="607" d="M327 -16Q242 -16 178 17T78 118T41 283Q41 373 70 448T153 579T279 665T441 696Q525 696 567 678T610 611Q610 586 601 568T579 549Q570 549 556 557T529 572Q505 585 476 599T404 614Q343 614 295 575T218 466T189
301Q189 222 210 170T269 92T352 66Q390 66 420 81T473 116T514 151T548 167Q561 167 568 160T576 137Q576 96 542 62T452 6T327 -16ZM262 19Q264 26 268 30T278 35L300 40Q309 42 313 38T315 25L288 -83L275 -41Q328 -41 364 -60T401 -119Q401 -148 385 -168T341
-199T282 -216T219 -222Q206 -222 201 -217T196 -205Q196 -191 203 -181T224 -170Q256 -166 281 -157T307 -125Q307 -114 300 -111T266 -103Q255 -101 247 -94T239 -73Q239 -68 240 -63T243 -51L262 19Z" />
<glyph unicode="&#xc8;" horiz-adv-x="503" d="M91 -12Q73 -12 64 10T54 59Q54 98 63 186L113 680H273Q343 680 386 682T452 688T485 691Q496 691 502 688T509 669Q509 651 501 628T481 588T454 571Q444 571 420 575T366 584L242 602L197 166Q195 144 195 123T198
80L403 122Q421 126 435 129T455 132Q469 132 469 114Q469 91 460 65T436 19T398 0H363Q251 0 184 -6T91 -12ZM154 312L167 395H215Q258 395 295 398T357 404T389 407Q399 407 404 402T409 387Q409 372 390 355T341 327T278 314L154 312ZM415 757L286 896Q281 901
274 903T257 906Q244 906 231 897T208 873T198 841Q198 832 203 827T219 815L372 730Q379 727 384 727T395 726Q405 726 414 731T424 743Q424 747 422 749T415 757Z" />
<glyph unicode="&#xc9;" horiz-adv-x="503" d="M91 -12Q73 -12 64 10T54 59Q54 98 63 186L113 680H273Q343 680 386 682T452 688T485 691Q496 691 502 688T509 669Q509 651 501 628T481 588T454 571Q444 571 420 575T366 584L242 602L197 166Q195 144 195 123T198
80L403 122Q421 126 435 129T455 132Q469 132 469 114Q469 91 460 65T436 19T398 0H363Q251 0 184 -6T91 -12ZM154 312L167 395H215Q258 395 295 398T357 404T389 407Q399 407 404 402T409 387Q409 372 390 355T341 327T278 314L154 312ZM182 757Q173 751 173 744Q173
737 182 732T202 726Q208 726 213 727T225 731L406 814Q418 819 422 824T427 841Q427 857 419 872T397 897T371 907Q357 907 344 896L182 757Z" />
<glyph unicode="&#xca;" horiz-adv-x="503" d="M91 -12Q73 -12 64 10T54 59Q54 98 63 186L113 680H273Q343 680 386 682T452 688T485 691Q496 691 502 688T509 669Q509 651 501 628T481 588T454 571Q444 571 420 575T366 584L242 602L197 166Q195 144 195 123T198
80L403 122Q421 126 435 129T455 132Q469 132 469 114Q469 91 460 65T436 19T398 0H363Q251 0 184 -6T91 -12ZM154 312L167 395H215Q258 395 295 398T357 404T389 407Q399 407 404 402T409 387Q409 372 390 355T341 327T278 314L154 312ZM150 761V761Q143 754 145
748T157 741L199 736Q207 735 212 738T222 745L304 828L371 746Q376 741 382 736T404 731L447 733Q457 734 460 740T459 754L384 868Q371 888 358 894T321 901Q299 901 286 895T263 879L150 761Z" />
<glyph unicode="&#xcb;" horiz-adv-x="503" d="M91 -12Q73 -12 64 10T54 59Q54 98 63 186L113 680H273Q343 680 386 682T452 688T485 691Q496 691 502 688T509 669Q509 651 501 628T481 588T454 571Q444 571 420 575T366 584L242 602L197 166Q195 144 195 123T198
80L403 122Q421 126 435 129T455 132Q469 132 469 114Q469 91 460 65T436 19T398 0H363Q251 0 184 -6T91 -12ZM154 312L167 395H215Q258 395 295 398T357 404T389 407Q399 407 404 402T409 387Q409 372 390 355T341 327T278 314L154 312ZM393 756Q368 756 350 773T332
818Q332 851 353 869T403 888Q428 888 446 873T464 827Q464 796 443 776T393 756ZM220 756Q195 756 177 773T158 818Q158 851 179 869T229 888Q254 888 272 873T290 827Q290 796 269 776T220 756Z" />
<glyph unicode="&#xcc;" horiz-adv-x="268" d="M100 -8Q83 -8 73 5T58 39T53 80Q53 118 58 154T67 234L115 695H193Q222 695 232 677T243 632Q243 608 241 588T236 541T227 466L177 -8H100ZM298 757L169 896Q164 901 157 903T140 906Q127 906 114 897T91 873T81
841Q81 832 86 827T102 815L255 730Q262 727 267 727T278 726Q288 726 297 731T307 743Q307 747 305 749T298 757Z" />
<glyph unicode="&#xcd;" horiz-adv-x="268" d="M100 -8Q83 -8 73 5T58 39T53 80Q53 118 58 154T67 234L115 695H193Q222 695 232 677T243 632Q243 608 241 588T236 541T227 466L177 -8H100ZM65 757Q56 751 56 744Q56 737 65 732T85 726Q91 726 96 727T108 731L289
814Q301 819 305 824T310 841Q310 857 302 872T280 897T254 907Q240 907 227 896L65 757Z" />
<glyph unicode="&#xce;" horiz-adv-x="268" d="M100 -8Q83 -8 73 5T58 39T53 80Q53 118 58 154T67 234L115 695H193Q222 695 232 677T243 632Q243 608 241 588T236 541T227 466L177 -8H100ZM33 761V761Q26 754 28 748T40 741L82 736Q90 735 95 738T105 745L187
828L254 746Q259 741 265 736T287 731L330 733Q340 734 343 740T342 754L267 868Q254 888 241 894T204 901Q182 901 169 895T146 879L33 761Z" />
<glyph unicode="&#xcf;" horiz-adv-x="268" d="M100 -8Q83 -8 73 5T58 39T53 80Q53 118 58 154T67 234L115 695H193Q222 695 232 677T243 632Q243 608 241 588T236 541T227 466L177 -8H100ZM276 756Q251 756 233 773T215 818Q215 851 236 869T286 888Q311 888
329 873T347 827Q347 796 326 776T276 756ZM103 756Q78 756 60 773T41 818Q41 851 62 869T112 888Q137 888 155 873T173 827Q173 796 152 776T103 756Z" />
<glyph unicode="&#xd0;" horiz-adv-x="689" d="M31 318Q21 318 17 322T12 333Q12 357 31 378T75 400L375 399Q387 399 390 397T394 385Q394 379 388 363T371 332T343 318H31ZM99 -8Q81 -8 72 12T62 59Q62 98 71 186L121 680Q175 685 232 687T335 690Q494 690 581
614T669 400Q669 284 620 194T476 52T247 0Q207 0 169 -4T99 -8ZM204 79Q306 79 377 118T484 227T521 388Q521 496 463 554T275 613H250L205 163Q204 146 204 124T204 79Z" />
<glyph unicode="&#xd1;" horiz-adv-x="664" d="M74 -12Q58 -12 53 3T48 39Q48 74 52 113T60 191L115 695L199 696Q216 696 228 692T254 664Q302 580 356 498T461 340T544 202L510 172L532 387Q540 464 540 511T535 584T526 626T521 654Q521 664 531 671T558 684T589
691T615 694Q634 694 644 674T654 634Q654 617 651 595T642 524L628 392Q618 298 615 239T611 144T612 87T614 46Q614 35 602 25T570 6T532 -6T500 -11Q488 -11 482 -2T476 23Q477 36 469 56T449 99T428 137Q396 195 349 262T253 402T164 550L191 552L164 293Q157
224 156 180T158 109T165 69T172 47T176 28Q176 17 164 10T134 -3T100 -10T74 -12ZM245 786Q245 810 254 832T280 870T321 885Q336 885 357 877T400 857T439 837T464 828Q474 828 478 837T486 862Q489 873 493 877T506 881Q523 881 533 876T544 853Q544 824 534
799T507 759T467 744Q439 744 414 758T366 786T325 801Q318 801 313 795T302 771Q299 760 295 756T280 751Q268 751 257 758T245 786Z" />
<glyph unicode="&#xd2;" horiz-adv-x="730" d="M334 -16Q246 -16 180 17T78 118T41 283Q41 374 69 449T149 580T269 666T418 696Q556 696 633 621T711 398Q711 307 683 231T603 100T483 14T334 -16ZM347 64Q389 64 427 86T495 151T542 250T559 378Q559 459 539
511T484 590T403 616Q344 616 297 577T221 466T193 302Q193 222 213 169T268 90T347 64ZM530 757L401 896Q396 901 389 903T372 906Q359 906 346 897T323 873T313 841Q313 832 318 827T334 815L487 730Q494 727 499 727T510 726Q520 726 529 731T539 743Q539 747
537 749T530 757Z" />
<glyph unicode="&#xd3;" horiz-adv-x="730" d="M334 -16Q246 -16 180 17T78 118T41 283Q41 374 69 449T149 580T269 666T418 696Q556 696 633 621T711 398Q711 307 683 231T603 100T483 14T334 -16ZM347 64Q389 64 427 86T495 151T542 250T559 378Q559 459 539
511T484 590T403 616Q344 616 297 577T221 466T193 302Q193 222 213 169T268 90T347 64ZM297 757Q288 751 288 744Q288 737 297 732T317 726Q323 726 328 727T340 731L521 814Q533 819 537 824T542 841Q542 857 534 872T512 897T486 907Q472 907 459 896L297 757Z"
/>
<glyph unicode="&#xd4;" horiz-adv-x="730" d="M334 -16Q246 -16 180 17T78 118T41 283Q41 374 69 449T149 580T269 666T418 696Q556 696 633 621T711 398Q711 307 683 231T603 100T483 14T334 -16ZM347 64Q389 64 427 86T495 151T542 250T559 378Q559 459 539
511T484 590T403 616Q344 616 297 577T221 466T193 302Q193 222 213 169T268 90T347 64ZM265 761V761Q258 754 260 748T272 741L314 736Q322 735 327 738T337 745L419 828L486 746Q491 741 497 736T519 731L562 733Q572 734 575 740T574 754L499 868Q486 888 473
894T436 901Q414 901 401 895T378 879L265 761Z" />
<glyph unicode="&#xd5;" horiz-adv-x="730" d="M334 -16Q246 -16 180 17T78 118T41 283Q41 374 69 449T149 580T269 666T418 696Q556 696 633 621T711 398Q711 307 683 231T603 100T483 14T334 -16ZM347 64Q389 64 427 86T495 151T542 250T559 378Q559 459 539
511T484 590T403 616Q344 616 297 577T221 466T193 302Q193 222 213 169T268 90T347 64ZM280 786Q280 810 289 832T315 870T356 885Q371 885 392 877T435 857T474 837T499 828Q509 828 513 837T521 862Q524 873 528 877T541 881Q558 881 568 876T579 853Q579 824
569 799T542 759T502 744Q474 744 449 758T401 786T360 801Q353 801 348 795T337 771Q334 760 330 756T315 751Q303 751 292 758T280 786Z" />
<glyph unicode="&#xd6;" horiz-adv-x="730" d="M334 -16Q246 -16 180 17T78 118T41 283Q41 374 69 449T149 580T269 666T418 696Q556 696 633 621T711 398Q711 307 683 231T603 100T483 14T334 -16ZM347 64Q389 64 427 86T495 151T542 250T559 378Q559 459 539
511T484 590T403 616Q344 616 297 577T221 466T193 302Q193 222 213 169T268 90T347 64ZM508 756Q483 756 465 773T446 818Q446 851 467 869T517 888Q543 888 560 873T578 827Q578 796 558 776T508 756ZM334 756Q309 756 291 773T273 818Q273 851 294 869T344 888Q369
888 387 873T405 827Q405 796 384 776T334 756Z" />
<glyph unicode="&#xd7;" horiz-adv-x="550" d="M149 480L445 169Q463 151 464 133T460 100T447 77Q440 70 433 68T417 77L123 384Q94 414 96 438T113 477Q119 483 129 486T149 480ZM410 484Q419 493 428 493T445 485Q460 471 462 449T435 397L129 83Q118 72 109
75T91 85Q81 97 79 116T102 163L410 484Z" />
<glyph unicode="&#xd8;" horiz-adv-x="723" d="M212 -74Q204 -76 188 -67T168 -46Q161 -24 179 18L503 763Q505 768 508 772T516 778Q526 779 541 768T561 746Q565 735 562 720T548 682L223 -62Q222 -66 219 -69T212 -74ZM334 -16Q246 -16 180 17T78 118T41 283Q41
374 69 449T149 580T269 666T418 696Q556 696 633 621T711 398Q711 307 683 231T603 100T483 14T334 -16ZM347 64Q389 64 427 86T495 151T542 250T559 378Q559 459 539 511T484 590T403 616Q344 616 297 577T221 466T193 302Q193 222 213 169T268 90T347 64Z" />
<glyph unicode="&#xd9;" horiz-adv-x="664" d="M321 -16Q222 -16 163 8T80 85T65 226L114 695H205Q224 695 234 686T244 649Q244 625 242 601T235 545T226 466L204 262Q193 160 224 114T345 67Q386 67 420 83T477 135T506 230L527 424Q533 480 532 517T526 578T517
619T513 649Q513 661 529 671T569 688T609 695Q624 695 633 685T646 661T650 633Q650 616 647 586T640 524L609 238Q599 137 564 82T468 5T321 -16ZM501 757L372 896Q367 901 360 903T343 906Q330 906 317 897T294 873T284 841Q284 832 289 827T305 815L458 730Q465
727 470 727T481 726Q491 726 500 731T510 743Q510 747 508 749T501 757Z" />
<glyph unicode="&#xda;" horiz-adv-x="664" d="M321 -16Q222 -16 163 8T80 85T65 226L114 695H205Q224 695 234 686T244 649Q244 625 242 601T235 545T226 466L204 262Q193 160 224 114T345 67Q386 67 420 83T477 135T506 230L527 424Q533 480 532 517T526 578T517
619T513 649Q513 661 529 671T569 688T609 695Q624 695 633 685T646 661T650 633Q650 616 647 586T640 524L609 238Q599 137 564 82T468 5T321 -16ZM268 757Q259 751 259 744Q259 737 268 732T288 726Q294 726 299 727T311 731L492 814Q504 819 508 824T513 841Q513
857 505 872T483 897T457 907Q443 907 430 896L268 757Z" />
<glyph unicode="&#xdb;" horiz-adv-x="664" d="M321 -16Q222 -16 163 8T80 85T65 226L114 695H205Q224 695 234 686T244 649Q244 625 242 601T235 545T226 466L204 262Q193 160 224 114T345 67Q386 67 420 83T477 135T506 230L527 424Q533 480 532 517T526 578T517
619T513 649Q513 661 529 671T569 688T609 695Q624 695 633 685T646 661T650 633Q650 616 647 586T640 524L609 238Q599 137 564 82T468 5T321 -16ZM236 761V761Q229 754 231 748T243 741L285 736Q293 735 298 738T308 745L390 828L457 746Q462 741 468 736T490
731L533 733Q543 734 546 740T545 754L470 868Q457 888 444 894T407 901Q385 901 372 895T349 879L236 761Z" />
<glyph unicode="&#xdc;" horiz-adv-x="664" d="M321 -16Q222 -16 163 8T80 85T65 226L114 695H205Q224 695 234 686T244 649Q244 625 242 601T235 545T226 466L204 262Q193 160 224 114T345 67Q386 67 420 83T477 135T506 230L527 424Q533 480 532 517T526 578T517
619T513 649Q513 661 529 671T569 688T609 695Q624 695 633 685T646 661T650 633Q650 616 647 586T640 524L609 238Q599 137 564 82T468 5T321 -16ZM479 756Q454 756 436 773T417 818Q417 851 438 869T488 888Q514 888 531 873T549 827Q549 796 529 776T479 756ZM305
756Q280 756 262 773T244 818Q244 851 265 869T315 888Q340 888 358 873T376 827Q376 796 355 776T305 756Z" />
<glyph unicode="&#xdd;" horiz-adv-x="592" d="M253 257L159 472Q139 520 121 550T83 597Q59 617 51 626T43 645Q43 655 61 666T104 686T149 695Q188 695 215 659T270 555L346 355L298 333L401 494Q428 536 434 567T442 618Q444 638 464 652T513 676T568 690T609
695Q628 695 628 678Q628 668 620 653T598 619L342 261L253 257ZM249 -8Q229 -8 221 7T213 54Q213 79 216 104L243 346L374 325L338 -8H249ZM226 757Q217 751 217 744Q217 737 226 732T246 726Q252 726 257 727T269 731L450 814Q462 819 466 824T471 841Q471 857
463 872T441 897T415 907Q401 907 388 896L226 757Z" />
<glyph unicode="&#xde;" horiz-adv-x="567" d="M280 132Q267 132 252 140T228 159T218 182Q218 193 225 197T240 203Q285 213 322 235T382 293T404 380Q404 440 361 464T227 493L220 572H272Q419 572 484 531T549 394Q549 336 522 288T454 205T366 151T280 132ZM100
-8Q83 -8 73 5T58 39T53 80Q53 118 58 154T67 234L115 695H193Q222 695 232 677T243 632Q243 608 241 588T236 541T227 466L177 -8H100Z" />
<glyph unicode="&#xdf;" horiz-adv-x="625" d="M51 -220Q37 -220 30 -210T23 -185Q23 -164 26 -139L99 471Q109 548 146 598T238 672T357 696Q447 696 491 663T536 573Q536 543 515 512T453 452L400 416Q393 412 384 400T374 369Q374 350 387 338T428 314L496
284Q540 265 567 237T595 159Q595 100 566 61T489 3T385 -16Q309 -16 267 8T224 76Q224 95 230 112T248 130Q252 130 257 128T276 117Q305 98 343 82T414 66Q441 66 455 80T470 117Q470 133 460 145T424 173L362 213Q322 239 297 268T271 344Q271 372 283 399T329
455L349 472Q382 500 394 514T407 553Q407 574 394 588T360 611T318 619Q273 619 253 586T227 499L194 208Q187 149 182 89T172 -24Q169 -50 156 -83T124 -148T85 -199T51 -220ZM44 399Q37 399 34 404T33 416L42 441Q49 461 57 468T96 475H143L149 399H44Z" />
<glyph unicode="&#xe0;" horiz-adv-x="545" d="M133 -16Q77 -16 51 30T24 157Q24 230 46 291T106 396T194 465T299 490Q342 490 377 479T438 455L409 340Q382 358 349 374T287 401T242 412Q217 412 196 383T162 306T149 198Q149 144 156 115T180 85Q193 85 222
113T294 210T386 396L418 304Q364 184 315 114T221 14T133 -16ZM377 -10Q353 -10 347 7T341 47Q341 64 345 90T357 146T372 204L394 279L363 305L387 456Q419 461 445 469T490 483T517 489Q531 489 531 474Q531 468 519 432T492 339T470 214L449 -10H377ZM408 552L279
691Q274 696 267 698T250 701Q237 701 224 692T201 668T191 636Q191 627 196 622T212 610L365 525Q372 522 377 522T388 521Q398 521 407 526T417 538Q417 542 415 544T408 552Z" />
<glyph unicode="&#xe1;" horiz-adv-x="545" d="M133 -16Q77 -16 51 30T24 157Q24 230 46 291T106 396T194 465T299 490Q342 490 377 479T438 455L409 340Q382 358 349 374T287 401T242 412Q217 412 196 383T162 306T149 198Q149 144 156 115T180 85Q193 85 222
113T294 210T386 396L418 304Q364 184 315 114T221 14T133 -16ZM377 -10Q353 -10 347 7T341 47Q341 64 345 90T357 146T372 204L394 279L363 305L387 456Q419 461 445 469T490 483T517 489Q531 489 531 474Q531 468 519 432T492 339T470 214L449 -10H377ZM175 552Q166
546 166 539Q166 532 175 527T195 521Q201 521 206 522T218 526L399 609Q411 614 415 619T420 636Q420 652 412 667T390 692T364 702Q350 702 337 691L175 552Z" />
<glyph unicode="&#xe2;" horiz-adv-x="545" d="M133 -16Q77 -16 51 30T24 157Q24 230 46 291T106 396T194 465T299 490Q342 490 377 479T438 455L409 340Q382 358 349 374T287 401T242 412Q217 412 196 383T162 306T149 198Q149 144 156 115T180 85Q193 85 222
113T294 210T386 396L418 304Q364 184 315 114T221 14T133 -16ZM377 -10Q353 -10 347 7T341 47Q341 64 345 90T357 146T372 204L394 279L363 305L387 456Q419 461 445 469T490 483T517 489Q531 489 531 474Q531 468 519 432T492 339T470 214L449 -10H377ZM143 556V556Q136
549 138 543T150 536L192 531Q200 530 205 533T215 540L297 623L364 541Q369 536 375 531T397 526L440 528Q450 529 453 535T452 549L377 663Q364 683 351 689T314 696Q292 696 279 690T256 674L143 556Z" />
<glyph unicode="&#xe3;" horiz-adv-x="545" d="M133 -16Q77 -16 51 30T24 157Q24 230 46 291T106 396T194 465T299 490Q342 490 377 479T438 455L409 340Q382 358 349 374T287 401T242 412Q217 412 196 383T162 306T149 198Q149 144 156 115T180 85Q193 85 222
113T294 210T386 396L418 304Q364 184 315 114T221 14T133 -16ZM377 -10Q353 -10 347 7T341 47Q341 64 345 90T357 146T372 204L394 279L363 305L387 456Q419 461 445 469T490 483T517 489Q531 489 531 474Q531 468 519 432T492 339T470 214L449 -10H377ZM158 581Q158
605 167 627T193 665T234 680Q249 680 270 672T313 652T352 632T377 623Q387 623 391 632T399 657Q402 668 406 672T419 676Q436 676 446 671T457 648Q457 619 447 594T420 554T380 539Q352 539 327 553T279 581T238 596Q231 596 226 590T215 566Q212 555 208 551T193
546Q181 546 170 553T158 581Z" />
<glyph unicode="&#xe4;" horiz-adv-x="545" d="M133 -16Q77 -16 51 30T24 157Q24 230 46 291T106 396T194 465T299 490Q342 490 377 479T438 455L409 340Q382 358 349 374T287 401T242 412Q217 412 196 383T162 306T149 198Q149 144 156 115T180 85Q193 85 222
113T294 210T386 396L418 304Q364 184 315 114T221 14T133 -16ZM377 -10Q353 -10 347 7T341 47Q341 64 345 90T357 146T372 204L394 279L363 305L387 456Q419 461 445 469T490 483T517 489Q531 489 531 474Q531 468 519 432T492 339T470 214L449 -10H377ZM386 551Q361
551 343 568T324 613Q324 646 345 664T395 683Q421 683 438 668T456 622Q456 591 436 571T386 551ZM212 551Q187 551 169 568T151 613Q151 646 172 664T222 683Q247 683 265 668T283 622Q283 591 262 571T212 551Z" />
<glyph unicode="&#xe5;" horiz-adv-x="545" d="M133 -16Q77 -16 51 30T24 157Q24 230 46 291T106 396T194 465T299 490Q342 490 377 479T438 455L409 340Q382 358 349 374T287 401T242 412Q217 412 196 383T162 306T149 198Q149 144 156 115T180 85Q193 85 222
113T294 210T386 396L418 304Q364 184 315 114T221 14T133 -16ZM377 -10Q353 -10 347 7T341 47Q341 64 345 90T357 146T372 204L394 279L363 305L387 456Q419 461 445 469T490 483T517 489Q531 489 531 474Q531 468 519 432T492 339T470 214L449 -10H377ZM301 523Q256
523 229 549T202 613Q202 652 231 681T307 710Q351 710 377 684T404 621Q404 581 375 552T301 523ZM302 575Q319 575 330 587T342 619Q342 639 332 648T306 658Q288 658 276 648T264 615Q264 597 275 586T302 575Z" />
<glyph unicode="&#xe6;" horiz-adv-x="719" d="M138 -16Q72 -16 42 16T11 93Q11 148 38 182T113 235T226 261T363 272L335 204Q253 199 210 190T151 166T135 127Q135 107 147 97T177 86Q207 86 231 108T273 164T300 233T310 296Q310 335 307 361T289 401T242 415Q204
415 179 402T141 384Q136 382 130 380T118 377Q105 377 96 395T87 432Q87 454 108 467T165 485T245 491Q294 491 333 474T396 426T416 349L391 387Q417 435 463 463T572 492Q639 492 672 461T705 376Q705 301 627 253T400 198L387 266Q446 266 491 278T563 313T589
365Q589 387 577 400T540 413Q503 413 477 385T438 309T424 206Q424 170 431 144T456 103T505 89Q545 89 581 103T642 134Q659 145 666 145Q673 145 676 140T679 129Q679 111 663 87T616 39T546 0T457 -16Q383 -16 347 25T308 133L331 152Q328 112 308 81T259 29T197
-4T138 -16Z" />
<glyph unicode="&#xe7;" horiz-adv-x="415" d="M189 -16Q109 -16 65 33T21 174Q21 264 57 336T156 449T300 491Q347 491 379 479T412 431Q412 415 406 399T391 371T372 359Q367 359 360 362T347 370Q337 377 321 387T287 406T249 414Q220 414 197 386T162 310T149
206Q149 138 169 112T230 85Q264 85 290 97T339 124Q348 130 354 133T366 136Q371 136 374 132T377 121Q377 103 363 80T322 34T262 -2T189 -16ZM153 19Q155 26 159 30T169 35L191 40Q200 42 204 38T206 25L179 -83L166 -41Q219 -41 255 -60T292 -119Q292 -148
276 -168T232 -199T173 -216T110 -222Q97 -222 92 -217T87 -205Q87 -191 94 -181T115 -170Q147 -166 172 -157T198 -125Q198 -114 191 -111T157 -103Q146 -101 138 -94T130 -73Q130 -68 131 -63T134 -51L153 19Z" />
<glyph unicode="&#xe8;" horiz-adv-x="449" d="M186 -16Q109 -16 65 32T20 166Q20 237 40 296T98 399T185 467T292 491Q359 491 397 462T436 378Q436 323 398 282T291 212T126 163L113 226Q166 233 210 250T281 295T309 360Q310 386 300 401T266 416Q231 416 205
387T164 309T149 206Q149 140 168 114T230 87Q274 87 310 102T371 134Q379 139 385 142T397 146Q403 146 406 142T409 131Q409 113 394 88T349 40T278 0T186 -16ZM372 552L243 691Q238 696 231 698T214 701Q201 701 188 692T165 668T155 636Q155 627 160 622T176
610L329 525Q336 522 341 522T352 521Q362 521 371 526T381 538Q381 542 379 544T372 552Z" />
<glyph unicode="&#xe9;" horiz-adv-x="449" d="M186 -16Q109 -16 65 32T20 166Q20 237 40 296T98 399T185 467T292 491Q359 491 397 462T436 378Q436 323 398 282T291 212T126 163L113 226Q166 233 210 250T281 295T309 360Q310 386 300 401T266 416Q231 416 205
387T164 309T149 206Q149 140 168 114T230 87Q274 87 310 102T371 134Q379 139 385 142T397 146Q403 146 406 142T409 131Q409 113 394 88T349 40T278 0T186 -16ZM139 552Q130 546 130 539Q130 532 139 527T159 521Q165 521 170 522T182 526L363 609Q375 614 379
619T384 636Q384 652 376 667T354 692T328 702Q314 702 301 691L139 552Z" />
<glyph unicode="&#xea;" horiz-adv-x="449" d="M186 -16Q109 -16 65 32T20 166Q20 237 40 296T98 399T185 467T292 491Q359 491 397 462T436 378Q436 323 398 282T291 212T126 163L113 226Q166 233 210 250T281 295T309 360Q310 386 300 401T266 416Q231 416 205
387T164 309T149 206Q149 140 168 114T230 87Q274 87 310 102T371 134Q379 139 385 142T397 146Q403 146 406 142T409 131Q409 113 394 88T349 40T278 0T186 -16ZM107 556V556Q100 549 102 543T114 536L156 531Q164 530 169 533T179 540L261 623L328 541Q333 536
339 531T361 526L404 528Q414 529 417 535T416 549L341 663Q328 683 315 689T278 696Q256 696 243 690T220 674L107 556Z" />
<glyph unicode="&#xeb;" horiz-adv-x="449" d="M186 -16Q109 -16 65 32T20 166Q20 237 40 296T98 399T185 467T292 491Q359 491 397 462T436 378Q436 323 398 282T291 212T126 163L113 226Q166 233 210 250T281 295T309 360Q310 386 300 401T266 416Q231 416 205
387T164 309T149 206Q149 140 168 114T230 87Q274 87 310 102T371 134Q379 139 385 142T397 146Q403 146 406 142T409 131Q409 113 394 88T349 40T278 0T186 -16ZM340 551Q315 551 297 568T278 613Q278 646 299 664T349 683Q374 683 392 668T410 622Q410 591 389
571T340 551ZM166 551Q141 551 123 568T104 613Q104 646 125 664T175 683Q201 683 218 668T236 622Q236 591 216 571T166 551Z" />
<glyph unicode="&#xec;" horiz-adv-x="247" d="M74 -16Q56 -16 49 6T41 54Q41 85 44 110T51 170L87 491H168Q189 491 196 469T204 419Q204 405 202 390T196 342L177 179Q171 128 166 93T158 33T152 -16H74ZM265 552L136 691Q131 696 124 698T107 701Q94 701 81
692T58 668T48 636Q48 627 53 622T69 610L222 525Q229 522 234 522T245 521Q255 521 264 526T274 538Q274 542 272 544T265 552Z" />
<glyph unicode="&#xed;" horiz-adv-x="247" d="M74 -16Q56 -16 49 6T41 54Q41 85 44 110T51 170L87 491H168Q189 491 196 469T204 419Q204 405 202 390T196 342L177 179Q171 128 166 93T158 33T152 -16H74ZM32 552Q23 546 23 539Q23 532 32 527T52 521Q58 521
63 522T75 526L256 609Q268 614 272 619T277 636Q277 652 269 667T247 692T221 702Q207 702 194 691L32 552Z" />
<glyph unicode="&#xee;" horiz-adv-x="247" d="M74 -16Q56 -16 49 6T41 54Q41 85 44 110T51 170L87 491H168Q189 491 196 469T204 419Q204 405 202 390T196 342L177 179Q171 128 166 93T158 33T152 -16H74ZM0 556V556Q-7 549 -5 543T7 536L49 531Q57 530 62 533T72
540L154 623L221 541Q226 536 232 531T254 526L297 528Q307 529 310 535T309 549L234 663Q221 683 208 689T171 696Q149 696 136 690T113 674L0 556Z" />
<glyph unicode="&#xef;" horiz-adv-x="247" d="M74 -16Q56 -16 49 6T41 54Q41 85 44 110T51 170L87 491H168Q189 491 196 469T204 419Q204 405 202 390T196 342L177 179Q171 128 166 93T158 33T152 -16H74ZM238 551Q213 551 195 568T176 613Q176 646 197 664T247
683Q272 683 290 668T308 622Q308 591 287 571T238 551ZM64 551Q39 551 21 568T2 613Q2 646 23 664T73 683Q99 683 116 668T134 622Q134 591 114 571T64 551Z" />
<glyph unicode="&#xf0;" horiz-adv-x="489" d="M208 -15Q150 -15 107 7T39 74T15 190Q15 253 35 308T90 404T166 468T251 491Q279 491 313 485T380 470T439 452L373 359Q341 376 303 393T224 410Q197 410 179 383T153 309T145 201Q145 65 228 65Q262 65 284 88T320
153T338 247T344 360Q344 428 333 476T294 558T217 611T90 644Q79 646 74 649T68 660Q68 668 83 675T124 687T176 692Q257 692 314 665T406 592T457 491T474 382Q474 251 439 163T343 30T208 -15ZM107 491Q95 487 91 492T84 508Q80 522 90 539T137 567L464 666Q476
670 480 666T486 654Q491 635 481 617T431 587L107 491Z" />
<glyph unicode="&#xf1;" horiz-adv-x="549" d="M368 -10Q356 -10 350 2T341 28T339 51Q339 65 341 85T346 129T352 170L369 274Q372 294 375 313T379 349Q379 363 373 370T358 377Q345 377 317 353T256 282T197 172T163 29L133 178Q163 265 200 324T277 420T354
473T419 490Q451 490 470 478T498 446T507 402Q507 376 504 353T496 303L448 -10H368ZM63 -14Q50 -14 44 -10T36 14T40 75L87 491H166Q185 491 197 469T209 419Q209 406 201 379T181 321T161 267L135 185L179 191L162 29Q161 17 148 9T118 -4T85 -11T63 -14ZM172
581Q172 605 181 627T207 665T248 680Q263 680 284 672T327 652T366 632T391 623Q401 623 405 632T413 657Q416 668 420 672T433 676Q450 676 460 671T471 648Q471 619 461 594T434 554T394 539Q366 539 341 553T293 581T252 596Q245 596 240 590T229 566Q226 555
222 551T207 546Q195 546 184 553T172 581Z" />
<glyph unicode="&#xf2;" horiz-adv-x="498" d="M209 -15Q119 -15 70 35T21 181Q21 247 42 303T101 401T187 467T291 491Q380 491 428 441T476 291Q476 227 456 172T399 74T314 9T209 -15ZM230 60Q265 60 291 88T331 166T346 280Q346 344 327 380T268 416Q234 416
208 388T166 310T151 196Q151 130 171 95T230 60ZM392 552L263 691Q258 696 251 698T234 701Q221 701 208 692T185 668T175 636Q175 627 180 622T196 610L349 525Q356 522 361 522T372 521Q382 521 391 526T401 538Q401 542 399 544T392 552Z" />
<glyph unicode="&#xf3;" horiz-adv-x="498" d="M209 -15Q119 -15 70 35T21 181Q21 247 42 303T101 401T187 467T291 491Q380 491 428 441T476 291Q476 227 456 172T399 74T314 9T209 -15ZM230 60Q265 60 291 88T331 166T346 280Q346 344 327 380T268 416Q234 416
208 388T166 310T151 196Q151 130 171 95T230 60ZM159 552Q150 546 150 539Q150 532 159 527T179 521Q185 521 190 522T202 526L383 609Q395 614 399 619T404 636Q404 652 396 667T374 692T348 702Q334 702 321 691L159 552Z" />
<glyph unicode="&#xf4;" horiz-adv-x="498" d="M209 -15Q119 -15 70 35T21 181Q21 247 42 303T101 401T187 467T291 491Q380 491 428 441T476 291Q476 227 456 172T399 74T314 9T209 -15ZM230 60Q265 60 291 88T331 166T346 280Q346 344 327 380T268 416Q234 416
208 388T166 310T151 196Q151 130 171 95T230 60ZM127 556V556Q120 549 122 543T134 536L176 531Q184 530 189 533T199 540L281 623L348 541Q353 536 359 531T381 526L424 528Q434 529 437 535T436 549L361 663Q348 683 335 689T298 696Q276 696 263 690T240 674L127
556Z" />
<glyph unicode="&#xf5;" horiz-adv-x="498" d="M209 -15Q119 -15 70 35T21 181Q21 247 42 303T101 401T187 467T291 491Q380 491 428 441T476 291Q476 227 456 172T399 74T314 9T209 -15ZM230 60Q265 60 291 88T331 166T346 280Q346 344 327 380T268 416Q234 416
208 388T166 310T151 196Q151 130 171 95T230 60ZM142 581Q142 605 151 627T177 665T218 680Q233 680 254 672T297 652T336 632T361 623Q371 623 375 632T383 657Q386 668 390 672T403 676Q420 676 430 671T441 648Q441 619 431 594T404 554T364 539Q336 539 311
553T263 581T222 596Q215 596 210 590T199 566Q196 555 192 551T177 546Q165 546 154 553T142 581Z" />
<glyph unicode="&#xf6;" horiz-adv-x="498" d="M209 -15Q119 -15 70 35T21 181Q21 247 42 303T101 401T187 467T291 491Q380 491 428 441T476 291Q476 227 456 172T399 74T314 9T209 -15ZM230 60Q265 60 291 88T331 166T346 280Q346 344 327 380T268 416Q234 416
208 388T166 310T151 196Q151 130 171 95T230 60ZM370 551Q345 551 327 568T308 613Q308 646 329 664T379 683Q405 683 422 668T440 622Q440 591 420 571T370 551ZM196 551Q171 551 153 568T135 613Q135 646 156 664T206 683Q231 683 249 668T267 622Q267 591 246
571T196 551Z" />
<glyph unicode="&#xf7;" horiz-adv-x="550" d="M509 330Q521 330 524 326T527 313Q527 300 520 286T498 262T454 251L64 243Q52 243 49 249T46 265Q46 275 53 287T76 310T117 320L509 330ZM283 370Q255 370 235 389T215 438Q215 475 238 495T293 515Q321 515 340
498T360 448Q360 415 337 393T283 370ZM279 49Q251 49 231 67T211 117Q211 153 234 173T288 194Q317 194 336 177T355 126Q355 94 332 72T279 49Z" />
<glyph unicode="&#xf8;" horiz-adv-x="489" d="M95 -169Q88 -172 77 -164T61 -146Q54 -124 72 -82L378 613Q382 622 388 623Q394 625 406 617T422 597Q429 576 409 532L105 -157Q102 -166 95 -169ZM209 -15Q119 -15 70 35T21 181Q21 247 42 303T101 401T187 467T291
491Q380 491 428 441T476 291Q476 227 456 172T399 74T314 9T209 -15ZM230 60Q265 60 291 88T331 166T346 280Q346 344 327 380T268 416Q234 416 208 388T166 310T151 196Q151 130 171 95T230 60Z" />
<glyph unicode="&#xf9;" horiz-adv-x="539" d="M129 -13Q90 -13 66 9T42 76Q42 91 42 105T45 139T52 193L90 491H167Q184 491 192 472T201 424Q201 403 198 369T189 294L177 210Q173 182 172 162T170 128Q170 111 173 102T189 92Q203 92 225 113T271 169T316 244T350
323T364 390Q364 413 359 428T354 454Q354 463 367 470T398 481T433 488T461 491Q479 491 489 471T496 414L449 -10H375Q363 -10 355 2T342 29T338 55Q338 78 345 105T365 174T396 282V265Q357 163 311 102T219 14T129 -13ZM409 552L280 691Q275 696 268 698T251
701Q238 701 225 692T202 668T192 636Q192 627 197 622T213 610L366 525Q373 522 378 522T389 521Q399 521 408 526T418 538Q418 542 416 544T409 552Z" />
<glyph unicode="&#xfa;" horiz-adv-x="539" d="M129 -13Q90 -13 66 9T42 76Q42 91 42 105T45 139T52 193L90 491H167Q184 491 192 472T201 424Q201 403 198 369T189 294L177 210Q173 182 172 162T170 128Q170 111 173 102T189 92Q203 92 225 113T271 169T316 244T350
323T364 390Q364 413 359 428T354 454Q354 463 367 470T398 481T433 488T461 491Q479 491 489 471T496 414L449 -10H375Q363 -10 355 2T342 29T338 55Q338 78 345 105T365 174T396 282V265Q357 163 311 102T219 14T129 -13ZM176 552Q167 546 167 539Q167 532 176
527T196 521Q202 521 207 522T219 526L400 609Q412 614 416 619T421 636Q421 652 413 667T391 692T365 702Q351 702 338 691L176 552Z" />
<glyph unicode="&#xfb;" horiz-adv-x="539" d="M129 -13Q90 -13 66 9T42 76Q42 91 42 105T45 139T52 193L90 491H167Q184 491 192 472T201 424Q201 403 198 369T189 294L177 210Q173 182 172 162T170 128Q170 111 173 102T189 92Q203 92 225 113T271 169T316 244T350
323T364 390Q364 413 359 428T354 454Q354 463 367 470T398 481T433 488T461 491Q479 491 489 471T496 414L449 -10H375Q363 -10 355 2T342 29T338 55Q338 78 345 105T365 174T396 282V265Q357 163 311 102T219 14T129 -13ZM144 556V556Q137 549 139 543T151 536L193
531Q201 530 206 533T216 540L298 623L365 541Q370 536 376 531T398 526L441 528Q451 529 454 535T453 549L378 663Q365 683 352 689T315 696Q293 696 280 690T257 674L144 556Z" />
<glyph unicode="&#xfc;" horiz-adv-x="539" d="M129 -13Q90 -13 66 9T42 76Q42 91 42 105T45 139T52 193L90 491H167Q184 491 192 472T201 424Q201 403 198 369T189 294L177 210Q173 182 172 162T170 128Q170 111 173 102T189 92Q203 92 225 113T271 169T316 244T350
323T364 390Q364 413 359 428T354 454Q354 463 367 470T398 481T433 488T461 491Q479 491 489 471T496 414L449 -10H375Q363 -10 355 2T342 29T338 55Q338 78 345 105T365 174T396 282V265Q357 163 311 102T219 14T129 -13ZM387 551Q362 551 344 568T325 613Q325
646 346 664T396 683Q422 683 439 668T457 622Q457 591 437 571T387 551ZM213 551Q188 551 170 568T152 613Q152 646 173 664T223 683Q248 683 266 668T284 622Q284 591 263 571T213 551Z" />
<glyph unicode="&#xfd;" horiz-adv-x="538" d="M173 -221Q124 -221 90 -206T39 -161T21 -84Q21 -70 26 -65T36 -59Q42 -59 48 -63T68 -76Q86 -88 110 -102T162 -126T216 -136Q238 -136 259 -121T299 -67T337 45L394 273L400 274Q363 176 316 113T219 19T124 -12Q82
-12 62 11T42 75Q42 95 44 119T53 194L90 491H167Q184 491 195 472T206 424Q206 406 204 389T199 351T191 297L177 210Q173 182 171 163T168 129Q168 111 172 102T190 92Q205 92 226 113T271 168T313 241T346 317T359 379Q359 396 357 415T354 448Q354 461 373
470T419 485T463 491Q480 491 489 476T497 424Q496 407 492 376T484 316L456 30Q450 -36 423 -84T355 -162T267 -206T173 -221ZM180 552Q171 546 171 539Q171 532 180 527T200 521Q206 521 211 522T223 526L404 609Q416 614 420 619T425 636Q425 652 417 667T395
692T369 702Q355 702 342 691L180 552Z" />
<glyph unicode="&#xfe;" horiz-adv-x="535" d="M232 -16Q193 -16 156 -5T90 21L128 129Q151 111 180 96T237 71T283 62Q312 62 335 89T373 164T387 276Q387 330 380 359T356 388Q346 388 314 361T237 267T141 78L114 166Q171 292 221 362T315 461T402 490Q464
490 487 443T511 317Q511 220 474 145T375 27T232 -16ZM57 -219Q41 -219 31 -207T15 -179T10 -147Q10 -134 10 -120T13 -87T18 -36L108 696H183Q197 696 208 685T225 660T231 634Q231 615 227 597T217 551L130 191H163L148 56L139 43L136 -219H57Z" />
<glyph unicode="&#xff;" horiz-adv-x="538" d="M173 -221Q124 -221 90 -206T39 -161T21 -84Q21 -70 26 -65T36 -59Q42 -59 48 -63T68 -76Q86 -88 110 -102T162 -126T216 -136Q238 -136 259 -121T299 -67T337 45L394 273L400 274Q363 176 316 113T219 19T124 -12Q82
-12 62 11T42 75Q42 95 44 119T53 194L90 491H167Q184 491 195 472T206 424Q206 406 204 389T199 351T191 297L177 210Q173 182 171 163T168 129Q168 111 172 102T190 92Q205 92 226 113T271 168T313 241T346 317T359 379Q359 396 357 415T354 448Q354 461 373
470T419 485T463 491Q480 491 489 476T497 424Q496 407 492 376T484 316L456 30Q450 -36 423 -84T355 -162T267 -206T173 -221ZM382 551Q357 551 339 568T320 613Q320 646 341 664T391 683Q416 683 434 668T452 622Q452 591 431 571T382 551ZM208 551Q183 551 165
568T146 613Q146 646 167 664T217 683Q243 683 260 668T278 622Q278 591 258 571T208 551Z" />
<glyph unicode="&#x2013;" horiz-adv-x="594" d="M46 218Q46 229 53 240T72 260T101 268H535Q547 268 547 252Q547 231 532 217T497 202H57Q50 202 48 206T46 218Z" />
<glyph unicode="&#x2014;" horiz-adv-x="702" d="M-5 218Q-5 229 1 240T17 260T43 268H695Q707 268 707 252Q707 231 689 217T650 202H6Q-1 202 -3 206T-5 218Z" />
<glyph unicode="&#x2018;" horiz-adv-x="227" d="M252 667Q252 660 249 657T239 651Q196 634 176 607T155 545Q155 535 159 526T181 488L120 535Q135 541 151 541Q180 541 202 522T224 469Q224 431 200 409T141 387Q103 387 83 415T62 483Q62 535 79 574T122 640T177
679T229 693Q239 693 245 684T252 667Z" />
<glyph unicode="&#x2019;" horiz-adv-x="227" d="M40 418Q40 425 43 428T52 434Q96 451 116 478T136 540Q136 551 133 560T111 597L171 550Q156 544 140 544Q112 544 90 563T67 616Q67 655 92 676T151 698Q188 698 208 670T229 602Q229 550 213 511T170 445T115
406T62 392Q53 392 47 401T40 418Z" />
<glyph unicode="&#x201a;" horiz-adv-x="217" d="M-21 -144Q-21 -137 -18 -134T-9 -128Q35 -111 55 -84T75 -22Q75 -11 72 -2T50 35L110 -12Q95 -18 79 -18Q51 -18 29 1T6 54Q6 93 31 114T90 136Q127 136 147 108T168 40Q168 -12 152 -51T109 -117T54 -156T1 -170Q-8
-170 -14 -161T-21 -144Z" />
<glyph unicode="&#x201c;" horiz-adv-x="421" d="M252 667Q252 660 249 657T239 651Q196 634 176 607T155 545Q155 535 159 526T181 488L120 535Q135 541 151 541Q180 541 202 522T224 469Q224 431 200 409T141 387Q103 387 83 415T62 483Q62 535 79 574T122 640T177
679T229 693Q239 693 245 684T252 667ZM445 667Q445 660 442 657T433 651Q390 634 370 607T349 545Q349 535 352 526T374 488L314 535Q329 541 345 541Q374 541 396 522T418 469Q418 431 393 409T334 387Q297 387 277 415T256 483Q256 535 272 574T315 640T370
679T423 693Q432 693 438 684T445 667Z" />
<glyph unicode="&#x201d;" horiz-adv-x="419" d="M40 418Q40 425 43 428T52 434Q96 451 116 478T136 540Q136 551 133 560T111 597L171 550Q156 544 140 544Q112 544 90 563T67 616Q67 655 92 676T151 698Q188 698 208 670T229 602Q229 550 213 511T170 445T115
406T62 392Q53 392 47 401T40 418ZM232 418Q232 425 235 428T244 434Q288 451 308 478T328 540Q328 551 325 560T303 597L363 550Q348 544 332 544Q304 544 282 563T259 616Q259 655 284 676T343 698Q380 698 400 670T421 602Q421 550 405 511T362 445T307 406T254
392Q245 392 239 401T232 418Z" />
<glyph unicode="&#x201e;" horiz-adv-x="409" d="M171 -144Q171 -137 174 -134T183 -128Q227 -111 247 -84T267 -22Q267 -11 264 -2T242 35L302 -12Q287 -18 271 -18Q243 -18 221 1T198 54Q198 93 223 114T282 136Q319 136 339 108T360 40Q360 -12 344 -51T301
-117T246 -156T193 -170Q184 -170 178 -161T171 -144ZM-21 -144Q-21 -137 -18 -134T-9 -128Q35 -111 55 -84T75 -22Q75 -11 72 -2T50 35L110 -12Q95 -18 79 -18Q51 -18 29 1T6 54Q6 93 31 114T90 136Q127 136 147 108T168 40Q168 -12 152 -51T109 -117T54 -156T1
-170Q-8 -170 -14 -161T-21 -144Z" />
<glyph unicode="&#x2022;" horiz-adv-x="296" d="M144 147Q97 147 63 179T28 263Q28 324 68 358T160 393Q208 393 241 365T274 279Q274 223 236 185T144 147Z" />
<glyph unicode="&#x2039;" horiz-adv-x="351" d="M318 432V432Q308 432 297 427T276 416L44 267Q34 260 29 254T24 240Q24 232 28 227T37 217L202 79Q219 65 230 59T251 53Q261 53 274 61T297 82T307 104Q307 110 305 115T294 126L146 241L211 284Q266 321 294
345T332 384T342 411Q342 421 336 426T318 432Z" />
<glyph unicode="&#x203a;" horiz-adv-x="351" d="M34 54V54Q44 54 55 59T76 70L308 219Q319 226 323 232T328 246Q328 254 324 259T315 269L150 407Q133 421 123 427T101 433Q91 433 78 425T55 404T45 382Q45 376 47 371T58 360L206 245L141 202Q86 165 58 142T20
102T10 75Q10 65 16 60T34 54Z" />
</font>
</defs>
</svg>
