<?xml version="1.0" standalone="no"?>
<!DOCTYPE svg PUBLIC "-//W3C//DTD SVG 1.1//EN" "http://www.w3.org/Graphics/SVG/1.1/DTD/svg11.dtd">
<svg xmlns="http://www.w3.org/2000/svg">
<defs >
<font id="Alkatra" horiz-adv-x="740" ><font-face
    font-family="Alkatra"
    units-per-em="1000"
    panose-1="3 8 9 2 4 3 2 2 2 0"
    ascent="1095"
    descent="-589"
    alphabetic="0" />
<glyph unicode=" " horiz-adv-x="200" />
<glyph unicode="!" horiz-adv-x="243" d="M90 627Q91 655 106 670T143 690T188 696Q217 696 236 684T255 646Q255 641 255 635T252 620L209 429Q193 356 181 310T158 238T133 204T99 194Q92 194 84 199T77 217L90 627ZM98 -22Q63 -22 38 2T12 64Q12 110 41 135T110
161Q146 161 170 140T195 76Q195 34 166 6T98 -22Z" />
<glyph unicode="&quot;" horiz-adv-x="369" d="M85 925Q86 936 90 940T101 944H174Q200 944 215 933T216 884L144 702Q131 668 122 657T94 646Q79 646 71 655T64 680L85 925ZM255 669Q256 680 260 684T271 688H344Q370 688 385 677T386 628L314 446Q301 412 292
401T264 390Q249 390 241 399T234 424L255 669Z" />
<glyph unicode="#" horiz-adv-x="615" d="M147 -170Q131 -170 120 -153T100 -94Q99 -84 97 -68T95 -39Q94 -12 96 17T105 88L202 671Q204 686 217 691T240 696Q252 696 265 688T287 656T296 589Q296 562 293 526T282 441L192 -123Q188 -147 176 -158T147 -170ZM24
108Q11 108 7 114T3 132Q3 142 10 157T33 184T76 197L522 203Q561 204 568 204T576 205Q588 205 591 201T594 188Q594 175 588 158T566 129T522 115L24 108ZM382 -170Q366 -170 356 -155T340 -117T332 -73T330 -39Q329 -12 331 17T340 88L437 671Q439 686 452 691T475
696Q487 696 500 688T522 656T531 589Q531 562 528 526T517 441L427 -123Q423 -147 411 -158T382 -170ZM50 321Q37 321 33 327T29 345Q29 355 36 370T59 397T102 410L548 416Q587 417 594 417T602 418Q614 418 617 414T620 401Q620 388 614 371T592 342T548 328L50
321Z" />
<glyph unicode="$" horiz-adv-x="580" d="M384 684L258 -77Q256 -90 248 -99T225 -108Q202 -108 191 -89T184 -38L319 767Q323 791 333 796T353 802Q366 802 378 792T397 768T403 743Q402 724 394 710T384 684ZM26 90Q26 132 35 151T61 170Q73 170 90 157T132
126T186 96T252 82Q288 82 309 93T338 122T347 159Q347 178 342 194T323 225T285 257L207 309Q174 331 144 358T93 420T73 500Q73 562 107 606T201 673T341 696Q403 696 439 689T492 666T508 626Q508 598 499 574T475 550Q465 550 451 559T416 577Q394 587 370
593T316 600Q291 600 273 590T246 562T237 524Q237 509 242 496T261 469T297 444L369 407Q416 383 450 359T503 299T522 208Q522 137 487 88T387 13T233 -13Q142 -13 84 12T26 90Z" />
<glyph unicode="%" horiz-adv-x="584" d="M38 -19Q22 -19 13 -4T4 29Q5 43 20 65T61 119L519 687Q526 696 535 698T550 701Q568 701 576 688T584 659Q584 645 576 630T557 602L77 6Q67 -6 59 -12T38 -19ZM168 408Q107 408 73 448T38 545Q38 590 57 627T110 687T192
710Q257 710 289 670T321 574Q321 528 302 491T248 431T168 408ZM175 497Q201 497 218 515T235 565Q235 590 224 606T188 623Q160 625 142 605T124 555Q124 530 137 514T175 497ZM410 -26Q349 -26 315 14T280 111Q280 156 299 193T352 253T434 276Q499 276 531
236T563 140Q563 94 544 57T490 -3T410 -26ZM417 63Q443 63 460 81T477 131Q477 156 466 172T430 189Q402 191 384 171T366 121Q366 96 379 80T417 63Z" />
<glyph unicode="&amp;" horiz-adv-x="690" d="M547 -15Q532 -15 516 -9T477 15T420 67T335 157L188 318Q154 356 130 385T94 445T81 513Q81 600 141 648T304 696Q411 696 461 655T512 547Q512 506 492 470T441 404T374 354T306 324L273 383Q313 413 339 451T366
534Q366 572 348 594T299 616Q270 616 247 594T223 528Q223 495 246 457T302 385L496 178Q537 135 579 110T670 65Q681 61 686 57T691 44Q691 36 680 26T648 7T602 -9T547 -15ZM226 372L254 321Q224 314 203 293T170 244T158 185Q158 133 190 106T267 78Q317 78
359 95T432 139T475 190Q493 227 496 259T500 317T506 361Q511 375 533 386T582 403T628 410Q640 410 645 404T650 387Q650 305 618 233T530 105T401 18T244 -13Q126 -13 64 30T1 162Q1 210 23 247T80 310T154 352T226 372Z" />
<glyph unicode="&apos;" horiz-adv-x="199" d="M85 670Q86 681 90 685T101 689H174Q200 689 215 678T216 629L144 447Q131 413 122 402T94 391Q79 391 71 400T64 425L85 670Z" />
<glyph unicode="(" horiz-adv-x="349" d="M318 689Q243 666 186 617T89 501T29 357T9 199Q9 115 31 47T89 -69T168 -144T253 -170Q272 -170 281 -162T290 -143Q290 -135 287 -130T273 -119Q251 -108 228 -88T186 -32T155 62T143 206Q143 263 152 326T184 450T251
561T364 641Q375 646 380 650T386 668Q386 679 379 687T357 696Q351 696 343 695T318 689Z" />
<glyph unicode=")" horiz-adv-x="349" d="M36 -164Q111 -141 168 -92T265 24T325 168T345 326Q345 410 323 478T265 594T186 669T101 695Q82 695 73 687T64 668Q64 660 67 655T81 644Q103 634 126 614T168 557T199 463T211 319Q211 262 202 199T170 75T103 -36T-10
-116Q-20 -120 -26 -125T-32 -143Q-32 -154 -24 -162T-3 -171Q3 -171 11 -170T36 -164Z" />
<glyph unicode="*" horiz-adv-x="422" d="M29 541Q29 567 46 585T88 603Q97 603 105 601T122 593L175 560Q186 553 192 558T194 576L171 633Q168 641 166 648T164 662Q164 690 183 705T228 721Q249 721 265 708T281 669Q281 659 279 653T274 638L248 576Q243 564
249 559T267 560L316 588Q325 593 334 597T355 602Q376 602 391 588T407 548Q407 523 390 505T348 486Q343 486 339 487T331 489L287 500Q273 503 269 496T274 479L331 431Q348 416 348 390Q348 367 331 349T289 331Q270 331 254 344T235 380L226 442Q224 456 216
457T204 444L186 374Q182 356 166 343T129 330Q107 330 91 345T74 385Q74 404 82 416T102 437L161 479Q173 487 170 496T153 501L135 495Q113 488 99 487T80 486Q59 486 44 502T29 541Z" />
<glyph unicode="+" horiz-adv-x="552" d="M493 328Q505 328 510 324T515 311Q515 298 508 280T484 249T439 235L67 227Q55 227 50 233T45 249Q45 259 53 275T77 304T117 318L493 328ZM344 429L310 108Q308 84 294 69T264 47T238 40Q228 40 223 45T217 60Q217 67
219 83T222 107L253 433Q256 461 269 476T300 498T331 505Q339 505 344 501T349 487Q349 478 348 465T344 429Z" />
<glyph unicode="," horiz-adv-x="221" d="M-24 -141Q-24 -133 -20 -130T-10 -125Q33 -106 51 -81T69 -22Q69 -11 64 -2T41 35L110 -17Q95 -23 79 -23Q51 -23 24 -2T-4 57Q-4 98 23 122T89 146Q130 146 154 115T179 40Q179 -12 161 -51T114 -117T55 -156T0 -170Q-11
-170 -17 -160T-24 -141Z" />
<glyph unicode="-" horiz-adv-x="367" d="M249 297Q288 299 295 299T303 299Q315 299 321 294T327 278Q327 264 321 247T299 216T254 202L70 195Q69 195 67 195T63 195Q53 195 48 202T43 222Q43 243 61 266T117 291L249 297Z" />
<glyph unicode="." horiz-adv-x="223" d="M88 -22Q53 -22 28 2T2 64Q2 110 31 135T100 161Q136 161 160 140T185 76Q185 34 156 6T88 -22Z" />
<glyph unicode="/" horiz-adv-x="284" d="M290 636Q290 617 288 603T282 577L96 -115Q88 -145 75 -157T45 -170Q26 -170 14 -147T1 -97Q1 -84 3 -67T11 -30L193 662Q199 684 209 690T230 696Q252 696 271 676T290 636Z" />
<glyph unicode="0" horiz-adv-x="580" d="M261 -16Q146 -16 88 56T30 283Q30 377 52 453T116 583T214 667T341 696Q463 696 517 624T572 398Q572 304 550 228T486 97T388 13T261 -16ZM323 611Q290 611 267 588T230 523T210 425T203 302Q203 180 221 125T282 70Q319
70 345 110T386 220T400 378Q400 500 383 555T323 611Z" />
<glyph unicode="1" horiz-adv-x="580" d="M8 5Q8 23 26 45T77 71L275 92L205 27L262 536L139 509Q119 505 102 499T73 493Q63 493 57 498T50 515Q50 534 73 556T143 599L324 681Q333 685 347 690T376 696Q408 696 420 671T426 584L398 319Q390 240 385 175T385
53L313 96L499 126Q512 128 520 130T535 133Q555 133 555 110Q555 99 551 81T538 44T516 13T485 0H237Q185 0 139 -3T62 -9T24 -12Q8 -12 8 5Z" />
<glyph unicode="2" horiz-adv-x="580" d="M96 152L213 260Q280 322 312 364T355 440T365 507Q365 550 342 577T281 605Q249 605 215 589T157 555Q138 542 122 532T92 522Q80 522 71 535T56 566T51 601Q51 631 81 652T163 685T284 696Q355 696 414 675T510 614T547
515Q547 466 526 423T471 343T398 273T322 211L126 56L125 88L477 139Q496 142 511 144T536 146Q560 146 560 122Q560 110 555 90T540 50T516 15T481 0H343Q321 0 288 -1T218 -3T147 -6T89 -9T56 -10Q42 -10 35 0T26 25T23 47Q23 67 39 91T96 152Z" />
<glyph unicode="3" horiz-adv-x="580" d="M376 367L387 398Q429 390 467 367T530 308T555 224Q555 152 515 98T403 14T239 -16Q157 -16 107 0T35 44T12 105Q12 131 17 150T37 170Q49 170 71 156T122 122T184 89T251 74Q289 74 318 93T365 146T382 223Q382 271
360 302T300 346L380 357Q356 344 327 329T270 303T220 292Q202 292 186 308T160 348T150 392Q150 416 161 427T189 438Q207 438 233 433T289 422T343 410T381 405L325 390Q354 412 364 450T375 519Q375 569 354 587T298 606Q266 606 231 589T170 555Q148 542 134
532T111 521Q99 521 89 533T74 562T68 596Q68 629 105 651T200 684T321 696Q419 696 480 656T541 544Q541 497 516 464T454 407T376 367Z" />
<glyph unicode="4" horiz-adv-x="580" d="M-4 194Q-4 214 1 230T26 271T86 343L316 626Q339 655 354 669T384 689T420 695H510Q528 695 535 686T543 649Q543 625 541 601T536 545T527 466L477 -8H387Q378 -8 366 -6T345 4T335 28Q335 61 338 99T345 174T351 234L394
640L429 611L103 201L58 251H391Q434 251 469 254T529 262T563 266Q577 266 583 259T590 241Q590 225 570 205T517 171T443 157L24 155Q9 155 3 166T-4 194Z" />
<glyph unicode="5" horiz-adv-x="580" d="M10 105Q10 131 15 150T35 170Q47 170 68 156T118 122T179 89T246 74Q290 74 318 95T361 154T375 245Q375 301 349 327T281 354Q248 354 213 343T150 321T109 310Q86 310 86 357Q86 362 90 393T99 463L129 668Q131 680
144 680H295Q371 680 419 684T493 692T529 696Q540 696 546 693T553 674Q553 660 548 640T533 600T512 567T487 554Q471 554 434 558T350 569L163 595L233 646L194 376L150 392Q190 418 243 431T340 445Q399 445 448 426T528 365T558 257Q558 180 518 118T402 20T222
-16Q145 -16 99 0T31 44T10 105Z" />
<glyph unicode="6" horiz-adv-x="580" d="M276 -16Q227 -16 182 -3T102 41T47 121T26 245Q26 347 53 430T130 572T246 664T393 696Q458 696 489 688T531 663T542 625Q542 600 532 577T509 554Q501 554 489 560T460 575Q445 583 414 594T348 606Q290 606 256 565T206
446T191 263Q191 171 218 120T292 69Q340 69 364 116T389 235Q389 266 381 292T355 335T302 352Q285 352 246 343T168 307L171 389Q206 412 250 427T347 443Q408 443 458 422T537 358T567 247Q567 187 544 139T481 56T388 3T276 -16Z" />
<glyph unicode="7" horiz-adv-x="580" d="M45 561Q45 586 51 613T70 660T97 680H602Q613 680 618 675T624 659Q624 637 617 619T595 585T563 548Q489 466 443 394T375 257T354 129Q354 98 363 74T372 37Q372 24 350 15T296 -2T238 -12T203 -16Q188 -16 180 3T172
81Q172 151 198 223T270 366T375 501T498 621L556 602L158 542Q128 538 109 535T75 531Q59 531 52 539T45 561Z" />
<glyph unicode="8" horiz-adv-x="580" d="M20 150Q20 188 39 223T92 288T168 337T257 361L288 317Q260 305 237 284T199 236T185 175Q185 118 213 94T284 69Q327 69 354 95T381 165Q381 187 373 203T344 235T291 273L247 302Q223 318 194 337T139 379T95 433T77
500Q76 558 110 602T204 671T336 696Q439 696 502 658T566 549Q566 512 546 481T494 426T424 387T349 366L308 409Q331 420 352 439T387 483T401 536Q401 565 384 587T329 610Q294 610 271 588T247 527Q247 508 254 492T276 463T307 440L413 379Q433 368 457 352T505
314T544 263T559 197Q559 137 523 89T421 13T264 -15Q155 -15 88 27T20 150Z" />
<glyph unicode="9" horiz-adv-x="580" d="M199 -16Q139 -16 105 -8T58 17T44 55Q44 87 56 108T81 130Q89 130 101 122T130 105Q145 98 175 86T239 74Q290 74 325 115T379 234T398 417Q398 509 371 560T298 611Q252 611 227 566T201 454Q201 401 219 365T288 328Q311
328 348 337T422 369L421 291Q387 269 341 253T240 237Q185 237 138 258T63 321T34 429Q34 490 55 539T115 624T204 677T314 696Q361 696 407 682T490 635T550 546T573 405Q573 321 547 246T473 111T355 18T199 -16Z" />
<glyph unicode=":" horiz-adv-x="244" d="M128 255Q93 255 68 279T42 341Q42 387 71 412T140 438Q176 438 200 417T225 353Q225 311 196 283T128 255ZM99 -22Q64 -22 39 2T13 64Q13 110 42 135T111 161Q147 161 171 140T196 76Q196 34 167 6T99 -22Z" />
<glyph unicode=";" horiz-adv-x="243" d="M123 255Q88 255 63 279T37 341Q37 387 66 412T135 438Q171 438 195 417T220 353Q220 311 191 283T123 255ZM-18 -141Q-18 -133 -14 -130T-4 -125Q39 -106 57 -81T75 -22Q75 -11 70 -2T47 35L116 -17Q101 -23 85 -23Q57
-23 30 -2T2 57Q2 98 29 122T95 146Q136 146 160 115T185 40Q185 -12 167 -51T120 -117T61 -156T6 -170Q-5 -170 -11 -160T-18 -141Z" />
<glyph unicode="&lt;" horiz-adv-x="662" d="M573 480Q573 455 557 434T512 398L211 263V304L541 148Q549 144 557 140T565 127Q565 105 544 86T500 66Q482 66 466 74L164 233Q140 246 140 270Q140 288 156 307T231 358L513 507Q533 518 553 510T573 480Z" />
<glyph unicode="=" horiz-adv-x="550" d="M496 240Q508 240 511 236T514 223Q514 210 508 192T486 161T442 147L62 141Q50 141 47 147T44 163Q44 173 51 189T73 218T112 232L496 240ZM501 416Q513 416 516 412T519 399Q519 386 513 368T491 337T447 323L67 317Q55
317 52 323T49 339Q49 349 56 365T78 394T117 408L501 416Z" />
<glyph unicode="&gt;" horiz-adv-x="550" d="M80 77Q80 103 96 124T141 159L442 294V253L112 409Q104 413 96 418T88 430Q88 453 109 472T153 491Q171 491 187 483L489 324Q513 311 513 287Q513 269 497 250T422 199L140 50Q120 40 100 48T80 77Z" />
<glyph unicode="?" horiz-adv-x="419" d="M443 556Q443 508 419 470T355 403T273 354T194 319L280 393Q258 312 243 269T212 210T167 194Q145 194 138 202T131 224L137 330Q139 353 147 363T181 390Q237 427 260 460T283 540Q283 578 268 595T224 612Q189 612
164 597T121 566T90 550Q76 550 66 572T56 615Q56 649 103 672T232 696Q334 696 388 656T443 556ZM170 -22Q135 -22 110 2T84 64Q84 110 113 135T182 161Q218 161 242 140T267 76Q267 34 238 6T170 -22Z" />
<glyph unicode="@" horiz-adv-x="816" d="M311 128Q261 128 233 165T205 275Q205 353 238 416T326 516T446 553Q487 553 519 542T570 523L543 419Q520 437 491 451T436 473T401 481Q382 481 367 455T344 389T335 310Q335 268 337 244T349 219Q358 219 382 240T439
316T509 473H531L530 399Q484 261 429 195T311 128ZM35 263Q35 350 62 419T135 541T238 627T357 679T476 696Q572 696 646 664T762 572T804 425Q804 362 782 308T723 214T641 151T548 128Q513 128 496 148T479 191Q479 211 484 239T495 314L503 376L491 398L511
525Q521 526 539 528T578 532T613 535T633 537Q645 537 645 527Q645 523 644 516T640 499Q631 471 618 428T598 321L593 271Q590 240 590 230T605 219Q622 219 644 240T682 305T699 414Q699 485 669 532T587 602T467 626Q403 626 344 602T239 531T167 420T140 274Q140
163 204 110T372 56Q451 56 495 67T559 83Q564 84 568 84T577 85Q587 85 596 81T606 68Q606 56 585 42T528 15T449 -6T361 -15Q261 -15 188 17T75 112T35 263Z" />
<glyph unicode="A" horiz-adv-x="674" d="M12 -14Q-15 -14 -15 3Q-15 11 -7 29L288 624Q298 645 323 661T381 686T450 696Q464 696 473 690T485 665Q502 550 527 442T583 222Q597 175 607 146T627 102Q638 87 646 78T655 59Q655 48 639 36T598 12T549 -5T510 -12Q485
-12 462 27T416 170L329 587L377 599L187 189Q174 161 169 142T162 108T158 72Q156 53 137 38T92 11T44 -7T12 -14ZM144 190V280H516V190H144Z" />
<glyph unicode="B" horiz-adv-x="606" d="M73 -8Q55 -8 48 8T41 51Q41 71 44 96L108 677Q146 682 189 686T288 690Q391 690 450 670T535 615T561 535Q561 480 528 437T442 365L411 348Q384 335 363 327T327 318Q299 318 279 333T258 364Q258 371 262 374T275 380Q306
389 335 406T382 452T401 523Q401 573 361 591T259 609L212 159Q211 149 211 140T210 120Q210 109 210 103T212 85Q304 85 357 119T410 229Q410 271 390 300T348 344L421 383Q466 371 502 347T560 288T582 214Q582 150 551 102T454 27T281 0Q261 0 231 -1T168 -4T110
-7T73 -8Z" />
<glyph unicode="C" horiz-adv-x="626" d="M336 -16Q251 -16 184 17T77 118T37 283Q37 373 68 448T154 579T285 665T450 696Q538 696 584 677T631 602Q631 574 619 553T592 531Q583 531 564 542T532 562Q508 578 479 594T413 611Q353 611 309 574T240 467T215 301Q215
222 233 171T284 95T361 70Q399 70 429 86T484 125T527 163T565 180Q580 180 588 170T596 143Q596 99 561 63T466 5T336 -16Z" />
<glyph unicode="D" horiz-adv-x="698" d="M85 -8Q67 -8 58 12T48 59Q48 98 57 186L107 680Q161 685 224 687T334 690Q498 690 590 614T682 400Q682 284 632 194T484 52T246 0Q206 0 162 -4T85 -8ZM220 86Q310 86 373 125T470 232T504 388Q504 491 453 550T291
609H266L221 170Q220 153 220 131T220 86Z" />
<glyph unicode="E" horiz-adv-x="524" d="M86 -12Q68 -12 59 10T49 59Q49 98 58 186L108 680H282Q350 680 395 683T466 689T503 692Q514 692 524 689T535 670Q535 652 526 626T502 579T473 558Q463 558 436 564T379 575L267 595L222 179Q220 155 220 133T223 89L412
132Q430 136 448 140T474 145Q491 145 491 118Q491 100 482 72T456 22T417 0H372Q260 0 186 -6T86 -12ZM173 305L186 402H234Q277 402 312 405T372 411T402 414Q416 414 422 406T428 388Q428 373 411 354T364 322T291 307L173 305Z" />
<glyph unicode="F" horiz-adv-x="510" d="M109 -12Q85 -12 72 5T54 45T49 82Q49 102 51 122T58 186L108 680H257Q328 680 379 683T463 689T506 692Q517 692 526 689T535 670Q535 652 526 626T502 579T473 558Q466 558 449 561T413 568T379 575L267 595L213 -12H109ZM188
286L201 383H249Q292 383 327 386T387 392T417 395Q431 395 437 387T443 369Q443 354 426 335T379 303T306 288L188 286Z" />
<glyph unicode="G" horiz-adv-x="689" d="M376 -16Q276 -16 200 17T80 118T37 283Q37 373 68 448T154 579T285 665T450 696Q538 696 584 677T631 602Q631 574 619 553T592 531Q583 531 564 542T532 562Q508 578 479 594T413 611Q353 611 309 574T240 467T215 301Q215
212 246 163T335 93T470 73L507 404H605Q634 404 644 395T655 358Q655 352 655 346T654 334L623 76Q619 47 612 25T584 0Q530 -8 476 -12T376 -16Z" />
<glyph unicode="H" horiz-adv-x="701" d="M176 300V405H547V300H176ZM111 -8Q88 -8 74 8T55 47T49 94Q49 127 53 158T62 234L110 696H204Q239 696 253 681T268 638Q268 614 266 593T261 542T252 466L202 -8H111ZM523 -8Q500 -8 486 8T467 47T461 94Q461 127 465
158T474 234L522 696H616Q651 696 665 681T680 638Q680 614 678 593T673 542T664 466L614 -8H523Z" />
<glyph unicode="I" horiz-adv-x="289" d="M111 -8Q88 -8 74 8T55 47T49 94Q49 127 53 158T62 234L110 696H204Q239 696 253 681T268 638Q268 614 266 593T261 542T252 466L202 -8H111Z" />
<glyph unicode="J" horiz-adv-x="304" d="M-14 -170Q-69 -170 -100 -141T-131 -60Q-131 -42 -125 -38T-115 -33Q-110 -33 -105 -35T-86 -43Q-62 -53 -38 -63T3 -73Q18 -73 25 -62T37 -18T49 78L117 696H214Q251 696 263 676T276 629Q276 611 271 574T258 466L222
134Q213 49 187 -9T125 -103T53 -154T-14 -170Z" />
<glyph unicode="K" horiz-adv-x="659" d="M478 -7Q456 -7 430 18T377 87T322 183T269 291Q265 302 260 315T254 340Q254 353 264 379T302 445T385 540L463 620Q495 652 532 674T605 696Q636 696 654 682T673 635Q673 613 668 589T650 547T620 530Q608 530 594
533T564 537Q554 537 541 531T511 511T468 472L335 340L360 441Q396 357 438 290T516 179T570 120Q593 101 606 94T626 83T632 72Q632 63 617 50T578 23T528 2T478 -7ZM111 -8Q88 -8 74 8T55 47T49 94Q49 127 53 158T62 234L110 696H204Q239 696 253 681T268 638Q268
614 266 593T261 542T252 466L202 -8H111Z" />
<glyph unicode="L" horiz-adv-x="502" d="M84 -12Q66 -12 57 10T47 59Q47 98 56 186L110 695L210 696Q251 697 261 677T265 594L219 176Q217 155 217 133T221 89L410 132Q428 136 446 140T472 145Q489 145 489 118Q489 100 480 72T454 22T415 0H370Q295 0 237
-3T141 -9T84 -12Z" />
<glyph unicode="M" horiz-adv-x="814" d="M68 -12Q49 -12 43 3T37 39Q37 74 41 113T49 191L110 695L222 696Q251 696 276 690T308 658L436 127L370 129L571 622Q587 661 634 678T737 696Q762 696 780 686T795 649L727 -8H618Q594 -8 584 6T574 61Q574 97 575 143T584
234L632 550L639 546L482 168Q460 116 445 85T415 38T386 17T350 12Q330 12 319 22T302 58L187 551L204 552L170 293Q160 214 160 167T166 95T178 55T184 29Q184 18 171 11T139 -2T101 -9T68 -12Z" />
<glyph unicode="N" horiz-adv-x="671" d="M69 -12Q53 -12 48 3T43 39Q43 74 47 113T55 191L110 695L216 696Q231 696 247 692T277 664Q325 580 377 497T477 339T558 201L508 172L530 387Q538 464 538 511T533 584T524 626T519 654Q519 664 531 671T560 684T595
691T622 694Q641 694 651 674T661 634Q661 617 658 595T649 524L635 392Q625 298 622 239T618 144T619 87T621 46Q621 35 606 25T567 6T520 -6T477 -11Q459 -11 454 -2T449 23Q450 36 442 56T422 99T401 137Q369 195 324 262T232 402T145 550L197 552L170 293Q163
224 162 180T164 109T171 69T178 47T182 28Q182 17 168 10T135 -3T97 -10T69 -12Z" />
<glyph unicode="O" horiz-adv-x="750" d="M344 -16Q253 -16 184 17T77 118T38 283Q38 376 67 452T150 582T275 666T428 696Q571 696 652 621T734 398Q734 304 705 228T622 98T498 14T344 -16ZM357 64Q399 64 433 86T493 151T532 250T546 378Q546 457 530 510T484
589T410 616Q355 616 314 577T249 466T226 302Q226 223 242 170T287 91T357 64Z" />
<glyph unicode="P" horiz-adv-x="582" d="M81 -8Q58 -8 50 8T42 51Q42 71 45 96L108 680H321Q454 680 516 639T579 503Q579 445 554 397T487 314T400 260T311 240Q296 240 281 247T256 265T246 292Q246 303 253 308T278 318Q324 331 350 356T389 415T401 490Q401
535 383 558T333 591T260 600L194 -8H81Z" />
<glyph unicode="Q" horiz-adv-x="750" d="M611 -185Q572 -185 531 -161T451 -95T376 -4L478 41Q507 15 530 -3T579 -32T639 -48T725 -53Q745 -53 750 -60T755 -76Q755 -91 744 -109T712 -145T666 -174T611 -185ZM344 -16Q253 -16 184 17T77 118T38 283Q38 376
67 452T150 582T275 666T428 696Q571 696 652 621T734 398Q734 304 705 228T622 98T498 14T344 -16ZM357 64Q399 64 433 86T493 151T532 250T546 378Q546 457 530 510T484 589T410 616Q355 616 314 577T249 466T226 302Q226 223 242 170T287 91T357 64Z" />
<glyph unicode="R" horiz-adv-x="612" d="M455 -9Q423 -9 388 30T318 133T252 270Q248 279 244 288T239 308Q239 319 246 323T261 329Q329 342 365 383T401 488Q401 534 383 558T334 591T261 600H257L191 -8H81Q57 -8 49 8T41 51Q41 71 44 96L108 680Q152 685
195 687T282 690Q375 690 441 670T543 608T579 499Q579 443 556 405T498 342T425 304T357 282L362 346Q399 270 435 221T500 145T543 105Q568 86 580 79T593 62Q593 52 579 40T542 16T496 -2T455 -9Z" />
<glyph unicode="S" horiz-adv-x="537" d="M223 -13Q132 -13 74 12T16 90Q16 132 25 151T51 170Q63 170 80 157T122 126T176 96T242 82Q296 82 316 106T337 159Q337 187 324 210T275 257L197 309Q164 331 134 358T83 420T63 500Q63 562 97 606T191 673T331 696Q393
696 429 689T482 666T498 626Q498 598 489 574T465 550Q455 550 441 559T406 577Q384 587 360 593T306 600Q268 600 248 578T227 524Q227 502 240 482T287 444L359 407Q406 383 440 359T493 299T512 208Q512 102 435 45T223 -13Z" />
<glyph unicode="T" horiz-adv-x="556" d="M218 -8Q197 -8 186 14T175 64Q175 91 178 124T189 216L231 586L125 559Q113 556 98 553T72 549Q62 549 54 557T47 589Q48 609 54 630T71 665T92 680H328Q405 680 455 683T533 688T572 691Q582 691 586 687T591 671Q592
651 584 625T564 580T541 560Q533 560 512 565T464 574L397 586L331 -8H218Z" />
<glyph unicode="U" horiz-adv-x="675" d="M329 -16Q227 -16 165 10T77 91T60 226L109 695H220Q237 695 253 686T269 649Q269 625 267 601T260 545T251 466L229 262Q218 160 245 117T353 74Q390 74 421 88T475 137T503 230L524 424Q530 480 529 517T522 578T513
619T508 649Q508 662 527 672T573 689T619 696Q635 696 645 685T660 659T665 630Q665 613 662 585T655 524L624 238Q614 140 577 85T477 7T329 -16Z" />
<glyph unicode="V" horiz-adv-x="693" d="M264 -14Q256 -14 249 -8T237 22Q226 95 208 176T166 338T118 493Q107 528 97 548T75 583Q64 598 53 608T41 627Q41 638 57 650T98 672T149 689T197 696Q220 696 235 678T263 620T293 510L391 93L324 81L510 491Q523 520
528 539T536 574T541 611Q543 630 562 645T607 672T658 690T696 696Q729 696 729 677Q729 668 718 647L411 52Q404 38 382 23T329 -3T264 -14Z" />
<glyph unicode="W" horiz-adv-x="870" d="M490 -14Q482 -14 474 -8T463 22L418 418L405 490Q398 531 391 552T375 589Q367 604 360 611T352 627Q352 638 368 650T408 672T458 689T505 696Q534 696 546 656T565 510L592 84L539 74L694 491Q705 520 707 539T710
574T712 611Q714 630 734 645T781 672T835 690T878 696Q906 696 906 678Q906 672 904 665T896 647L637 52Q631 38 609 23T555 -3T490 -14ZM174 -14Q159 -14 150 -9T139 15L92 447Q87 493 82 520T71 563T61 589Q54 604 48 611T41 627Q41 638 57 650T98 672T149 689T197
696Q217 696 228 679T246 621T256 510L273 93L215 81L439 561L449 369L308 52Q296 26 262 6T174 -14Z" />
<glyph unicode="X" horiz-adv-x="686" d="M86 -13Q41 -13 20 16T-1 85Q-1 114 3 133T25 152Q40 152 64 145T110 137Q124 137 139 146T175 179T226 247T301 360L330 376Q364 436 400 493T474 596T553 669T638 696Q670 696 686 683T702 643Q702 614 695 588T675
544T646 527Q636 527 621 531T586 537Q554 539 506 489T395 321L359 305Q325 247 293 190T229 88T161 15T86 -13ZM526 -8Q491 -8 457 28T390 128T319 272L303 306Q232 451 181 525T76 613Q60 618 54 622T47 636Q47 653 71 666T131 688T196 696Q227 696 255 677T308
622T359 535T411 419L423 395Q463 318 491 268T539 186T574 137T605 105Q615 97 628 87T651 66T661 49Q661 40 648 31T613 12T568 -2T526 -8Z" />
<glyph unicode="Y" horiz-adv-x="619" d="M264 249L164 466Q142 513 121 543T81 590Q59 610 51 619T42 639Q42 652 63 665T115 687T175 696Q210 696 238 655T305 524L385 341L301 319L411 494Q437 535 442 566T449 615Q451 639 472 655T524 680T585 692T634 696Q655
696 655 678Q655 668 647 653T625 619L363 261L264 249ZM264 -8Q239 -8 229 7T219 59Q219 96 222 121L249 359L404 333L368 -8H264Z" />
<glyph unicode="Z" horiz-adv-x="558" d="M46 -10Q27 -10 18 12T9 54Q10 71 15 79T37 112Q114 225 179 316T300 486T403 643L440 603L165 562Q141 558 122 556T93 553Q79 553 71 560T62 586Q62 602 69 626T88 671T118 691Q142 691 197 686T338 680H530Q551 680
555 660T554 616T538 575Q482 486 420 397T295 218T176 40L100 70L448 138Q477 143 499 147T529 152Q546 152 546 128Q546 113 540 91T524 49T500 14T470 0H373Q293 0 230 -2T122 -7T46 -10Z" />
<glyph unicode="[" horiz-adv-x="361" d="M12 -170L102 680H217L127 -170H12ZM105 -170L106 -97H197Q238 -97 257 -113T269 -162Q266 -170 257 -170H105ZM170 607L169 680H321Q336 680 336 665Q336 637 319 622T261 607H170Z" />
<glyph unicode="\" horiz-adv-x="315" d="M161 623L273 -111Q276 -126 276 -133Q277 -154 264 -161T242 -169Q221 -169 200 -150T172 -93L46 665Q43 683 54 689T81 696Q108 696 132 675T161 623Z" />
<glyph unicode="]" horiz-adv-x="361" d="M353 680L263 -170H148L238 680H353ZM260 680L259 607H168Q128 607 109 623T96 672Q99 680 108 680H260ZM195 -97L196 -170H44Q29 -170 29 -155Q29 -127 46 -112T104 -97H195Z" />
<glyph unicode="^" horiz-adv-x="550" d="M130 196Q111 196 102 208T106 248L242 553Q263 600 284 622T333 644Q347 644 363 635T389 597L481 302Q484 293 484 284T484 267Q484 240 460 222T411 204Q395 204 391 211T381 241L302 573H341L217 257Q203 221 178
209T130 196Z" />
<glyph unicode="_" horiz-adv-x="599" d="M10 -89Q10 -78 17 -63T36 -37T65 -25H513Q525 -25 525 -41Q525 -62 510 -83T475 -105H21Q14 -105 12 -101T10 -89Z" />
<glyph unicode="`" horiz-adv-x="235" d="M-26 553L-155 698Q-161 705 -168 708T-188 712Q-203 712 -219 701T-247 673T-258 638Q-258 626 -251 620T-228 605L-76 523Q-68 519 -63 519T-50 518Q-38 518 -28 524T-17 539Q-17 543 -19 545T-26 553Z" />
<glyph unicode="a" horiz-adv-x="566" d="M143 -16Q87 -16 56 30T24 157Q24 230 47 291T111 396T203 465T309 490Q352 490 387 479T448 455L419 321Q393 339 361 358T299 391T248 405Q228 405 211 373T183 293T172 193Q172 149 177 120T195 90Q206 90 232 116T299
209T388 393L427 297Q373 177 324 109T231 12T143 -16ZM398 -10Q366 -10 355 4T344 40Q344 57 348 84T360 144T375 204L397 279L363 305L387 456Q419 461 448 469T501 483T535 489Q554 489 554 469Q554 460 542 425T515 337T494 217L472 -10H398Z" />
<glyph unicode="b" horiz-adv-x="557" d="M232 -16Q225 -16 201 -11T146 4T90 24L138 153Q155 134 178 115T227 82T275 69Q309 69 333 94T371 167T385 281Q385 325 380 354T362 384Q354 384 337 370T295 321T238 229T169 81L135 159Q188 286 235 358T327 460T414
490Q470 490 501 443T533 317Q533 220 495 145T389 27T232 -16ZM232 -16Q172 -16 126 -4T56 30T34 86L102 698H198Q223 698 239 673T255 620Q255 586 249 560T233 490L163 189L183 34L232 -16Z" />
<glyph unicode="c" horiz-adv-x="426" d="M198 -16Q116 -16 68 33T20 174Q20 264 58 336T162 449T312 491Q368 491 401 475T435 424Q435 408 427 388T408 353T383 338Q376 338 369 343T355 355Q346 364 330 377T295 401T258 411Q233 411 214 383T185 309T175 206Q175
151 190 121T241 90Q273 90 300 100T350 124Q359 130 368 135T385 141Q391 141 394 137T398 124Q398 106 385 82T345 36T282 -1T198 -16Z" />
<glyph unicode="d" horiz-adv-x="596" d="M143 -16Q87 -16 56 30T24 157Q24 230 47 291T111 396T203 465T309 490Q352 490 387 479T448 455L419 321Q392 339 361 358T299 391T248 405Q228 405 211 373T183 293T172 193Q172 149 181 122T203 95Q214 95 240 120T307
210T396 393L427 283Q374 163 325 98T231 9T143 -16ZM408 -14Q392 -14 380 0T361 33T354 66Q354 96 367 141T399 233L414 269L373 311L384 416L398 433L423 698H513Q530 698 542 686T562 656T570 620Q570 612 569 598T566 562T558 503L526 273Q521 234 515 180T504
74T498 -14H408Z" />
<glyph unicode="e" horiz-adv-x="462" d="M196 -16Q119 -16 70 32T20 166Q20 237 42 296T103 399T194 467T304 491Q368 491 412 462T456 376Q456 322 416 281T303 211T136 161L123 231Q171 237 211 253T278 297T306 359Q308 383 299 399T272 416Q250 416 228 387T190
310T175 206Q175 155 187 125T240 94Q281 94 319 110T383 143Q391 148 399 152T413 157Q420 157 424 152T428 138Q428 120 413 94T369 43T296 1T196 -16Z" />
<glyph unicode="f" horiz-adv-x="348" d="M49 -219Q31 -219 23 -209T15 -182Q15 -167 19 -135L92 471Q106 587 175 641T344 696Q394 696 419 683T444 638Q444 621 440 602T427 568T406 554Q398 554 382 569T347 600T306 616Q283 616 272 585T254 499L221 208Q214
149 209 89T199 -24Q196 -49 181 -82T144 -146T96 -198T49 -219ZM49 385Q42 385 39 390T38 402L55 450Q60 464 69 469T106 475H346Q359 475 354 459Q341 421 329 403T291 385H49Z" />
<glyph unicode="g" horiz-adv-x="561" d="M207 -221Q157 -221 114 -206T45 -158T19 -70Q19 -38 34 -38Q42 -38 53 -44T77 -57Q96 -68 127 -84T192 -111T253 -123Q264 -123 273 -119T291 -100T311 -51T335 42L396 313L378 337L379 465Q443 473 478 481T526 489Q550
489 550 468Q550 460 538 426T512 337T495 210L488 30Q485 -40 458 -88T390 -165T300 -208T207 -221ZM143 -16Q87 -16 56 30T24 157Q24 230 47 291T111 396T203 465T309 490Q352 490 387 479T448 455L419 321Q392 339 361 358T299 391T248 405Q228 405 211 373T183
293T172 193Q172 149 181 122T203 95Q214 95 240 120T307 210T396 393L427 283Q374 163 325 98T231 9T143 -16Z" />
<glyph unicode="h" horiz-adv-x="584" d="M389 -10Q375 -10 367 0T354 23T350 45Q350 59 352 81T357 127T363 170L380 270Q384 293 388 314T392 347Q392 356 388 363T375 371Q362 371 337 348T282 281T229 174T197 31L161 167Q202 283 253 354T355 457T447 490Q496
490 521 465T546 399Q546 375 543 352T535 303L487 -10H389ZM82 -14Q69 -14 60 -8T47 17T47 77L90 471Q96 528 105 584T117 698H212Q237 698 253 673T269 620Q269 598 266 580T259 541T247 492L179 199L210 240Q203 176 201 119T197 31Q196 18 174 8T126 -8T82
-14Z" />
<glyph unicode="i" horiz-adv-x="276" d="M86 -16Q67 -16 55 11T42 73Q42 96 43 116T49 170L85 491H187Q212 491 222 469T232 419Q232 405 230 390T224 342L205 179Q200 130 195 95T187 34T180 -16H86ZM174 524Q139 524 114 548T88 610Q88 656 117 681T186 707Q222
707 246 686T271 622Q271 580 242 552T174 524Z" />
<glyph unicode="j" horiz-adv-x="269" d="M-46 -221Q-71 -221 -93 -206T-130 -165T-144 -107Q-144 -93 -140 -84T-126 -74Q-118 -74 -110 -78T-89 -91Q-69 -103 -47 -113T-8 -124Q0 -124 6 -117T18 -88T29 -23T42 92L81 491H177Q202 491 214 475T231 437T235 400Q235
380 229 347T217 278T207 213L184 -1Q176 -75 140 -124T53 -197T-46 -221ZM168 524Q133 524 108 548T82 610Q82 656 111 681T180 707Q216 707 240 686T265 622Q265 580 236 552T168 524Z" />
<glyph unicode="k" horiz-adv-x="563" d="M409 -11Q385 -11 361 10T314 65T272 142T238 227Q234 239 229 256T224 289Q224 300 227 309T238 330Q258 362 290 391T361 444T438 480T506 493Q537 493 546 477T556 437Q556 415 550 393T534 357T511 343Q498 343 481
353T440 364Q391 364 358 344T306 291L319 347Q362 249 409 183T490 89Q509 74 521 67T533 49Q533 36 511 22T460 -1T409 -11ZM101 -14Q65 -14 53 4T42 59Q43 93 47 140T58 233L93 496Q98 534 91 560T76 606T67 646Q67 661 86 672T132 691T185 698Q223 698 239
675T256 623Q256 608 254 576T246 503L214 273Q204 201 199 126T188 -14H101Z" />
<glyph unicode="l" horiz-adv-x="286" d="M101 -14Q65 -14 53 4T42 59Q43 93 47 140T58 233L93 496Q98 534 91 560T76 606T67 646Q67 661 86 672T132 691T185 698Q223 698 239 675T256 623Q256 608 254 576T246 503L214 273Q204 201 199 126T188 -14H101Z" />
<glyph unicode="m" horiz-adv-x="882" d="M682 -10Q666 -10 658 4T647 36T644 62Q644 76 645 94T650 132T656 170L673 274Q676 294 680 315T685 350Q685 361 680 366T668 371Q655 371 629 348T575 281T524 175T495 36L451 175Q492 291 545 360T650 459T742 490Q778
490 799 477T830 442T839 400Q839 373 836 351T828 303L780 -10H682ZM64 -14Q51 -14 44 -10T35 14T38 75L85 491H183Q210 491 221 469T233 419Q233 406 222 379T198 321T176 267L150 185L206 191L189 32Q188 18 171 9T131 -5T89 -12T64 -14ZM367 -10Q346 -10 343
2T340 26Q340 46 342 77T355 170L372 274Q375 294 379 315T384 350Q384 361 379 366T367 371Q354 371 328 347T273 278T221 171T189 32L150 185Q180 272 218 330T296 424T374 474T441 490Q477 490 494 478T517 448T523 409Q523 387 512 353T485 275T451 175L507
191L495 36Q494 23 478 14T438 0T395 -8T367 -10Z" />
<glyph unicode="n" horiz-adv-x="581" d="M381 -10Q365 -10 357 4T346 36T343 62Q343 76 345 94T349 132T355 170L372 274Q375 294 379 315T384 350Q384 361 379 366T367 371Q354 371 328 347T273 278T221 171T189 32L150 185Q180 272 218 330T296 424T374 474T441
490Q477 490 498 477T529 442T538 400Q538 373 535 351T527 303L479 -10H381ZM64 -14Q51 -14 44 -10T35 14T38 75L85 491H183Q210 491 221 469T233 419Q233 406 222 379T198 321T176 267L150 185L206 191L189 32Q188 18 171 9T131 -5T89 -12T64 -14Z" />
<glyph unicode="o" horiz-adv-x="517" d="M222 -15Q125 -15 73 33T21 175Q21 243 42 300T101 401T189 467T296 491Q391 491 443 442T496 301Q496 233 475 176T417 75T330 9T222 -15ZM238 60Q266 60 289 89T326 169T341 290Q341 352 322 384T276 416Q249 416 226
387T190 307T176 186Q176 125 193 93T238 60Z" />
<glyph unicode="p" horiz-adv-x="554" d="M235 -16Q204 -16 164 -5T87 24L135 153Q152 134 180 115T239 82T292 69Q317 69 338 94T373 167T386 281Q386 325 382 352T365 380Q357 380 329 355T258 264T166 81L131 166Q187 293 235 363T327 461T411 490Q473 490
501 443T530 317Q530 220 492 145T388 27T235 -16ZM64 -219Q48 -219 38 -206T23 -174T18 -140Q18 -120 20 -92T27 -23L85 491H166Q183 491 195 479T215 451T223 419Q223 400 208 362T171 267L142 191H188L173 56L166 43L160 -219H64Z" />
<glyph unicode="q" horiz-adv-x="582" d="M143 -16Q87 -16 56 30T24 157Q24 230 47 291T111 396T203 465T309 490Q352 490 387 479T448 455L419 321Q392 344 362 363T304 393T257 405Q235 405 216 373T184 293T172 193Q172 149 181 122T203 95Q211 95 229 108T273
152T331 241T401 387L432 290Q379 170 329 104T233 11T143 -16ZM407 -219Q393 -219 377 -205T350 -166T339 -112Q339 -86 342 -62T350 -11L415 313L384 337L390 463Q454 471 490 480T540 489Q564 489 564 468Q564 460 553 428T529 339T509 203L498 56Q494 1 492
-73T487 -219H407Z" />
<glyph unicode="r" horiz-adv-x="417" d="M189 32L151 175Q188 271 226 341T304 451T385 490Q411 490 428 476T446 427Q446 404 440 381T423 343T397 328Q384 328 366 337T324 347Q309 347 290 324T250 258T213 159T189 32ZM64 -14Q51 -14 44 -10T35 14T38 75L85
491H183Q210 491 221 469T233 419Q233 406 223 379T200 321T180 267L156 185L206 191L189 32Q188 18 171 9T131 -5T89 -12T64 -14Z" />
<glyph unicode="s" horiz-adv-x="426" d="M178 -16Q94 -16 47 8T0 81Q0 114 9 132T30 151Q39 151 48 146T73 129Q90 117 114 103T163 79T209 69Q230 69 245 79T260 109Q260 123 252 134T220 159L144 204Q101 230 77 262T53 339Q53 407 103 448T257 490Q321 490
356 478T391 434Q391 402 381 378T353 354Q347 354 340 357T326 363Q315 368 297 379T260 399T222 408Q203 408 194 398T184 374Q184 359 192 348T229 326L296 299Q351 277 376 243T402 162Q402 105 371 65T289 5T178 -16Z" />
<glyph unicode="t" horiz-adv-x="347" d="M144 -16Q96 -16 68 12T48 100L86 385H60Q38 385 38 405Q38 417 52 439T90 487T139 536T188 574T225 589Q241 589 248 579T254 547L246 475H343Q358 475 360 470T359 454Q346 413 336 399T297 385H232L208 191Q206 172
205 155T203 124Q203 111 209 102T234 92Q257 92 274 102T301 112Q315 112 315 97Q315 84 304 65T272 28T218 -3T144 -16Z" />
<glyph unicode="u" horiz-adv-x="564" d="M135 -13Q96 -13 67 9T38 81Q38 96 38 109T41 141T48 193L86 491H176Q193 491 208 472T224 424Q224 403 221 369T212 294L199 207Q195 179 193 163T191 132Q191 122 193 114T205 105Q217 105 236 125T277 178T318 249T349
325T361 390Q361 413 356 428T351 454Q351 463 367 470T405 481T449 488T480 491Q501 491 513 471T522 414L475 -10H393Q380 -10 369 0T351 26T344 55Q344 78 352 105T373 174T405 282V265Q366 163 322 102T231 14T135 -13Z" />
<glyph unicode="v" horiz-adv-x="523" d="M198 -16Q152 -16 121 14T84 107L62 331Q60 354 56 377T44 415Q37 429 32 434T27 448Q27 456 41 463T77 477T120 487T157 491Q180 491 191 472T208 397L236 143Q239 114 243 102T258 90Q263 90 277 106T307 156T335 243T347
370Q347 394 341 407T334 430Q334 441 348 452T383 472T424 486T458 491Q473 491 488 483T503 441Q503 395 489 336T447 215T383 101T299 16T198 -16Z" />
<glyph unicode="w" horiz-adv-x="746" d="M472 -16Q426 -16 401 17T376 105Q375 121 375 138T377 197L335 198L331 306Q330 327 327 348T318 388T308 416Q301 431 296 436T291 450Q291 458 305 465T341 478T384 487T420 491Q445 491 459 474T477 397L497 133Q499
111 503 101T515 90Q530 90 546 124T574 214T586 334Q586 375 576 395T565 428Q565 439 580 450T616 470T657 485T688 491Q704 491 714 483T724 445Q724 343 701 259T639 113T557 18T472 -16ZM201 -16Q151 -16 120 16T81 133L63 331Q61 354 56 377T44 415Q37 429
32 434T27 448Q27 456 41 463T75 477T116 487T150 491Q170 491 186 472T209 397L233 171Q238 131 242 111T256 90Q266 90 284 114T316 186T331 306L391 231Q381 136 351 82T280 6T201 -16Z" />
<glyph unicode="x" horiz-adv-x="523" d="M56 -15Q31 -15 17 -2T-2 32T-7 73Q-7 91 0 97T18 103Q47 103 72 118T127 165T197 248L262 312Q302 387 335 425T398 477T455 490Q476 490 493 478T511 440Q511 423 506 404T493 371T474 357Q461 357 447 362T419 367Q393
367 366 341T315 274L224 165Q192 97 167 58T116 2T56 -15ZM356 -12Q331 -12 303 18T241 126L206 208L199 215L163 277Q140 317 125 339T99 376T77 401Q62 418 51 425T40 440Q40 451 60 463T109 483T166 492Q179 492 195 485T230 454T270 381L300 311L315 286L352
226Q381 179 400 151T432 107T455 80Q468 66 478 59T488 44Q488 31 473 21T436 4T392 -8T356 -12Z" />
<glyph unicode="y" horiz-adv-x="565" d="M182 -221Q120 -221 84 -203T33 -154T18 -83Q18 -63 26 -53T41 -42Q49 -42 55 -48T73 -63Q92 -75 118 -89T173 -113T228 -123Q243 -123 261 -111T298 -63T337 45L396 273H401Q366 175 321 112T225 18T120 -12Q78 -12 58
11T38 75Q38 95 40 119T49 194L86 491H176Q193 491 208 472T224 424Q224 410 223 390T219 346T212 294L199 207Q195 179 193 163T191 132Q191 122 193 114T205 105Q217 105 236 125T276 177T315 246T346 318T358 379Q358 396 357 415T356 445Q356 458 376 468T425
484T480 491Q501 491 511 471T518 414Q517 397 514 371T507 316L473 30Q465 -39 436 -87T366 -164T276 -207T182 -221Z" />
<glyph unicode="z" horiz-adv-x="488" d="M32 0Q23 0 19 7T15 33Q15 51 18 66T29 92Q59 136 95 183T169 271Q207 313 241 351T297 427L346 412L130 367Q116 364 97 363T67 361Q58 361 52 368T46 390Q46 404 52 428T69 471T95 491Q101 491 135 487T215 479T306
475H441Q453 475 461 470T470 453Q470 445 467 430T450 394Q426 358 394 319T321 235Q282 192 242 147T170 51L119 72L389 130Q409 135 419 137T434 139Q443 139 447 131T448 100Q440 51 431 26T401 0H32Z" />
<glyph unicode="{" horiz-adv-x="338" d="M9 253Q9 287 17 307T42 327Q55 327 72 322T113 306Q117 319 119 331T123 365T124 426V563Q124 615 150 643T220 684T314 696H347Q364 696 369 692T374 681Q374 668 362 654T329 635Q288 628 269 621T244 602T239 563L240
379Q240 336 220 310T169 270T104 252L133 290Q169 278 188 262T215 228T223 197Q223 179 220 165T215 143L180 -32Q179 -41 178 -49T176 -66Q176 -76 184 -87T233 -105Q262 -109 273 -123T285 -152Q285 -169 258 -169Q152 -169 105 -146T57 -71Q57 -63 58 -55T62
-30L98 154Q103 177 104 191T105 212Q105 217 105 222T104 231Q82 227 61 222T28 217Q16 217 13 229T9 253Z" />
<glyph unicode="|" horiz-adv-x="261" d="M205 582L146 -187Q145 -201 133 -211T107 -221Q89 -221 72 -205T56 -160L115 667Q117 685 128 690T151 696Q166 696 179 687T200 663T209 636Q209 621 208 608T205 582Z" />
<glyph unicode="}" horiz-adv-x="338" d="M334 274Q334 240 326 220T301 200Q288 200 271 205T230 221Q226 209 224 196T220 162T219 101V-36Q219 -87 193 -116T123 -157T29 -169H-4Q-21 -169 -26 -165T-31 -154Q-31 -141 -19 -127T14 -108Q56 -100 75 -94T99
-74T104 -36L103 148Q103 192 123 218T175 257T239 275L210 237Q174 250 155 266T128 299T120 330Q120 348 123 362T128 384L163 559Q165 568 166 576T167 593Q167 603 159 614T110 632Q82 637 70 651T58 679Q58 696 85 696Q191 696 238 673T286 598Q286 591 285
583T281 557L245 373Q241 350 240 336T238 315Q238 310 238 306T239 296Q261 301 283 305T315 310Q327 310 330 298T334 274Z" />
<glyph unicode="~" horiz-adv-x="550" d="M72 246Q72 280 88 311T132 364T190 385Q225 385 252 371T301 338T342 305T381 291Q402 291 412 301T432 342Q434 353 441 359T458 366Q469 366 485 359T501 327Q501 294 485 262T442 209T383 188Q348 188 321 202T273
235T232 268T192 282Q171 282 161 273T143 231Q140 220 135 214T116 207Q101 207 87 216T72 246Z" />
<glyph unicode="&#xa0;" horiz-adv-x="200" />
<glyph unicode="&#xa1;" horiz-adv-x="243" d="M153 -152Q152 -180 137 -195T100 -215T55 -221Q27 -221 8 -209T-12 -171Q-12 -166 -11 -160T-9 -145L34 46Q51 120 62 166T85 237T110 271T144 281Q151 281 159 277T166 258L153 -152ZM145 497Q180 497 205 473T231
411Q231 365 202 340T133 314Q97 314 73 335T48 399Q48 441 77 469T145 497Z" />
<glyph unicode="&#xa2;" horiz-adv-x="580" d="M257 -16Q165 -16 117 34T69 160Q69 235 97 295T173 400T280 467T402 491Q430 491 456 487T500 470T518 434Q518 403 504 379T474 354Q463 354 451 362Q440 369 425 380T391 400T352 409Q310 409 278 379T228 302T209
206Q209 152 232 123T298 93Q345 93 380 106T439 132Q458 143 468 143Q476 143 481 137T487 119Q487 94 459 62T379 7T257 -16ZM270 -218Q252 -218 236 -199T220 -156Q220 -135 223 -116T230 -78L348 661Q352 683 358 689T375 696Q393 696 406 685T427 658T434
629Q434 615 432 602T427 577L305 -163Q300 -193 291 -205T270 -218Z" />
<glyph unicode="&#xa3;" horiz-adv-x="580" d="M20 33Q31 45 41 62T61 108T75 186L94 381Q106 501 145 570T244 667T371 696Q463 696 506 674T550 606Q550 573 537 553T513 533Q502 533 487 542T458 558Q442 567 421 578T376 597T331 606Q298 606 283 583T260
506T245 362L232 220Q227 163 211 126T170 66T117 28L122 65L461 140Q472 142 481 143T495 144Q505 144 510 137T516 114Q516 88 505 62T476 18T435 0Q316 0 236 -2T108 -6T37 -9Q19 -9 13 4T20 33ZM489 388Q501 388 504 384T507 371Q507 358 499 340T473 309T428
295L36 286Q24 286 21 292T18 308Q18 318 25 334T47 363T86 377L489 388Z" />
<glyph unicode="&#xa4;" horiz-adv-x="580" d="M272 146Q219 146 181 169T122 231T102 318Q102 374 126 421T196 496T302 524Q359 524 396 501T452 440T471 354Q471 297 446 250T376 174T272 146ZM61 107Q44 122 47 144T66 183L157 269L222 210L132 121Q108 98
91 97T61 107ZM492 93Q479 83 462 85T422 112L349 195L407 261L492 169Q507 153 508 130T492 93ZM279 237Q322 237 348 266T375 345Q375 386 355 410T292 435Q250 435 224 404T198 329Q198 288 218 263T279 237ZM167 408L78 505Q72 513 69 528T69 561T82 588Q92
598 107 594T145 565L229 470L167 408ZM429 411L371 477L461 566Q485 589 501 592T526 584Q536 573 537 556T535 524T524 501L429 411Z" />
<glyph unicode="&#xa5;" horiz-adv-x="580" d="M245 261L143 466Q120 513 100 543T60 590Q38 610 30 619T21 639Q21 648 33 658T65 676T108 690T154 696Q180 696 202 679T246 623T288 524L350 341L266 319L369 494Q394 536 403 566T414 615Q416 639 437 655T489
680T550 692T599 696Q620 696 620 678Q620 668 612 653T590 619L328 261H245ZM217 -8Q192 -8 182 7T172 59Q172 96 175 121L202 359L357 333L321 -8H217ZM52 137Q40 137 37 143T34 159Q34 169 41 182T63 207T102 218L489 227Q501 227 504 223T507 210Q507 190 492
168T435 144L52 137ZM75 257Q63 257 60 263T57 279Q57 289 64 302T86 327T125 338L512 347Q524 347 527 343T530 330Q530 310 515 288T458 264L75 257Z" />
<glyph unicode="&#xa6;" horiz-adv-x="259" d="M202 582L181 313Q180 299 170 289T143 279Q123 279 108 298T95 350L115 669Q116 684 127 690T149 696Q164 696 177 687T198 663T206 634Q206 621 205 608T202 582ZM165 82L144 -187Q143 -201 133 -211T106 -221Q86
-221 71 -202T58 -150L78 169Q79 184 90 190T112 196Q127 196 140 187T161 163T169 134Q169 121 168 108T165 82Z" />
<glyph unicode="&#xa7;" horiz-adv-x="479" d="M-2 -76Q-2 -48 8 -27T31 -5Q35 -5 42 -7T65 -21Q99 -43 136 -60T211 -78Q246 -78 261 -61T277 -17Q277 3 263 22T219 57L137 104Q89 132 66 165T43 245Q43 290 67 322T130 374T207 397L196 380Q147 409 115 442T82
533Q82 604 140 649T302 695Q376 695 416 681T456 638Q456 623 450 605T433 573T413 559Q408 559 401 561T388 567Q378 571 359 581T315 599T266 608Q239 608 226 593T213 554Q213 534 226 517T270 484L341 447Q395 419 429 383T464 294Q464 249 439 216T375 165T295
143L302 164Q352 140 388 105T425 15Q425 -45 390 -86T300 -148T186 -170Q134 -170 92 -160T24 -129T-2 -76ZM169 273Q169 250 187 234T249 199Q281 199 300 218T320 262Q320 282 308 298T267 328Q218 327 194 312T169 273Z" />
<glyph unicode="&#xa8;" horiz-adv-x="250" d="M135 536Q106 536 85 555T64 607Q64 645 88 666T145 688Q175 688 195 670T216 617Q216 582 192 559T135 536ZM-64 536Q-93 536 -114 555T-135 607Q-135 645 -111 666T-54 688Q-24 688 -4 670T17 617Q17 582 -7 559T-64 536Z" />
<glyph unicode="&#xa9;" horiz-adv-x="809" d="M375 -25Q277 -25 201 14T82 125T39 296Q39 384 70 459T156 589T287 676T450 707Q554 707 630 666T749 551T791 378Q791 288 760 214T673 87T540 4T375 -25ZM394 115Q342 115 299 137T230 201T204 306Q204 385 241
444T338 536T468 569Q524 569 551 552T578 494Q578 477 571 463T553 448Q547 448 541 451T525 462Q512 471 492 483T445 495Q391 495 361 451T331 317Q331 251 354 221T412 191Q433 191 452 201T488 224T518 248T540 258Q548 258 552 250T557 231Q557 207 537 180T480
134T394 115ZM383 55Q475 55 543 95T650 204T688 362Q688 437 661 496T580 591T442 626Q373 626 317 601T221 531T160 428T138 304Q138 231 167 175T251 87T383 55Z" />
<glyph unicode="&#xaa;" horiz-adv-x="479" d="M150 279Q104 279 78 317T52 421Q52 501 85 563T172 660T286 695Q321 695 351 686T401 666L377 556Q356 571 330 587T278 614T236 625Q220 625 206 599T183 533T174 451Q174 415 178 391T193 366Q202 366 223 388T278
464T351 615L383 536Q339 437 299 381T222 302T150 279ZM360 284Q333 284 324 295T315 325Q315 345 323 385T341 460L359 522L331 543L351 667Q389 673 424 683T472 694Q488 694 488 678Q488 670 478 641T456 569T438 471L420 284H360Z" />
<glyph unicode="&#xab;" horiz-adv-x="561" d="M321 440V440Q309 440 293 433T266 417L44 269Q34 262 28 256T22 240Q22 230 27 225T37 215L202 69Q219 54 229 48T250 42Q262 42 278 53T305 79T317 104Q317 110 315 116T301 129L153 239L211 281Q258 315 288 338T332
379T347 416Q347 426 341 433T321 440ZM531 440V440Q519 440 503 433T476 417L254 269Q244 262 238 256T232 240Q232 230 237 225T247 215L412 69Q429 54 439 48T460 42Q472 42 488 53T515 79T527 104Q527 110 525 116T511 129L363 239L421 281Q468 315 498 338T542
379T557 416Q557 426 551 433T531 440Z" />
<glyph unicode="&#xac;" horiz-adv-x="550" d="M420 91Q440 91 464 109T492 164L514 388Q515 396 512 400T496 405L123 396Q89 395 70 380T43 347T35 318Q35 306 41 301T63 295L403 302L389 163Q388 156 386 139T384 114Q384 102 394 97T420 91Z" />
<glyph unicode="&#xad;" horiz-adv-x="348" d="M255 297Q294 299 301 299T309 299Q321 299 327 294T333 278Q333 264 327 247T305 216T260 202L76 195Q75 195 73 195T69 195Q59 195 54 202T49 222Q49 243 67 266T123 291L255 297Z" />
<glyph unicode="&#xae;" horiz-adv-x="572" d="M280 183Q210 183 156 213T71 296T40 413Q40 470 62 522T124 614T217 677T333 701Q407 701 461 669T544 584T574 467Q574 389 536 325T431 222T280 183ZM287 250Q350 250 394 276T463 350T487 456Q487 507 471 547T419
611T327 635Q265 635 220 605T151 526T127 417Q127 368 145 330T199 271T287 250ZM188 328Q188 340 189 346L205 488Q207 502 207 513T205 529Q201 534 199 538T196 547Q196 558 225 570T293 583H308Q373 583 406 561T440 503Q440 471 407 446T326 414L329 438H352Q370
401 388 382T413 357Q423 350 430 348T437 340Q437 334 428 326T404 312T372 305Q352 305 335 327T298 395Q293 408 290 417T287 432Q287 439 292 442T303 447Q328 455 338 469T348 499Q348 519 335 533T293 548L277 394Q275 369 276 362T281 349Q286 342 286 338Q286
333 276 324T251 308T217 300Q202 300 195 307T188 328Z" />
<glyph unicode="&#xaf;" horiz-adv-x="208" d="M-269 631Q-267 646 -254 646H-11Q6 646 4 631L-3 581Q-5 566 -18 566H-262Q-279 566 -277 581L-269 631Z" />
<glyph unicode="&#xb0;" horiz-adv-x="422" d="M197 342Q147 342 109 363T51 421T30 505Q30 561 54 605T123 674T227 700Q281 700 318 679T373 622T392 539Q392 482 367 438T297 368T197 342ZM199 417Q240 417 267 447T295 532Q295 576 273 601T216 627Q177 627
152 595T126 514Q126 469 149 443T199 417Z" />
<glyph unicode="&#xb1;" horiz-adv-x="578" d="M496 136Q509 136 512 131T515 117Q515 102 508 84T485 54T439 40L48 34Q35 34 32 40T29 58Q29 69 36 85T59 114T101 127L496 136ZM514 384Q527 384 531 379T535 365Q535 350 528 331T503 298T457 283L75 275Q62
275 58 281T54 299Q54 310 61 327T85 359T128 373L514 384ZM359 426L336 224Q333 197 320 181T292 157T266 149Q255 149 245 152T234 169Q234 177 236 196T239 223L259 430Q262 460 275 477T304 502T335 509Q343 509 353 506T364 489Q364 479 363 465T359 426Z"
/>
<glyph unicode="&#xb2;" horiz-adv-x="373" d="M49 341L122 405Q174 450 210 491T246 573Q246 594 235 606T204 618Q178 618 155 603T121 581Q108 572 98 566T79 559Q68 559 60 578T52 619Q52 641 75 658T135 685T215 696Q255 696 292 687T353 654T377 587Q377
550 360 519T312 461T242 404L116 311L109 329L337 397Q348 400 357 402T372 404Q375 404 378 401T382 391Q382 380 379 361T368 323T350 290T324 277H258Q234 277 202 276T137 274T82 272T53 271Q43 271 38 280T33 299Q33 311 36 322T49 341Z" />
<glyph unicode="&#xb3;" horiz-adv-x="397" d="M271 494L277 512Q302 507 329 494T374 460T393 412Q393 369 363 338T284 291T176 274Q123 274 93 287T51 320T39 361Q39 378 43 389T57 400Q66 400 86 388T133 363T192 350Q233 350 249 368T266 414Q266 440 253
457T226 481H268Q254 473 234 466T196 454T167 449Q149 449 137 469T125 510Q125 535 143 535Q160 535 187 532T239 525T274 520L234 507Q248 518 255 540T262 579Q262 600 250 611T211 622Q192 622 172 615T133 599Q121 594 114 591T100 587Q94 587 87 598T79
630Q79 654 99 668T153 689T224 696Q292 696 335 673T379 607Q379 576 362 555T320 519T271 494Z" />
<glyph unicode="&#xb4;" horiz-adv-x="200" d="M-259 555Q-268 547 -268 541Q-268 533 -258 527T-235 520Q-227 520 -222 521T-209 525L-32 600Q-17 607 -10 614T-2 637Q-2 653 -11 671T-35 701T-64 714Q-78 714 -94 700L-259 555Z" />
<glyph unicode="&#xb5;" horiz-adv-x="538" d="M15 -144Q15 -131 15 -117T18 -84T22 -43L85 491H170Q190 491 200 472T210 424Q210 403 206 366T196 294L192 270Q187 238 184 211T181 163Q181 131 186 113T202 95Q214 95 233 116T272 171T310 246T339 324T351
390Q351 413 346 427T340 451Q340 463 359 472T403 486T449 491Q466 491 483 471T496 414L449 -10H359Q347 -10 340 2T331 31T328 55Q328 78 340 113T374 219Q335 129 307 77T256 3T209 -20Q181 -20 156 12T131 122L132 111L163 -219H79Q51 -219 33 -199T15 -144Z"
/>
<glyph unicode="&#xb6;" horiz-adv-x="676" d="M37 283Q37 373 71 448T168 579T313 665T494 696Q516 696 543 694T599 689T653 684T695 682Q711 682 711 665Q711 650 689 633T636 605T576 596L624 652L575 208Q568 149 563 89T553 -24Q550 -53 533 -86T492 -150T443
-200T400 -219Q370 -219 370 -188Q370 -167 373 -142L469 659L493 610Q403 610 340 569T244 454T210 283Q210 185 243 127T326 46Q353 34 363 29T373 13Q373 2 356 -7T313 -16Q234 -16 172 16T73 115T37 283Z" />
<glyph unicode="&#xb7;" horiz-adv-x="222" d="M108 169Q73 169 48 193T22 255Q22 301 51 326T120 352Q156 352 180 331T205 267Q205 225 176 197T108 169Z" />
<glyph unicode="&#xb8;" horiz-adv-x="221" d="M-285 17Q-283 27 -278 31T-267 36L-238 42Q-229 44 -225 40T-223 26L-250 -83L-266 -35Q-206 -35 -169 -57T-132 -119Q-132 -149 -150 -170T-198 -203T-262 -220T-328 -226Q-341 -226 -346 -220T-351 -206Q-351
-190 -343 -179T-322 -167Q-290 -163 -265 -154T-240 -125Q-240 -117 -247 -114T-277 -106Q-292 -104 -299 -96T-307 -75Q-307 -69 -306 -63T-302 -48L-285 17Z" />
<glyph unicode="&#xb9;" horiz-adv-x="365" d="M26 284Q26 299 58 317T144 351L172 576L96 568Q80 567 75 571T69 584Q69 598 87 615T149 651L222 683Q237 690 250 693T276 696Q295 696 298 681T296 629L265 368L322 382Q333 384 339 385T350 387Q358 387 362
380T367 359Q367 350 362 331T348 296T326 279H181Q156 279 125 278T71 274T43 272Q26 272 26 284Z" />
<glyph unicode="&#xba;" horiz-adv-x="444" d="M219 282Q140 282 97 321T54 437Q54 511 84 569T165 662T279 696Q357 696 400 656T443 540Q443 466 414 408T333 316T219 282ZM232 343Q266 343 291 394T316 531Q316 582 301 608T263 635Q241 635 222 612T192 546T181
446Q181 396 195 370T232 343Z" />
<glyph unicode="&#xbb;" horiz-adv-x="561" d="M241 46V46Q253 46 269 54T296 69L518 217Q529 224 534 230T540 246Q540 256 535 261T525 271L360 417Q344 432 334 438T312 444Q300 444 285 433T257 407T245 382Q245 376 248 371T261 357L409 247L351 205Q305
172 275 149T230 107T215 70Q215 60 221 53T241 46ZM31 46V46Q43 46 59 54T86 69L308 217Q319 224 324 230T330 246Q330 256 325 261T315 271L150 417Q134 432 124 438T102 444Q90 444 75 433T47 407T35 382Q35 376 38 371T51 357L199 247L141 205Q95 172 65 149T20
107T5 70Q5 60 11 53T31 46Z" />
<glyph unicode="&#xbc;" horiz-adv-x="852" d="M26 284Q26 299 58 317T144 351L172 576L96 568Q80 567 75 571T69 584Q69 598 87 615T149 651L222 683Q237 690 250 693T276 696Q295 696 298 681T296 629L265 368L322 382Q333 384 339 385T350 387Q358 387 362
380T367 359Q367 350 362 331T348 296T326 279H181Q156 279 125 278T71 274T43 272Q26 272 26 284ZM685 583L270 10Q260 -3 255 -10T236 -18Q223 -18 211 -2T198 28Q198 41 206 55T227 88L643 672Q652 685 657 689T670 693Q688 693 699 674T711 642Q711 623 702
609T685 583ZM484 125Q485 135 489 145T501 163L683 371Q706 397 719 401T752 406H799Q817 406 823 401T829 378Q829 356 827 333T819 267L789 -13H698Q682 -13 682 24Q682 49 684 76T689 126L715 373L754 349L549 105L530 146H758Q797 146 828 152T867 158Q882
158 882 143Q882 129 869 113T836 84T799 72L519 71Q494 71 487 75T481 96L484 125Z" />
<glyph unicode="&#xbd;" horiz-adv-x="940" d="M26 284Q26 299 58 317T144 351L172 576L96 568Q80 567 75 571T69 584Q69 598 87 615T149 651L222 683Q237 690 250 693T276 696Q295 696 298 681T296 629L265 368L322 382Q333 384 339 385T350 387Q358 387 362
380T367 359Q367 350 362 331T348 296T326 279H181Q156 279 125 278T71 274T43 272Q26 272 26 284ZM685 583L270 10Q260 -3 255 -10T236 -18Q223 -18 211 -2T198 28Q198 41 206 55T227 88L643 672Q652 685 657 689T670 693Q688 693 699 674T711 642Q711 623 702
609T685 583ZM575 64L648 128Q700 173 736 214T772 296Q772 317 761 329T730 341Q704 341 681 326T647 304Q634 295 624 289T605 282Q594 282 586 301T578 342Q578 364 601 381T661 408T741 419Q781 419 818 410T879 377T903 310Q903 273 886 242T838 184T768 127L642
34L635 52L863 120Q874 123 883 125T898 127Q901 127 904 124T908 114Q908 103 905 84T894 46T876 13T850 0H784Q760 0 728 -1T663 -3T608 -5T579 -6Q569 -6 564 3T559 22Q559 34 562 45T575 64Z" />
<glyph unicode="&#xbe;" horiz-adv-x="836" d="M271 494L277 512Q302 507 329 494T374 460T393 412Q393 369 363 338T284 291T176 274Q123 274 93 287T51 320T39 361Q39 378 43 389T57 400Q66 400 86 388T133 363T192 350Q233 350 249 368T266 414Q266 440 253
457T226 481H268Q254 473 234 466T196 454T167 449Q149 449 137 469T125 510Q125 535 143 535Q160 535 187 532T239 525T274 520L234 507Q248 518 255 540T262 579Q262 600 250 611T211 622Q192 622 172 615T133 599Q121 594 114 591T100 587Q94 587 87 598T79
630Q79 654 99 668T153 689T224 696Q292 696 335 673T379 607Q379 576 362 555T320 519T271 494ZM689 586L274 13Q264 0 259 -7T240 -15Q227 -15 215 1T202 31Q202 44 210 58T231 91L647 675Q656 688 661 692T674 696Q692 696 703 677T715 645Q715 626 706 612T689
586ZM468 128Q469 138 473 148T485 166L667 374Q690 400 703 404T736 409H783Q801 409 807 404T813 381Q813 359 811 336T803 270L773 -10H682Q666 -10 666 27Q666 52 668 79T673 129L699 376L738 352L533 108L514 149H742Q781 149 812 155T851 161Q866 161 866
146Q866 132 853 116T820 87T783 75L503 74Q478 74 471 78T465 99L468 128Z" />
<glyph unicode="&#xbf;" horiz-adv-x="419" d="M-17 -81Q-17 -33 7 5T71 72T153 121T232 156L146 82Q169 163 183 206T215 265T259 281Q281 281 288 273T295 251L289 145Q288 122 280 112T245 85Q189 48 166 15T143 -65Q143 -102 158 -119T202 -137Q237 -137 262
-122T305 -91T336 -75Q350 -75 360 -97T370 -140Q370 -174 323 -197T194 -221Q92 -221 38 -181T-17 -81ZM256 497Q291 497 316 473T342 411Q342 365 313 340T244 314Q208 314 184 335T159 399Q159 441 188 469T256 497Z" />
<glyph unicode="&#xc0;" horiz-adv-x="674" d="M12 -14Q-15 -14 -15 3Q-15 11 -7 29L288 624Q298 645 323 661T381 686T450 696Q464 696 473 690T485 665Q502 550 527 442T583 222Q597 175 607 146T627 102Q638 87 646 78T655 59Q655 48 639 36T598 12T549 -5T510
-12Q485 -12 462 27T416 170L329 587L377 599L187 189Q174 161 169 142T162 108T158 72Q156 53 137 38T92 11T44 -7T12 -14ZM144 190V280H516V190H144ZM499 758L370 903Q364 910 357 913T337 917Q322 917 306 906T278 878T267 843Q267 831 274 825T297 810L449
728Q457 724 462 724T475 723Q487 723 497 729T508 744Q508 748 506 750T499 758Z" />
<glyph unicode="&#xc1;" horiz-adv-x="674" d="M12 -14Q-15 -14 -15 3Q-15 11 -7 29L288 624Q298 645 323 661T381 686T450 696Q464 696 473 690T485 665Q502 550 527 442T583 222Q597 175 607 146T627 102Q638 87 646 78T655 59Q655 48 639 36T598 12T549 -5T510
-12Q485 -12 462 27T416 170L329 587L377 599L187 189Q174 161 169 142T162 108T158 72Q156 53 137 38T92 11T44 -7T12 -14ZM144 190V280H516V190H144ZM260 760Q251 752 251 746Q251 738 261 732T284 725Q292 725 297 726T310 730L487 805Q502 812 509 819T517
842Q517 858 508 876T484 906T455 919Q441 919 425 905L260 760Z" />
<glyph unicode="&#xc2;" horiz-adv-x="674" d="M12 -14Q-15 -14 -15 3Q-15 11 -7 29L288 624Q298 645 323 661T381 686T450 696Q464 696 473 690T485 665Q502 550 527 442T583 222Q597 175 607 146T627 102Q638 87 646 78T655 59Q655 48 639 36T598 12T549 -5T510
-12Q485 -12 462 27T416 170L329 587L377 599L187 189Q174 161 169 142T162 108T158 72Q156 53 137 38T92 11T44 -7T12 -14ZM144 190V280H516V190H144ZM224 761V761Q217 754 220 747T233 739L285 733Q293 732 299 736T310 745L384 821L445 746Q450 741 457 734T478
728L531 730Q545 731 548 739T547 754L472 868Q459 888 442 895T402 902Q380 902 363 895T337 879L224 761Z" />
<glyph unicode="&#xc3;" horiz-adv-x="674" d="M12 -14Q-15 -14 -15 3Q-15 11 -7 29L288 624Q298 645 323 661T381 686T450 696Q464 696 473 690T485 665Q502 550 527 442T583 222Q597 175 607 146T627 102Q638 87 646 78T655 59Q655 48 639 36T598 12T549 -5T510
-12Q485 -12 462 27T416 170L329 587L377 599L187 189Q174 161 169 142T162 108T158 72Q156 53 137 38T92 11T44 -7T12 -14ZM144 190V280H516V190H144ZM239 786Q239 810 248 834T276 874T319 890Q336 890 357 882T400 862T439 842T464 833Q474 833 478 842T486
866Q489 877 494 881T507 885Q524 885 538 880T552 857Q552 828 541 802T511 758T468 741Q441 741 415 755T366 783T328 797Q321 797 316 793T305 771Q302 760 298 755T281 749Q268 749 254 757T239 786Z" />
<glyph unicode="&#xc4;" horiz-adv-x="674" d="M12 -14Q-15 -14 -15 3Q-15 11 -7 29L288 624Q298 645 323 661T381 686T450 696Q464 696 473 690T485 665Q502 550 527 442T583 222Q597 175 607 146T627 102Q638 87 646 78T655 59Q655 48 639 36T598 12T549 -5T510
-12Q485 -12 462 27T416 170L329 587L377 599L187 189Q174 161 169 142T162 108T158 72Q156 53 137 38T92 11T44 -7T12 -14ZM144 190V280H516V190H144ZM488 741Q459 741 438 760T417 812Q417 850 441 871T498 893Q528 893 548 875T569 822Q569 787 545 764T488
741ZM289 741Q260 741 239 760T218 812Q218 850 242 871T299 893Q329 893 349 875T370 822Q370 787 346 764T289 741Z" />
<glyph unicode="&#xc5;" horiz-adv-x="674" d="M12 -14Q-15 -14 -15 3Q-15 11 -7 29L288 624Q298 645 323 661T381 686T450 696Q464 696 473 690T485 665Q502 550 527 442T583 222Q597 175 607 146T627 102Q638 87 646 78T655 59Q655 48 639 36T598 12T549 -5T510
-12Q485 -12 462 27T416 170L329 587L377 599L187 189Q174 161 169 142T162 108T158 72Q156 53 137 38T92 11T44 -7T12 -14ZM144 190V280H516V190H144ZM389 723Q341 723 313 751T285 818Q285 859 315 889T395 920Q442 920 469 892T497 826Q497 784 467 754T389
723ZM390 785Q405 785 415 796T425 824Q425 841 416 849T393 858Q378 858 368 849T357 820Q357 805 366 795T390 785Z" />
<glyph unicode="&#xc6;" horiz-adv-x="918" d="M3 -14Q-25 -14 -25 3Q-25 13 -6 38L427 608Q453 642 490 661T583 680L543 588L243 189Q214 150 200 114T179 50Q173 28 151 16T99 -3T43 -12T3 -14ZM224 190V280H573V190H224ZM480 -12Q462 -12 453 10T443 59Q443
98 452 186L502 680H676Q744 680 789 683T860 689T897 692Q908 692 918 689T929 670Q929 652 920 626T896 579T867 558Q857 558 830 564T773 575L661 595L616 179Q614 155 614 133T617 89L806 132Q824 136 842 140T868 145Q885 145 885 118Q885 100 876 72T850
22T811 0H766Q654 0 580 -6T480 -12ZM567 305L580 402H628Q671 402 706 405T766 411T796 414Q810 414 816 406T822 388Q822 373 805 354T758 322T685 307L567 305Z" />
<glyph unicode="&#xc7;" horiz-adv-x="626" d="M336 -16Q251 -16 184 17T77 118T37 283Q37 373 68 448T154 579T285 665T450 696Q538 696 584 677T631 602Q631 574 619 553T592 531Q583 531 564 542T532 562Q508 578 479 594T413 611Q353 611 309 574T240 467T215
301Q215 222 233 171T284 95T361 70Q399 70 429 86T484 125T527 163T565 180Q580 180 588 170T596 143Q596 99 561 63T466 5T336 -16ZM280 17Q282 27 287 31T298 36L327 42Q336 44 340 40T342 26L315 -83L299 -35Q359 -35 396 -57T433 -119Q433 -149 415 -170T367
-203T303 -220T237 -226Q224 -226 219 -220T214 -206Q214 -190 222 -179T243 -167Q275 -163 300 -154T325 -125Q325 -117 318 -114T288 -106Q273 -104 266 -96T258 -75Q258 -69 259 -63T263 -48L280 17Z" />
<glyph unicode="&#xc8;" horiz-adv-x="524" d="M86 -12Q68 -12 59 10T49 59Q49 98 58 186L108 680H282Q350 680 395 683T466 689T503 692Q514 692 524 689T535 670Q535 652 526 626T502 579T473 558Q463 558 436 564T379 575L267 595L222 179Q220 155 220 133T223
89L412 132Q430 136 448 140T474 145Q491 145 491 118Q491 100 482 72T456 22T417 0H372Q260 0 186 -6T86 -12ZM173 305L186 402H234Q277 402 312 405T372 411T402 414Q416 414 422 406T428 388Q428 373 411 354T364 322T291 307L173 305ZM427 758L298 903Q292
910 285 913T265 917Q250 917 234 906T206 878T195 843Q195 831 202 825T225 810L377 728Q385 724 390 724T403 723Q415 723 425 729T436 744Q436 748 434 750T427 758Z" />
<glyph unicode="&#xc9;" horiz-adv-x="524" d="M86 -12Q68 -12 59 10T49 59Q49 98 58 186L108 680H282Q350 680 395 683T466 689T503 692Q514 692 524 689T535 670Q535 652 526 626T502 579T473 558Q463 558 436 564T379 575L267 595L222 179Q220 155 220 133T223
89L412 132Q430 136 448 140T474 145Q491 145 491 118Q491 100 482 72T456 22T417 0H372Q260 0 186 -6T86 -12ZM173 305L186 402H234Q277 402 312 405T372 411T402 414Q416 414 422 406T428 388Q428 373 411 354T364 322T291 307L173 305ZM188 760Q179 752 179
746Q179 738 189 732T212 725Q220 725 225 726T238 730L415 805Q430 812 437 819T445 842Q445 858 436 876T412 906T383 919Q369 919 353 905L188 760Z" />
<glyph unicode="&#xca;" horiz-adv-x="524" d="M86 -12Q68 -12 59 10T49 59Q49 98 58 186L108 680H282Q350 680 395 683T466 689T503 692Q514 692 524 689T535 670Q535 652 526 626T502 579T473 558Q463 558 436 564T379 575L267 595L222 179Q220 155 220 133T223
89L412 132Q430 136 448 140T474 145Q491 145 491 118Q491 100 482 72T456 22T417 0H372Q260 0 186 -6T86 -12ZM173 305L186 402H234Q277 402 312 405T372 411T402 414Q416 414 422 406T428 388Q428 373 411 354T364 322T291 307L173 305ZM152 761V761Q145 754
148 747T161 739L213 733Q221 732 227 736T238 745L312 821L373 746Q378 741 385 734T406 728L459 730Q473 731 476 739T475 754L400 868Q387 888 370 895T330 902Q308 902 291 895T265 879L152 761Z" />
<glyph unicode="&#xcb;" horiz-adv-x="524" d="M86 -12Q68 -12 59 10T49 59Q49 98 58 186L108 680H282Q350 680 395 683T466 689T503 692Q514 692 524 689T535 670Q535 652 526 626T502 579T473 558Q463 558 436 564T379 575L267 595L222 179Q220 155 220 133T223
89L412 132Q430 136 448 140T474 145Q491 145 491 118Q491 100 482 72T456 22T417 0H372Q260 0 186 -6T86 -12ZM173 305L186 402H234Q277 402 312 405T372 411T402 414Q416 414 422 406T428 388Q428 373 411 354T364 322T291 307L173 305ZM416 741Q387 741 366
760T345 812Q345 850 369 871T426 893Q456 893 476 875T497 822Q497 787 473 764T416 741ZM217 741Q188 741 167 760T146 812Q146 850 170 871T227 893Q257 893 277 875T298 822Q298 787 274 764T217 741Z" />
<glyph unicode="&#xcc;" horiz-adv-x="289" d="M111 -8Q88 -8 74 8T55 47T49 94Q49 127 53 158T62 234L110 696H204Q239 696 253 681T268 638Q268 614 266 593T261 542T252 466L202 -8H111ZM310 758L181 903Q175 910 168 913T148 917Q133 917 117 906T89 878T78
843Q78 831 85 825T108 810L260 728Q268 724 273 724T286 723Q298 723 308 729T319 744Q319 748 317 750T310 758Z" />
<glyph unicode="&#xcd;" horiz-adv-x="289" d="M111 -8Q88 -8 74 8T55 47T49 94Q49 127 53 158T62 234L110 696H204Q239 696 253 681T268 638Q268 614 266 593T261 542T252 466L202 -8H111ZM71 760Q62 752 62 746Q62 738 72 732T95 725Q103 725 108 726T121 730L298
805Q313 812 320 819T328 842Q328 858 319 876T295 906T266 919Q252 919 236 905L71 760Z" />
<glyph unicode="&#xce;" horiz-adv-x="289" d="M111 -8Q88 -8 74 8T55 47T49 94Q49 127 53 158T62 234L110 696H204Q239 696 253 681T268 638Q268 614 266 593T261 542T252 466L202 -8H111ZM35 761V761Q28 754 31 747T44 739L96 733Q104 732 110 736T121 745L195
821L256 746Q261 741 268 734T289 728L342 730Q356 731 359 739T358 754L283 868Q270 888 253 895T213 902Q191 902 174 895T148 879L35 761Z" />
<glyph unicode="&#xcf;" horiz-adv-x="289" d="M111 -8Q88 -8 74 8T55 47T49 94Q49 127 53 158T62 234L110 696H204Q239 696 253 681T268 638Q268 614 266 593T261 542T252 466L202 -8H111ZM299 741Q270 741 249 760T228 812Q228 850 252 871T309 893Q339 893
359 875T380 822Q380 787 356 764T299 741ZM100 741Q71 741 50 760T29 812Q29 850 53 871T110 893Q140 893 160 875T181 822Q181 787 157 764T100 741Z" />
<glyph unicode="&#xd0;" horiz-adv-x="704" d="M26 311Q16 311 11 317T6 330Q6 359 28 383T81 407L372 406Q386 406 390 403T394 390Q394 379 388 360T369 326T336 311H26ZM91 -8Q73 -8 64 12T54 59Q54 98 63 186L113 680Q167 685 230 687T340 690Q504 690 596
614T688 400Q688 284 638 194T490 52T252 0Q212 0 168 -4T91 -8ZM226 86Q316 86 379 125T476 232T510 388Q510 491 459 550T297 609H272L227 170Q226 153 226 131T226 86Z" />
<glyph unicode="&#xd1;" horiz-adv-x="671" d="M69 -12Q53 -12 48 3T43 39Q43 74 47 113T55 191L110 695L216 696Q231 696 247 692T277 664Q325 580 377 497T477 339T558 201L508 172L530 387Q538 464 538 511T533 584T524 626T519 654Q519 664 531 671T560 684T595
691T622 694Q641 694 651 674T661 634Q661 617 658 595T649 524L635 392Q625 298 622 239T618 144T619 87T621 46Q621 35 606 25T567 6T520 -6T477 -11Q459 -11 454 -2T449 23Q450 36 442 56T422 99T401 137Q369 195 324 262T232 402T145 550L197 552L170 293Q163
224 162 180T164 109T171 69T178 47T182 28Q182 17 168 10T135 -3T97 -10T69 -12ZM240 786Q240 810 249 834T277 874T320 890Q337 890 358 882T401 862T440 842T465 833Q475 833 479 842T487 866Q490 877 495 881T508 885Q525 885 539 880T553 857Q553 828 542
802T512 758T469 741Q442 741 416 755T367 783T329 797Q322 797 317 793T306 771Q303 760 299 755T282 749Q269 749 255 757T240 786Z" />
<glyph unicode="&#xd2;" horiz-adv-x="750" d="M344 -16Q253 -16 184 17T77 118T38 283Q38 376 67 452T150 582T275 666T428 696Q571 696 652 621T734 398Q734 304 705 228T622 98T498 14T344 -16ZM357 64Q399 64 433 86T493 151T532 250T546 378Q546 457 530
510T484 589T410 616Q355 616 314 577T249 466T226 302Q226 223 242 170T287 91T357 64ZM543 758L414 903Q408 910 401 913T381 917Q366 917 350 906T322 878T311 843Q311 831 318 825T341 810L493 728Q501 724 506 724T519 723Q531 723 541 729T552 744Q552 748
550 750T543 758Z" />
<glyph unicode="&#xd3;" horiz-adv-x="750" d="M344 -16Q253 -16 184 17T77 118T38 283Q38 376 67 452T150 582T275 666T428 696Q571 696 652 621T734 398Q734 304 705 228T622 98T498 14T344 -16ZM357 64Q399 64 433 86T493 151T532 250T546 378Q546 457 530
510T484 589T410 616Q355 616 314 577T249 466T226 302Q226 223 242 170T287 91T357 64ZM304 760Q295 752 295 746Q295 738 305 732T328 725Q336 725 341 726T354 730L531 805Q546 812 553 819T561 842Q561 858 552 876T528 906T499 919Q485 919 469 905L304 760Z"
/>
<glyph unicode="&#xd4;" horiz-adv-x="750" d="M344 -16Q253 -16 184 17T77 118T38 283Q38 376 67 452T150 582T275 666T428 696Q571 696 652 621T734 398Q734 304 705 228T622 98T498 14T344 -16ZM357 64Q399 64 433 86T493 151T532 250T546 378Q546 457 530
510T484 589T410 616Q355 616 314 577T249 466T226 302Q226 223 242 170T287 91T357 64ZM268 761V761Q261 754 264 747T277 739L329 733Q337 732 343 736T354 745L428 821L489 746Q494 741 501 734T522 728L575 730Q589 731 592 739T591 754L516 868Q503 888 486
895T446 902Q424 902 407 895T381 879L268 761Z" />
<glyph unicode="&#xd5;" horiz-adv-x="750" d="M344 -16Q253 -16 184 17T77 118T38 283Q38 376 67 452T150 582T275 666T428 696Q571 696 652 621T734 398Q734 304 705 228T622 98T498 14T344 -16ZM357 64Q399 64 433 86T493 151T532 250T546 378Q546 457 530
510T484 589T410 616Q355 616 314 577T249 466T226 302Q226 223 242 170T287 91T357 64ZM283 786Q283 810 292 834T320 874T363 890Q380 890 401 882T444 862T483 842T508 833Q518 833 522 842T530 866Q533 877 538 881T551 885Q568 885 582 880T596 857Q596 828
585 802T555 758T512 741Q485 741 459 755T410 783T372 797Q365 797 360 793T349 771Q346 760 342 755T325 749Q312 749 298 757T283 786Z" />
<glyph unicode="&#xd6;" horiz-adv-x="750" d="M344 -16Q253 -16 184 17T77 118T38 283Q38 376 67 452T150 582T275 666T428 696Q571 696 652 621T734 398Q734 304 705 228T622 98T498 14T344 -16ZM357 64Q399 64 433 86T493 151T532 250T546 378Q546 457 530
510T484 589T410 616Q355 616 314 577T249 466T226 302Q226 223 242 170T287 91T357 64ZM532 741Q503 741 482 760T461 812Q461 850 485 871T542 893Q572 893 592 875T613 822Q613 787 589 764T532 741ZM333 741Q304 741 283 760T262 812Q262 850 286 871T343 893Q373
893 393 875T414 822Q414 787 390 764T333 741Z" />
<glyph unicode="&#xd7;" horiz-adv-x="550" d="M159 479L452 170Q470 152 470 132T461 96T445 72Q438 65 431 64T412 74L120 379Q91 409 94 436T115 479Q124 487 136 488T159 479ZM401 484Q412 495 423 496T445 487Q462 472 464 446T438 390L139 84Q123 67 111
73T90 86Q78 98 75 120T98 170L401 484Z" />
<glyph unicode="&#xd8;" horiz-adv-x="750" d="M218 -84Q208 -84 187 -74T161 -46Q154 -25 172 18L496 763Q498 768 503 777T517 787Q535 787 552 772T574 745Q579 732 575 718T561 682L232 -71Q230 -75 227 -79T218 -84ZM344 -16Q253 -16 184 17T77 118T38 283Q38
376 67 452T150 582T275 666T428 696Q571 696 652 621T734 398Q734 304 705 228T622 98T498 14T344 -16ZM357 64Q399 64 433 86T493 151T532 250T546 378Q546 457 530 510T484 589T410 616Q355 616 314 577T249 466T226 302Q226 223 242 170T287 91T357 64Z" />
<glyph unicode="&#xd9;" horiz-adv-x="675" d="M329 -16Q227 -16 165 10T77 91T60 226L109 695H220Q237 695 253 686T269 649Q269 625 267 601T260 545T251 466L229 262Q218 160 245 117T353 74Q390 74 421 88T475 137T503 230L524 424Q530 480 529 517T522 578T513
619T508 649Q508 662 527 672T573 689T619 696Q635 696 645 685T660 659T665 630Q665 613 662 585T655 524L624 238Q614 140 577 85T477 7T329 -16ZM512 758L383 903Q377 910 370 913T350 917Q335 917 319 906T291 878T280 843Q280 831 287 825T310 810L462 728Q470
724 475 724T488 723Q500 723 510 729T521 744Q521 748 519 750T512 758Z" />
<glyph unicode="&#xda;" horiz-adv-x="675" d="M329 -16Q227 -16 165 10T77 91T60 226L109 695H220Q237 695 253 686T269 649Q269 625 267 601T260 545T251 466L229 262Q218 160 245 117T353 74Q390 74 421 88T475 137T503 230L524 424Q530 480 529 517T522 578T513
619T508 649Q508 662 527 672T573 689T619 696Q635 696 645 685T660 659T665 630Q665 613 662 585T655 524L624 238Q614 140 577 85T477 7T329 -16ZM273 760Q264 752 264 746Q264 738 274 732T297 725Q305 725 310 726T323 730L500 805Q515 812 522 819T530 842Q530
858 521 876T497 906T468 919Q454 919 438 905L273 760Z" />
<glyph unicode="&#xdb;" horiz-adv-x="675" d="M329 -16Q227 -16 165 10T77 91T60 226L109 695H220Q237 695 253 686T269 649Q269 625 267 601T260 545T251 466L229 262Q218 160 245 117T353 74Q390 74 421 88T475 137T503 230L524 424Q530 480 529 517T522 578T513
619T508 649Q508 662 527 672T573 689T619 696Q635 696 645 685T660 659T665 630Q665 613 662 585T655 524L624 238Q614 140 577 85T477 7T329 -16ZM237 761V761Q230 754 233 747T246 739L298 733Q306 732 312 736T323 745L397 821L458 746Q463 741 470 734T491
728L544 730Q558 731 561 739T560 754L485 868Q472 888 455 895T415 902Q393 902 376 895T350 879L237 761Z" />
<glyph unicode="&#xdc;" horiz-adv-x="675" d="M329 -16Q227 -16 165 10T77 91T60 226L109 695H220Q237 695 253 686T269 649Q269 625 267 601T260 545T251 466L229 262Q218 160 245 117T353 74Q390 74 421 88T475 137T503 230L524 424Q530 480 529 517T522 578T513
619T508 649Q508 662 527 672T573 689T619 696Q635 696 645 685T660 659T665 630Q665 613 662 585T655 524L624 238Q614 140 577 85T477 7T329 -16ZM501 741Q472 741 451 760T430 812Q430 850 454 871T511 893Q541 893 561 875T582 822Q582 787 558 764T501 741ZM302
741Q273 741 252 760T231 812Q231 850 255 871T312 893Q342 893 362 875T383 822Q383 787 359 764T302 741Z" />
<glyph unicode="&#xdd;" horiz-adv-x="619" d="M264 249L164 466Q142 513 121 543T81 590Q59 610 51 619T42 639Q42 652 63 665T115 687T175 696Q210 696 238 655T305 524L385 341L301 319L411 494Q437 535 442 566T449 615Q451 639 472 655T524 680T585 692T634
696Q655 696 655 678Q655 668 647 653T625 619L363 261L264 249ZM264 -8Q239 -8 229 7T219 59Q219 96 222 121L249 359L404 333L368 -8H264ZM237 760Q228 752 228 746Q228 738 238 732T261 725Q269 725 274 726T287 730L464 805Q479 812 486 819T494 842Q494 858
485 876T461 906T432 919Q418 919 402 905L237 760Z" />
<glyph unicode="&#xde;" horiz-adv-x="590" d="M311 132Q292 132 275 141T248 164T237 189Q237 200 244 204T259 210Q304 220 337 241T389 296T407 378Q407 437 365 459T250 486L243 572H295Q444 572 509 531T575 394Q575 335 548 287T478 204T391 151T311 132ZM111
-8Q88 -8 74 8T55 47T49 94Q49 127 53 158T62 234L110 696H204Q239 696 253 681T268 638Q268 614 266 593T261 542T252 466L202 -8H111Z" />
<glyph unicode="&#xdf;" horiz-adv-x="648" d="M60 -221Q45 -221 36 -209T26 -180Q26 -159 29 -134L102 471Q112 548 152 598T250 672T373 696Q463 696 514 663T565 573Q565 543 545 513T484 454L431 418Q424 414 413 401T401 371Q401 358 410 347T444 324L512
294Q562 272 593 241T624 159Q624 100 594 61T513 3T401 -16Q320 -16 279 9T237 85Q237 108 244 129T264 150Q268 150 273 148T292 137Q321 118 359 99T430 79Q447 79 461 90T475 118Q475 129 467 139T433 166L371 206Q331 232 303 265T274 344Q274 372 289 400T335
455L359 475Q389 501 399 516T410 553Q410 574 399 587T371 608T334 615Q296 615 281 584T260 499L227 208Q220 149 215 89T205 -24Q202 -53 187 -87T151 -151T105 -201T60 -221ZM49 388Q42 388 39 393T38 405L51 441Q58 461 66 468T105 475H159L161 388H49Z" />
<glyph unicode="&#xe0;" horiz-adv-x="566" d="M143 -16Q87 -16 56 30T24 157Q24 230 47 291T111 396T203 465T309 490Q352 490 387 479T448 455L419 321Q393 339 361 358T299 391T248 405Q228 405 211 373T183 293T172 193Q172 149 177 120T195 90Q206 90 232
116T299 209T388 393L427 297Q373 177 324 109T231 12T143 -16ZM398 -10Q366 -10 355 4T344 40Q344 57 348 84T360 144T375 204L397 279L363 305L387 456Q419 461 448 469T501 483T535 489Q554 489 554 469Q554 460 542 425T515 337T494 217L472 -10H398ZM421 553L292
698Q286 705 279 708T259 712Q244 712 228 701T200 673T189 638Q189 626 196 620T219 605L371 523Q379 519 384 519T397 518Q409 518 419 524T430 539Q430 543 428 545T421 553Z" />
<glyph unicode="&#xe1;" horiz-adv-x="566" d="M143 -16Q87 -16 56 30T24 157Q24 230 47 291T111 396T203 465T309 490Q352 490 387 479T448 455L419 321Q393 339 361 358T299 391T248 405Q228 405 211 373T183 293T172 193Q172 149 177 120T195 90Q206 90 232
116T299 209T388 393L427 297Q373 177 324 109T231 12T143 -16ZM398 -10Q366 -10 355 4T344 40Q344 57 348 84T360 144T375 204L397 279L363 305L387 456Q419 461 448 469T501 483T535 489Q554 489 554 469Q554 460 542 425T515 337T494 217L472 -10H398ZM182 555Q173
547 173 541Q173 533 183 527T206 520Q214 520 219 521T232 525L409 600Q424 607 431 614T439 637Q439 653 430 671T406 701T377 714Q363 714 347 700L182 555Z" />
<glyph unicode="&#xe2;" horiz-adv-x="566" d="M143 -16Q87 -16 56 30T24 157Q24 230 47 291T111 396T203 465T309 490Q352 490 387 479T448 455L419 321Q393 339 361 358T299 391T248 405Q228 405 211 373T183 293T172 193Q172 149 177 120T195 90Q206 90 232
116T299 209T388 393L427 297Q373 177 324 109T231 12T143 -16ZM398 -10Q366 -10 355 4T344 40Q344 57 348 84T360 144T375 204L397 279L363 305L387 456Q419 461 448 469T501 483T535 489Q554 489 554 469Q554 460 542 425T515 337T494 217L472 -10H398ZM146 556V556Q139
549 142 542T155 534L207 528Q215 527 221 531T232 540L306 616L367 541Q372 536 379 529T400 523L453 525Q467 526 470 534T469 549L394 663Q381 683 364 690T324 697Q302 697 285 690T259 674L146 556Z" />
<glyph unicode="&#xe3;" horiz-adv-x="566" d="M143 -16Q87 -16 56 30T24 157Q24 230 47 291T111 396T203 465T309 490Q352 490 387 479T448 455L419 321Q393 339 361 358T299 391T248 405Q228 405 211 373T183 293T172 193Q172 149 177 120T195 90Q206 90 232
116T299 209T388 393L427 297Q373 177 324 109T231 12T143 -16ZM398 -10Q366 -10 355 4T344 40Q344 57 348 84T360 144T375 204L397 279L363 305L387 456Q419 461 448 469T501 483T535 489Q554 489 554 469Q554 460 542 425T515 337T494 217L472 -10H398ZM161 581Q161
605 170 629T198 669T241 685Q258 685 279 677T322 657T361 637T386 628Q396 628 400 637T408 661Q411 672 416 676T429 680Q446 680 460 675T474 652Q474 623 463 597T433 553T390 536Q363 536 337 550T288 578T250 592Q243 592 238 588T227 566Q224 555 220 550T203
544Q190 544 176 552T161 581Z" />
<glyph unicode="&#xe4;" horiz-adv-x="566" d="M143 -16Q87 -16 56 30T24 157Q24 230 47 291T111 396T203 465T309 490Q352 490 387 479T448 455L419 321Q393 339 361 358T299 391T248 405Q228 405 211 373T183 293T172 193Q172 149 177 120T195 90Q206 90 232
116T299 209T388 393L427 297Q373 177 324 109T231 12T143 -16ZM398 -10Q366 -10 355 4T344 40Q344 57 348 84T360 144T375 204L397 279L363 305L387 456Q419 461 448 469T501 483T535 489Q554 489 554 469Q554 460 542 425T515 337T494 217L472 -10H398ZM410 536Q381
536 360 555T339 607Q339 645 363 666T420 688Q450 688 470 670T491 617Q491 582 467 559T410 536ZM211 536Q182 536 161 555T140 607Q140 645 164 666T221 688Q251 688 271 670T292 617Q292 582 268 559T211 536Z" />
<glyph unicode="&#xe5;" horiz-adv-x="566" d="M143 -16Q87 -16 56 30T24 157Q24 230 47 291T111 396T203 465T309 490Q352 490 387 479T448 455L419 321Q393 339 361 358T299 391T248 405Q228 405 211 373T183 293T172 193Q172 149 177 120T195 90Q206 90 232
116T299 209T388 393L427 297Q373 177 324 109T231 12T143 -16ZM398 -10Q366 -10 355 4T344 40Q344 57 348 84T360 144T375 204L397 279L363 305L387 456Q419 461 448 469T501 483T535 489Q554 489 554 469Q554 460 542 425T515 337T494 217L472 -10H398ZM311 518Q263
518 235 546T207 613Q207 654 237 684T317 715Q364 715 391 687T419 621Q419 579 389 549T311 518ZM312 580Q327 580 337 591T347 619Q347 636 338 644T315 653Q300 653 290 644T279 615Q279 600 288 590T312 580Z" />
<glyph unicode="&#xe6;" horiz-adv-x="728" d="M143 -16Q75 -16 43 16T11 98Q11 151 38 185T115 240T229 269T372 281L344 196Q265 191 225 182T171 159T157 128Q157 111 166 103T188 95Q216 95 237 116T274 169T297 235T305 296Q305 335 302 360T286 396T245
408Q216 408 189 395T150 377Q145 375 138 373T124 370Q110 370 99 391T88 432Q88 455 111 468T172 487T254 493Q304 493 345 476T410 426T433 349L389 388Q415 436 464 465T581 494Q652 494 687 462T722 376Q722 298 642 247T409 190L396 275Q455 275 497 285T561
315T584 365Q584 385 573 395T545 406Q515 406 493 380T458 308T446 206Q446 184 451 159T471 117T516 99Q554 99 590 113T651 144Q668 155 675 155Q684 155 688 148T692 133Q692 115 677 90T632 41T561 1T466 -16Q388 -16 350 25T309 133L346 152Q343 112 324
81T275 29T211 -4T143 -16Z" />
<glyph unicode="&#xe7;" horiz-adv-x="426" d="M198 -16Q116 -16 68 33T20 174Q20 264 58 336T162 449T312 491Q368 491 401 475T435 424Q435 408 427 388T408 353T383 338Q376 338 369 343T355 355Q346 364 330 377T295 401T258 411Q233 411 214 383T185 309T175
206Q175 151 190 121T241 90Q273 90 300 100T350 124Q359 130 368 135T385 141Q391 141 394 137T398 124Q398 106 385 82T345 36T282 -1T198 -16ZM156 17Q158 27 163 31T174 36L203 42Q212 44 216 40T218 26L191 -83L175 -35Q235 -35 272 -57T309 -119Q309 -149
291 -170T243 -203T179 -220T113 -226Q100 -226 95 -220T90 -206Q90 -190 98 -179T119 -167Q151 -163 176 -154T201 -125Q201 -117 194 -114T164 -106Q149 -104 142 -96T134 -75Q134 -69 135 -63T139 -48L156 17Z" />
<glyph unicode="&#xe8;" horiz-adv-x="462" d="M196 -16Q119 -16 70 32T20 166Q20 237 42 296T103 399T194 467T304 491Q368 491 412 462T456 376Q456 322 416 281T303 211T136 161L123 231Q171 237 211 253T278 297T306 359Q308 383 299 399T272 416Q250 416
228 387T190 310T175 206Q175 155 187 125T240 94Q281 94 319 110T383 143Q391 148 399 152T413 157Q420 157 424 152T428 138Q428 120 413 94T369 43T296 1T196 -16ZM385 553L256 698Q250 705 243 708T223 712Q208 712 192 701T164 673T153 638Q153 626 160 620T183
605L335 523Q343 519 348 519T361 518Q373 518 383 524T394 539Q394 543 392 545T385 553Z" />
<glyph unicode="&#xe9;" horiz-adv-x="462" d="M196 -16Q119 -16 70 32T20 166Q20 237 42 296T103 399T194 467T304 491Q368 491 412 462T456 376Q456 322 416 281T303 211T136 161L123 231Q171 237 211 253T278 297T306 359Q308 383 299 399T272 416Q250 416
228 387T190 310T175 206Q175 155 187 125T240 94Q281 94 319 110T383 143Q391 148 399 152T413 157Q420 157 424 152T428 138Q428 120 413 94T369 43T296 1T196 -16ZM146 555Q137 547 137 541Q137 533 147 527T170 520Q178 520 183 521T196 525L373 600Q388 607
395 614T403 637Q403 653 394 671T370 701T341 714Q327 714 311 700L146 555Z" />
<glyph unicode="&#xea;" horiz-adv-x="462" d="M196 -16Q119 -16 70 32T20 166Q20 237 42 296T103 399T194 467T304 491Q368 491 412 462T456 376Q456 322 416 281T303 211T136 161L123 231Q171 237 211 253T278 297T306 359Q308 383 299 399T272 416Q250 416
228 387T190 310T175 206Q175 155 187 125T240 94Q281 94 319 110T383 143Q391 148 399 152T413 157Q420 157 424 152T428 138Q428 120 413 94T369 43T296 1T196 -16ZM110 556V556Q103 549 106 542T119 534L171 528Q179 527 185 531T196 540L270 616L331 541Q336
536 343 529T364 523L417 525Q431 526 434 534T433 549L358 663Q345 683 328 690T288 697Q266 697 249 690T223 674L110 556Z" />
<glyph unicode="&#xeb;" horiz-adv-x="462" d="M196 -16Q119 -16 70 32T20 166Q20 237 42 296T103 399T194 467T304 491Q368 491 412 462T456 376Q456 322 416 281T303 211T136 161L123 231Q171 237 211 253T278 297T306 359Q308 383 299 399T272 416Q250 416
228 387T190 310T175 206Q175 155 187 125T240 94Q281 94 319 110T383 143Q391 148 399 152T413 157Q420 157 424 152T428 138Q428 120 413 94T369 43T296 1T196 -16ZM343 536Q314 536 293 555T272 607Q272 645 296 666T353 688Q383 688 403 670T424 617Q424 582
400 559T343 536ZM144 536Q115 536 94 555T73 607Q73 645 97 666T154 688Q184 688 204 670T225 617Q225 582 201 559T144 536Z" />
<glyph unicode="&#xec;" horiz-adv-x="276" d="M86 -16Q67 -16 55 11T42 73Q42 96 43 116T49 170L85 491H187Q212 491 222 469T232 419Q232 405 230 390T224 342L205 179Q200 130 195 95T187 34T180 -16H86ZM279 553L150 698Q144 705 137 708T117 712Q102 712
86 701T58 673T47 638Q47 626 54 620T77 605L229 523Q237 519 242 519T255 518Q267 518 277 524T288 539Q288 543 286 545T279 553Z" />
<glyph unicode="&#xed;" horiz-adv-x="276" d="M86 -16Q67 -16 55 11T42 73Q42 96 43 116T49 170L85 491H187Q212 491 222 469T232 419Q232 405 230 390T224 342L205 179Q200 130 195 95T187 34T180 -16H86ZM40 555Q31 547 31 541Q31 533 41 527T64 520Q72 520
77 521T90 525L267 600Q282 607 289 614T297 637Q297 653 288 671T264 701T235 714Q221 714 205 700L40 555Z" />
<glyph unicode="&#xee;" horiz-adv-x="276" d="M86 -16Q67 -16 55 11T42 73Q42 96 43 116T49 170L85 491H187Q212 491 222 469T232 419Q232 405 230 390T224 342L205 179Q200 130 195 95T187 34T180 -16H86ZM4 556V556Q-3 549 0 542T13 534L65 528Q73 527 79 531T90
540L164 616L225 541Q230 536 237 529T258 523L311 525Q325 526 328 534T327 549L252 663Q239 683 222 690T182 697Q160 697 143 690T117 674L4 556Z" />
<glyph unicode="&#xef;" horiz-adv-x="276" d="M86 -16Q67 -16 55 11T42 73Q42 96 43 116T49 170L85 491H187Q212 491 222 469T232 419Q232 405 230 390T224 342L205 179Q200 130 195 95T187 34T180 -16H86ZM253 536Q224 536 203 555T182 607Q182 645 206 666T263
688Q293 688 313 670T334 617Q334 582 310 559T253 536ZM54 536Q25 536 4 555T-17 607Q-17 645 7 666T64 688Q94 688 114 670T135 617Q135 582 111 559T54 536Z" />
<glyph unicode="&#xf0;" horiz-adv-x="489" d="M208 -15Q150 -15 103 5T29 71T2 190Q2 256 24 311T83 406T164 469T251 491Q279 491 313 485T380 470T439 452L372 345Q340 362 301 382T227 402Q202 402 188 377T168 306T162 201Q162 75 228 75Q257 75 276 97T306
158T322 249T327 360Q327 428 318 476T284 556T212 608T90 640Q79 642 72 645T64 657Q64 668 80 675T123 687T176 692Q257 692 316 665T412 592T468 491T487 382Q487 251 451 163T351 30T208 -15ZM107 491Q95 487 91 492T84 508Q80 522 90 539T137 567L464 666Q476
670 480 666T486 654Q491 635 481 617T431 587L107 491Z" />
<glyph unicode="&#xf1;" horiz-adv-x="581" d="M381 -10Q365 -10 357 4T346 36T343 62Q343 76 345 94T349 132T355 170L372 274Q375 294 379 315T384 350Q384 361 379 366T367 371Q354 371 328 347T273 278T221 171T189 32L150 185Q180 272 218 330T296 424T374
474T441 490Q477 490 498 477T529 442T538 400Q538 373 535 351T527 303L479 -10H381ZM64 -14Q51 -14 44 -10T35 14T38 75L85 491H183Q210 491 221 469T233 419Q233 406 222 379T198 321T176 267L150 185L206 191L189 32Q188 18 171 9T131 -5T89 -12T64 -14ZM188
581Q188 605 197 629T225 669T268 685Q285 685 306 677T349 657T388 637T413 628Q423 628 427 637T435 661Q438 672 443 676T456 680Q473 680 487 675T501 652Q501 623 490 597T460 553T417 536Q390 536 364 550T315 578T277 592Q270 592 265 588T254 566Q251 555
247 550T230 544Q217 544 203 552T188 581Z" />
<glyph unicode="&#xf2;" horiz-adv-x="517" d="M222 -15Q125 -15 73 33T21 175Q21 243 42 300T101 401T189 467T296 491Q391 491 443 442T496 301Q496 233 475 176T417 75T330 9T222 -15ZM238 60Q266 60 289 89T326 169T341 290Q341 352 322 384T276 416Q249 416
226 387T190 307T176 186Q176 125 193 93T238 60ZM405 553L276 698Q270 705 263 708T243 712Q228 712 212 701T184 673T173 638Q173 626 180 620T203 605L355 523Q363 519 368 519T381 518Q393 518 403 524T414 539Q414 543 412 545T405 553Z" />
<glyph unicode="&#xf3;" horiz-adv-x="517" d="M222 -15Q125 -15 73 33T21 175Q21 243 42 300T101 401T189 467T296 491Q391 491 443 442T496 301Q496 233 475 176T417 75T330 9T222 -15ZM238 60Q266 60 289 89T326 169T341 290Q341 352 322 384T276 416Q249 416
226 387T190 307T176 186Q176 125 193 93T238 60ZM166 555Q157 547 157 541Q157 533 167 527T190 520Q198 520 203 521T216 525L393 600Q408 607 415 614T423 637Q423 653 414 671T390 701T361 714Q347 714 331 700L166 555Z" />
<glyph unicode="&#xf4;" horiz-adv-x="517" d="M222 -15Q125 -15 73 33T21 175Q21 243 42 300T101 401T189 467T296 491Q391 491 443 442T496 301Q496 233 475 176T417 75T330 9T222 -15ZM238 60Q266 60 289 89T326 169T341 290Q341 352 322 384T276 416Q249 416
226 387T190 307T176 186Q176 125 193 93T238 60ZM130 556V556Q123 549 126 542T139 534L191 528Q199 527 205 531T216 540L290 616L351 541Q356 536 363 529T384 523L437 525Q451 526 454 534T453 549L378 663Q365 683 348 690T308 697Q286 697 269 690T243 674L130
556Z" />
<glyph unicode="&#xf5;" horiz-adv-x="517" d="M222 -15Q125 -15 73 33T21 175Q21 243 42 300T101 401T189 467T296 491Q391 491 443 442T496 301Q496 233 475 176T417 75T330 9T222 -15ZM238 60Q266 60 289 89T326 169T341 290Q341 352 322 384T276 416Q249 416
226 387T190 307T176 186Q176 125 193 93T238 60ZM145 581Q145 605 154 629T182 669T225 685Q242 685 263 677T306 657T345 637T370 628Q380 628 384 637T392 661Q395 672 400 676T413 680Q430 680 444 675T458 652Q458 623 447 597T417 553T374 536Q347 536 321
550T272 578T234 592Q227 592 222 588T211 566Q208 555 204 550T187 544Q174 544 160 552T145 581Z" />
<glyph unicode="&#xf6;" horiz-adv-x="517" d="M222 -15Q125 -15 73 33T21 175Q21 243 42 300T101 401T189 467T296 491Q391 491 443 442T496 301Q496 233 475 176T417 75T330 9T222 -15ZM238 60Q266 60 289 89T326 169T341 290Q341 352 322 384T276 416Q249 416
226 387T190 307T176 186Q176 125 193 93T238 60ZM394 536Q365 536 344 555T323 607Q323 645 347 666T404 688Q434 688 454 670T475 617Q475 582 451 559T394 536ZM195 536Q166 536 145 555T124 607Q124 645 148 666T205 688Q235 688 255 670T276 617Q276 582 252
559T195 536Z" />
<glyph unicode="&#xf7;" horiz-adv-x="550" d="M529 337Q541 337 544 333T547 320Q547 307 540 289T516 258T471 244L71 236Q59 236 56 242T53 258Q53 268 61 284T86 313T128 327L529 337ZM288 365Q256 365 233 386T210 443Q210 485 237 508T299 532Q332 532 354
512T376 454Q376 416 350 391T288 365ZM274 32Q242 32 219 53T196 110Q196 152 223 175T285 199Q318 199 340 179T362 121Q362 83 336 58T274 32Z" />
<glyph unicode="&#xf8;" horiz-adv-x="489" d="M95 -169Q88 -172 77 -164T61 -146Q54 -124 72 -82L378 613Q382 622 388 623Q394 625 406 617T422 597Q429 576 409 532L105 -157Q102 -166 95 -169ZM222 -15Q125 -15 73 33T21 175Q21 243 42 300T101 401T189 467T296
491Q391 491 443 442T496 301Q496 233 475 176T417 75T330 9T222 -15ZM238 60Q266 60 289 89T326 169T341 290Q341 352 322 384T276 416Q249 416 226 387T190 307T176 186Q176 125 193 93T238 60Z" />
<glyph unicode="&#xf9;" horiz-adv-x="564" d="M135 -13Q96 -13 67 9T38 81Q38 96 38 109T41 141T48 193L86 491H176Q193 491 208 472T224 424Q224 403 221 369T212 294L199 207Q195 179 193 163T191 132Q191 122 193 114T205 105Q217 105 236 125T277 178T318
249T349 325T361 390Q361 413 356 428T351 454Q351 463 367 470T405 481T449 488T480 491Q501 491 513 471T522 414L475 -10H393Q380 -10 369 0T351 26T344 55Q344 78 352 105T373 174T405 282V265Q366 163 322 102T231 14T135 -13ZM418 553L289 698Q283 705 276
708T256 712Q241 712 225 701T197 673T186 638Q186 626 193 620T216 605L368 523Q376 519 381 519T394 518Q406 518 416 524T427 539Q427 543 425 545T418 553Z" />
<glyph unicode="&#xfa;" horiz-adv-x="564" d="M135 -13Q96 -13 67 9T38 81Q38 96 38 109T41 141T48 193L86 491H176Q193 491 208 472T224 424Q224 403 221 369T212 294L199 207Q195 179 193 163T191 132Q191 122 193 114T205 105Q217 105 236 125T277 178T318
249T349 325T361 390Q361 413 356 428T351 454Q351 463 367 470T405 481T449 488T480 491Q501 491 513 471T522 414L475 -10H393Q380 -10 369 0T351 26T344 55Q344 78 352 105T373 174T405 282V265Q366 163 322 102T231 14T135 -13ZM179 555Q170 547 170 541Q170
533 180 527T203 520Q211 520 216 521T229 525L406 600Q421 607 428 614T436 637Q436 653 427 671T403 701T374 714Q360 714 344 700L179 555Z" />
<glyph unicode="&#xfb;" horiz-adv-x="564" d="M135 -13Q96 -13 67 9T38 81Q38 96 38 109T41 141T48 193L86 491H176Q193 491 208 472T224 424Q224 403 221 369T212 294L199 207Q195 179 193 163T191 132Q191 122 193 114T205 105Q217 105 236 125T277 178T318
249T349 325T361 390Q361 413 356 428T351 454Q351 463 367 470T405 481T449 488T480 491Q501 491 513 471T522 414L475 -10H393Q380 -10 369 0T351 26T344 55Q344 78 352 105T373 174T405 282V265Q366 163 322 102T231 14T135 -13ZM143 556V556Q136 549 139 542T152
534L204 528Q212 527 218 531T229 540L303 616L364 541Q369 536 376 529T397 523L450 525Q464 526 467 534T466 549L391 663Q378 683 361 690T321 697Q299 697 282 690T256 674L143 556Z" />
<glyph unicode="&#xfc;" horiz-adv-x="564" d="M135 -13Q96 -13 67 9T38 81Q38 96 38 109T41 141T48 193L86 491H176Q193 491 208 472T224 424Q224 403 221 369T212 294L199 207Q195 179 193 163T191 132Q191 122 193 114T205 105Q217 105 236 125T277 178T318
249T349 325T361 390Q361 413 356 428T351 454Q351 463 367 470T405 481T449 488T480 491Q501 491 513 471T522 414L475 -10H393Q380 -10 369 0T351 26T344 55Q344 78 352 105T373 174T405 282V265Q366 163 322 102T231 14T135 -13ZM407 536Q378 536 357 555T336
607Q336 645 360 666T417 688Q447 688 467 670T488 617Q488 582 464 559T407 536ZM208 536Q179 536 158 555T137 607Q137 645 161 666T218 688Q248 688 268 670T289 617Q289 582 265 559T208 536Z" />
<glyph unicode="&#xfd;" horiz-adv-x="565" d="M182 -221Q120 -221 84 -203T33 -154T18 -83Q18 -63 26 -53T41 -42Q49 -42 55 -48T73 -63Q92 -75 118 -89T173 -113T228 -123Q243 -123 261 -111T298 -63T337 45L396 273H401Q366 175 321 112T225 18T120 -12Q78
-12 58 11T38 75Q38 95 40 119T49 194L86 491H176Q193 491 208 472T224 424Q224 410 223 390T219 346T212 294L199 207Q195 179 193 163T191 132Q191 122 193 114T205 105Q217 105 236 125T276 177T315 246T346 318T358 379Q358 396 357 415T356 445Q356 458 376
468T425 484T480 491Q501 491 511 471T518 414Q517 397 514 371T507 316L473 30Q465 -39 436 -87T366 -164T276 -207T182 -221ZM190 555Q181 547 181 541Q181 533 191 527T214 520Q222 520 227 521T240 525L417 600Q432 607 439 614T447 637Q447 653 438 671T414
701T385 714Q371 714 355 700L190 555Z" />
<glyph unicode="&#xfe;" horiz-adv-x="546" d="M227 -16Q196 -16 156 -5T79 24L127 153Q144 134 172 115T231 82T284 69Q309 69 330 94T365 167T378 281Q378 325 374 352T357 380Q349 380 321 355T250 264T158 81L123 166Q179 293 227 363T319 461T403 490Q465
490 493 443T522 317Q522 220 484 145T380 27T227 -16ZM56 -219Q40 -219 30 -206T15 -174T10 -140Q10 -127 11 -110T14 -72T19 -23L107 696H192Q210 696 223 685T243 659T250 634Q250 615 246 597T234 551L141 191H180L165 56L158 43L152 -219H56Z" />
<glyph unicode="&#xff;" horiz-adv-x="565" d="M182 -221Q120 -221 84 -203T33 -154T18 -83Q18 -63 26 -53T41 -42Q49 -42 55 -48T73 -63Q92 -75 118 -89T173 -113T228 -123Q243 -123 261 -111T298 -63T337 45L396 273H401Q366 175 321 112T225 18T120 -12Q78
-12 58 11T38 75Q38 95 40 119T49 194L86 491H176Q193 491 208 472T224 424Q224 410 223 390T219 346T212 294L199 207Q195 179 193 163T191 132Q191 122 193 114T205 105Q217 105 236 125T276 177T315 246T346 318T358 379Q358 396 357 415T356 445Q356 458 376
468T425 484T480 491Q501 491 511 471T518 414Q517 397 514 371T507 316L473 30Q465 -39 436 -87T366 -164T276 -207T182 -221ZM391 536Q362 536 341 555T320 607Q320 645 344 666T401 688Q431 688 451 670T472 617Q472 582 448 559T391 536ZM192 536Q163 536 142
555T121 607Q121 645 145 666T202 688Q232 688 252 670T273 617Q273 582 249 559T192 536Z" />
<glyph unicode="&#x2013;" horiz-adv-x="598" d="M41 211Q41 222 48 237T67 263T96 275H544Q556 275 556 259Q556 238 541 217T506 195H52Q45 195 43 199T41 211Z" />
<glyph unicode="&#x2014;" horiz-adv-x="703" d="M-14 211Q-14 222 -7 237T12 263T41 275H704Q716 275 716 259Q716 238 701 217T666 195H-3Q-10 195 -12 199T-14 211Z" />
<glyph unicode="&#x2018;" horiz-adv-x="242" d="M265 664Q265 657 261 654T251 648Q208 629 190 604T172 545Q172 535 177 526T200 488L131 540Q146 546 162 546Q191 546 218 525T245 466Q245 426 218 402T152 377Q111 377 87 408T62 483Q62 535 80 574T127 640T186
679T241 693Q252 693 258 683T265 664Z" />
<glyph unicode="&#x2019;" horiz-adv-x="242" d="M41 421Q41 429 45 432T55 437Q98 456 116 481T134 540Q134 551 129 560T106 597L175 545Q160 539 144 539Q116 539 89 560T61 619Q61 660 88 684T154 708Q195 708 219 677T244 602Q244 550 226 511T179 445T120
406T65 392Q54 392 48 402T41 421Z" />
<glyph unicode="&#x201a;" horiz-adv-x="221" d="M-24 -141Q-24 -133 -20 -130T-10 -125Q33 -106 51 -81T69 -22Q69 -11 64 -2T41 35L110 -17Q95 -23 79 -23Q51 -23 24 -2T-4 57Q-4 98 23 122T89 146Q130 146 154 115T179 40Q179 -12 161 -51T114 -117T55 -156T0
-170Q-11 -170 -17 -160T-24 -141Z" />
<glyph unicode="&#x201c;" horiz-adv-x="449" d="M265 664Q265 657 261 654T251 648Q208 629 190 604T172 545Q172 535 177 526T200 488L131 540Q146 546 162 546Q191 546 218 525T245 466Q245 426 218 402T152 377Q111 377 87 408T62 483Q62 535 80 574T127 640T186
679T241 693Q252 693 258 683T265 664ZM472 664Q472 657 468 654T458 648Q415 629 397 604T379 545Q379 535 384 526T407 488L338 540Q353 546 369 546Q398 546 425 525T452 466Q452 426 425 402T359 377Q318 377 294 408T269 483Q269 535 287 574T334 640T393
679T448 693Q459 693 465 683T472 664Z" />
<glyph unicode="&#x201d;" horiz-adv-x="447" d="M41 421Q41 429 45 432T55 437Q98 456 116 481T134 540Q134 551 129 560T106 597L175 545Q160 539 144 539Q116 539 89 560T61 619Q61 660 88 684T154 708Q195 708 219 677T244 602Q244 550 226 511T179 445T120
406T65 392Q54 392 48 402T41 421ZM246 421Q246 429 250 432T260 437Q303 456 321 481T339 540Q339 551 334 560T311 597L380 545Q365 539 349 539Q321 539 294 560T266 619Q266 660 293 684T359 708Q400 708 424 677T449 602Q449 550 431 511T384 445T325 406T270
392Q259 392 253 402T246 421Z" />
<glyph unicode="&#x201e;" horiz-adv-x="426" d="M181 -141Q181 -133 185 -130T195 -125Q238 -106 256 -81T274 -22Q274 -11 269 -2T246 35L315 -17Q300 -23 284 -23Q256 -23 229 -2T201 57Q201 98 228 122T294 146Q335 146 359 115T384 40Q384 -12 366 -51T319
-117T260 -156T205 -170Q194 -170 188 -160T181 -141ZM-24 -141Q-24 -133 -20 -130T-10 -125Q33 -106 51 -81T69 -22Q69 -11 64 -2T41 35L110 -17Q95 -23 79 -23Q51 -23 24 -2T-4 57Q-4 98 23 122T89 146Q130 146 154 115T179 40Q179 -12 161 -51T114 -117T55 -156T0
-170Q-11 -170 -17 -160T-24 -141Z" />
<glyph unicode="&#x2022;" horiz-adv-x="311" d="M152 141Q98 141 59 178T19 274Q19 345 64 384T171 424Q226 424 264 391T302 293Q302 228 258 185T152 141Z" />
<glyph unicode="&#x2039;" horiz-adv-x="351" d="M321 440V440Q309 440 293 433T266 417L44 269Q34 262 28 256T22 240Q22 230 27 225T37 215L202 69Q219 54 229 48T250 42Q262 42 278 53T305 79T317 104Q317 110 315 116T301 129L153 239L211 281Q258 315 288
338T332 379T347 416Q347 426 341 433T321 440Z" />
<glyph unicode="&#x203a;" horiz-adv-x="351" d="M31 46V46Q43 46 59 54T86 69L308 217Q319 224 324 230T330 246Q330 256 325 261T315 271L150 417Q134 432 124 438T102 444Q90 444 75 433T47 407T35 382Q35 376 38 371T51 357L199 247L141 205Q95 172 65 149T20
107T5 70Q5 60 11 53T31 46Z" />
</font>
</defs>
</svg>
